<?xml version="1.0" encoding="UTF-8"?>
<!DOCTYPE svg PUBLIC "-//W3C//DTD SVG 1.1//EN" "http://www.w3.org/Graphics/SVG/1.1/DTD/svg11.dtd">
<!-- Creator: CorelDRAW X7 -->
<svg xmlns="http://www.w3.org/2000/svg" xml:space="preserve" width="1091px" height="1091px" version="1.1" style="shape-rendering:geometricPrecision; text-rendering:geometricPrecision; image-rendering:optimizeQuality; fill-rule:evenodd; clip-rule:evenodd"
viewBox="0 0 1091 1091"
 xmlns:xlink="http://www.w3.org/1999/xlink">
 <defs>
  <style type="text/css">
   <![CDATA[
    .fil13 {fill:#727376}
    .fil6 {fill:#009501}
    .fil11 {fill:#01B1AD}
    .fil4 {fill:#1A1D1A}
    .fil21 {fill:#53B655}
    .fil8 {fill:#569DCA}
    .fil15 {fill:#596536}
    .fil5 {fill:#68696B}
    .fil12 {fill:#6EAC94}
    .fil19 {fill:#778936}
    .fil17 {fill:#78CAC8}
    .fil20 {fill:#87CE88}
    .fil10 {fill:#94C11D}
    .fil3 {fill:#A5A5A5}
    .fil22 {fill:#A8DBA9}
    .fil9 {fill:#ACC942}
    .fil1 {fill:#B9C7CD}
    .fil18 {fill:#BAD07E}
    .fil0 {fill:#DEDEDE}
    .fil16 {fill:#E38787}
    .fil7 {fill:#E64646}
    .fil2 {fill:#F6E8AE}
    .fil14 {fill:#FEFEFE}
   ]]>
  </style>
 </defs>
 <g id="Camada_x0020_1">
  <metadata id="CorelCorpID_0Corel-Layer"/>
  <path class="fil0" d="M511 861l2 -32c-1,-3 0,-9 1,-12 0,0 0,-1 2,-1 0,0 2,0 3,0 8,0 37,-1 41,1 1,4 0,33 0,42 0,2 0,4 -1,5 -3,2 -18,1 -23,1 -4,0 -9,0 -13,0 -3,0 -9,1 -11,-1l-1 -3zm-126 -37c0,-2 0,-5 1,-7 3,-1 17,0 21,0 5,0 18,-2 21,0l-6 47 -42 1 5 -41zm442 8l1 2 4 28 1 2 0 5 -45 0 -6 -50c10,0 20,0 29,0 15,0 15,-3 16,13zm-339 33l-40 0 4 -48 39 0 -3 48zm-203 0l-39 0 -1 -1 10 -47 39 0 1 0 -10 48zm32 -47c1,-2 6,-1 11,-1l35 0c0,2 0,5 -1,7l-5 41 -49 0 9 -47zm591 1l0 1 0 2 0 1 1 1 0 1 1 2 0 1 1 1 0 1 0 2 0 1 1 1 0 2 1 1 0 1 1 2 0 1 0 1 0 1 1 2 0 1 1 1 0 2 0 1 0 1 1 2 0 1 1 1 0 1 1 2 0 1 0 1 0 2 1 1 0 1 1 2 0 1 1 1 -65 1 -1 0 -2 -17 -1 -2 0 -2 -1 -2 0 -2 -1 -3 1 -2 -1 -2 -2 -11 -1 -2 1 -2c-2,-2 -1,-1 -1,-3 2,0 57,-2 60,0zm-195 47l0 -2 -3 -30 -1 -3 -1 -12 51 0 6 50 -50 0 -2 -3zm-490 -1l-60 0 -1 -1 16 -47 53 0 -8 48zm294 -90c2,-1 7,0 10,0 5,0 30,-1 33,0l-1 24 -42 0c-1,-1 0,1 -1,-2l1 -22zm-63 0l40 0 0 24 -40 0 0 -24zm-88 24l-46 0 3 -24 46 0 -3 24zm473 -24l52 0 6 24 -55 0 -3 -24zm-137 0l49 0 3 24c-13,0 -25,0 -37,0 -13,0 -12,6 -15,-24zm74 0l39 0 1 0 3 24 -40 0 -3 -24zm-479 24l-37 0 3 -24 37 0 -3 24zm-60 0l-54 0 6 -24 51 0 -3 24zm194 0l-42 0 3 -24 1 0 41 0 -3 24zm129 -63c0,1 0,0 0,2l0 19c0,0 0,1 -1,1l-39 0c-1,-1 -1,-2 -1,-5 0,-5 -1,-14 1,-17 3,-1 36,-1 39,0 0,0 0,0 1,0zm-63 22l-37 0c-1,-2 -2,-20 0,-22 4,-1 34,-1 37,0l1 20c-1,4 0,1 -1,2zm-100 -21c1,-1 0,-1 5,-1l31 0c5,0 3,0 4,1l0 21 -40 0c-1,-3 -1,-18 0,-21zm-65 -1l42 0 0 22 -43 0 1 -22zm-26 21l-37 1 3 -22 37 0 -3 21zm-63 1l-46 0 6 -22 46 0 -6 22zm525 -26l37 0 6 24 -40 0 -3 -24zm63 0l47 0 1 -1 6 25 -51 0 -3 -24zm-134 0l44 0 1 -1 3 25 -46 0 -2 -24zm-231 -14l0 -25c1,-2 15,-1 18,-1 4,0 15,0 18,1 2,1 1,-1 1,2 0,0 0,3 0,4 0,2 0,4 0,6 0,4 1,10 -1,14 -2,1 -35,0 -36,-1zm-63 -25l40 -1 -1 26 -40 1 1 -26zm123 23l0 -23c1,-1 34,-1 36,0 1,2 1,21 0,23 -2,1 -5,1 -8,1 -6,0 -26,1 -28,-1zm-272 3l-45 0 6 -26 42 -1 -3 27zm58 -1l-35 1 3 -26 34 -1 -2 26zm65 1l-43 0 3 -26 43 0 -3 26zm495 -12l1 2c0,5 1,3 -4,3l-44 0 -3 -26 46 0 4 21zm-181 -21l46 0 2 26 -45 0 -3 -26zm108 24c0,0 0,0 0,0l0 2 -38 1 0 -5 -2 -22 37 0 3 24zm-219 -61l42 0 0 17c-2,2 -41,1 -42,1 -1,-4 -1,-7 -1,-10 0,-2 -1,-7 1,-8zm-29 0c1,1 0,-2 1,2l-1 16 -38 0c-2,0 -1,-1 -2,-1l0 -17 40 0zm-188 11l0 -11 48 0 1 17c-3,2 -48,1 -49,1l0 -7zm-68 -11l39 0c1,2 1,16 1,18l-41 -1c0,-2 0,-16 1,-17zm-69 7l0 -7 43 0 0 17c-3,2 -41,1 -43,0l0 -10zm211 10l0 -17 45 0c1,1 1,0 1,4 0,17 1,14 -6,14l-40 -1c0,0 0,0 0,0zm248 -16l0 -3 43 0 3 21c-3,2 -41,1 -42,1 -2,-1 -1,0 -2,-2l0 -8 -1 -3 0 -3 -1 -3zm129 -1c0,-4 4,-2 8,-2 4,0 8,0 12,0 4,0 19,-2 19,2l1 3 0 2 1 2 1 8 1 2 0 2c-3,2 -34,1 -38,1 -3,0 -3,0 -3,-3l-2 -14 0 -3zm-26 4l1 2 2 13c-3,2 -16,1 -20,1 -15,0 -15,1 -15,-4l0 -3 -1 -3 -1 -12 34 0 0 6zm-715 243l0 2 0 -2 2 0 1 0c1,-4 15,-7 23,-7 266,1 534,0 801,0l103 0c11,0 5,2 14,2l2 5 -88 -303 -4 -1 -764 0c-5,24 -15,53 -22,77l-45 153c-3,11 -23,68 -23,74z"/>
  <path class="fil1" d="M110 918l17 0 0 93 0 5 859 0 0 13 -3 0 -870 0 -3 0 0 -111zm978 169l0 2c0,1 -1,1 -3,2l-8 0c-11,-1 -22,0 -34,0 -348,0 -696,0 -1045,0 0,-7 3,-8 7,-10 5,-2 8,-2 8,-8 4,0 5,-1 7,-2 2,-2 2,-3 4,-4 8,-7 5,-7 12,-7 0,-5 0,-3 1,-4 0,0 3,-3 3,-3 14,-13 6,-2 14,-10 5,-4 5,0 5,-7l8 0 0 -130c4,0 3,-2 3,-7l3 -1 0 -2 2 0 1 0c1,-4 15,-7 23,-7 266,1 534,0 801,0l103 0c11,0 5,2 14,2l2 5 7 3 0 7 2 0 0 118c0,11 3,11 8,16l14 10c2,3 3,4 6,6 4,4 4,0 4,7l6 0c0,5 2,5 5,8 3,3 2,4 9,4 0,8 4,6 7,10 1,1 1,1 1,2zm-547 -146c40,-9 54,48 14,56 -41,9 -54,-47 -14,-56z"/>
  <path class="fil1" d="M571 424c10,-1 -9,-3 17,-3l130 0c49,0 100,-1 150,1l0 128c-4,2 -31,0 -37,0 -22,0 -256,1 -260,0 -2,-3 0,-105 0,-119 0,-1 0,-3 0,-4 0,-1 0,-1 0,-2l0 -1zm41 -359l296 0 0 125c-2,1 0,1 -3,1l0 2 -276 0c-11,0 -15,2 -15,-2 -2,0 -3,0 -3,-1 0,-1 0,1 0,-1l0 -117c0,-6 -1,-6 1,-7zm-61 316l-2 1 -1 0 -3 13 -1 1 -2 0 -1 -3c0,-3 1,-7 0,-10 -4,1 -2,-1 -2,2l0 11 -2 3c-1,0 -3,3 -3,0l0 -12 -1 -3 -3 -1 -3 0 -1 -1 -2 0 -1 -1 -3 0 -46 0 0 52 14 0 0 40 0 14 0 26 -259 0 0 -39 0 -1 3 0 0 -40 14 0 0 -52 -29 0 0 186 710 0 0 25 4 1 0 -175 -3 0 0 -11c-5,0 -6,-7 -8,-11 -3,-3 -7,-6 -10,-10 -6,-6 -3,-5 -14,-5l-96 0 -3 -3 0 3 -2 1 -44 0 0 -166 44 0 2 0 0 3 3 -2 0 -1 134 0 0 -177 -349 0 0 177 163 0 0 165 -197 0z"/>
  <path class="fil2" d="M246 381l0 52 0 39 0 15 229 0 -1 -14 0 -40 0 -52 0 -111c-5,0 -6,-1 -6,3l-2 0 -3 -5c-4,-1 -9,0 -9,5l-5 0 0 -6 -7 0 0 6 -8 0 0 -3 -9 0 0 3 -5 0 0 -6 -9 0 0 6 -5 0 0 -3 -14 0c0,-4 -4,-3 -10,-3l0 6 -5 0 0 -6 -6 0 -3 6 -5 0 0 -6 -9 0 0 6 -2 0 -4 -5 -5 -1 0 6 -8 0 0 -6 -10 0 0 3 -5 0 0 -3 -9 0 0 3 -5 0 0 -3 -9 0 0 6 -5 0 0 -3 -6 0c0,5 -3,3 -8,3l0 -3 -7 0 0 3 -8 0 0 -3 -9 0 0 3 -2 0c0,-4 -1,-3 -6,-3l0 111z"/>
  <path class="fil3" d="M163 592l764 0 0 -25 -710 0 0 -186c-10,0 -21,0 -32,0 -9,0 -7,0 -12,5 -2,2 -6,5 -8,8 -4,4 -2,55 -2,65 0,45 0,89 0,133z"/>
  <path class="fil4" d="M823 510c2,4 -1,3 -1,3 0,0 0,0 -1,0 0,0 0,0 0,0l-25 0c0,0 -1,0 -1,0 -2,0 -1,0 -2,-1l1 -1c-5,-1 -2,-1 -3,-2l0 -25 1 0 3 0 2 0 0 19 18 0c0,-3 0,-13 1,-16 1,-1 -2,-1 2,-1 0,0 0,0 0,-1 0,0 1,0 1,-1 0,0 0,0 0,0l1 -1c1,0 1,0 2,0 0,0 1,0 1,0 2,1 1,1 2,1 2,3 1,16 1,20 0,1 0,2 0,3l-1 3c1,2 -1,1 -2,0zm-47 -6c0,-5 -1,-13 0,-17 -1,-2 1,-1 3,-1 -1,-4 0,-1 0,-2 1,0 -1,-1 3,-1 0,0 1,0 1,0 4,1 1,0 2,1 2,3 1,16 1,20l0 4c0,1 -1,2 -1,2 0,0 0,0 0,0 -1,1 -1,1 -1,1 -1,0 -1,0 -2,0 0,4 -24,2 -29,2 0,-8 -3,4 -2,-13 0,-5 0,-11 0,-16l6 0 0 20 19 0zm-51 0c1,-1 -2,-1 3,-1 0,0 1,0 1,0 2,1 1,1 2,1 0,1 1,-1 1,3 0,0 0,1 0,1 -1,2 -1,1 -1,2 -1,0 1,0 -3,0 0,0 -1,0 -1,0 -3,0 -1,0 -2,0 -1,-1 0,2 -1,-3 0,0 0,-1 0,-1 1,-2 1,-2 1,-2zm-26 -17l3 -3c1,0 0,-1 2,0 3,0 1,-1 1,1l0 25 -6 0 0 -23zm60 -11l-7 6 -1 0 0 -6 -46 0c0,7 0,5 -1,5 -3,-1 0,-2 -5,-2l0 -3 -120 0 0 -36 0 -1 3 -1 0 -3 3 0 0 -2 -1 0 204 0c1,-1 14,-3 14,2l35 0 0 41 -12 0c0,12 -6,3 -9,3l-1 -3 -16 0 -7 6 -1 0 0 -6 -5 0 -1 5 -5 -2c-1,-2 -1,1 -2,-3l-2 0c-1,0 -5,0 -6,0 -6,-2 0,-2 -4,-3l-1 3 -6 0zm-188 -52l0 126 297 0 0 -128c-50,-2 -101,-1 -150,-1l-130 0c-26,0 -7,2 -17,3z"/>
  <path class="fil4" d="M765 145l6 0 0 5c-1,1 1,1 -3,1 0,0 -1,0 -1,0 -4,0 0,0 -2,0 0,-1 0,-1 0,-1l-1 -2c0,-3 1,-3 1,-3zm32 -1l18 0 1 -16c1,-1 -2,-2 2,-1 -1,-2 1,-3 1,-3l6 1 0 26 -31 0c-3,-17 -3,9 -3,-26l6 0 0 19zm-171 -68l1 0 1 -2c3,-3 138,-1 161,-1l40 0c5,0 10,-2 11,3l37 0 0 40 -12 1c0,5 0,11 0,16 0,5 2,15 -3,15 0,5 0,3 -14,3l-16 0c-2,0 -1,0 -2,-1l0 -25c5,0 6,-2 6,2 5,0 4,1 4,6 0,3 0,6 0,9l16 0 3 -24 0 -2 -3 0 -17 0 -8 4 -1 -1 0 -2 -5 2c-4,0 -6,1 -6,-2l-3 -1 -17 0 -2 1c-1,4 -2,2 -6,2l0 -3 -46 0 0 31c0,5 0,4 -5,4l-1 -26c4,0 3,-1 3,-5l-2 -1c-3,-4 -6,-3 -13,-3l-108 0 0 -36 7 -4zm-15 114l3 1c0,4 4,2 15,2l276 0 0 -2c0,0 0,0 0,0 0,0 1,0 1,-1 0,0 1,0 2,0l0 -125 -296 0 -1 125z"/>
  <polygon class="fil3" points="110,1029 113,1029 983,1029 986,1029 986,1016 127,1016 127,1011 127,918 110,918 "/>
  <path class="fil5" d="M622 435l-33 1c-1,3 0,1 -2,3l-5 -1 -3 1 0 1 0 36 120 0 0 -21 6 1 0 20 46 0 0 -19 4 -4c33,0 31,-6 30,28l1 -5 5 0 0 -19 4 -5c5,1 23,0 26,1 6,2 4,14 4,23l12 0 0 -41 -35 0c0,-5 -13,-3 -14,-2l0 2 -166 0z"/>
  <path class="fil5" d="M627 76l1 -2c32,1 69,0 101,0l76 0c11,0 0,2 10,2 5,1 10,-2 10,3l-200 0 1 -3 -7 4 0 36 108 0c7,0 10,-1 13,3l-1 -23 6 0 0 20 46 0 0 -23 34 0 0 26 5 -2 1 -19 4 -5 30 0 0 24 12 -1 0 -40 -37 0c-1,-5 -6,-3 -11,-3l-40 0c-23,0 -158,-2 -161,1l-1 2z"/>
  <polygon class="fil3" points="797,378 797,219 797,216 795,216 751,216 751,382 795,382 797,381 "/>
  <polygon class="fil5" points="488,487 475,487 246,487 246,472 243,473 243,487 232,487 232,473 229,473 229,474 229,513 488,513 "/>
  <path class="fil6" d="M932 358c-2,-3 0,-2 1,-3 0,1 1,2 -1,3zm7 -6c4,0 0,4 0,0zm17 -17l0 0 -1 1c-1,3 -1,2 -4,4l-1 1 0 0 -1 0 0 0 -1 1 -1 0 -1 1 0 0 -1 1 -1 0 -1 0 -1 0 0 -6 1 -4 0 -6 0 -4 1 -5 0 -3c1,-1 0,-1 1,0l1 0 0 1 2 1 1 0c1,0 1,0 1,1l0 0 1 1c1,-1 1,-1 1,1l0 0 1 1 1 0 1 1 0 1 1 1c1,0 1,0 1,1l0 0c1,0 1,0 0,1l0 5c1,2 1,2 0,2l0 0 -1 1zm-18 2c0,2 0,3 0,4 0,1 0,2 0,3 -1,1 0,0 -1,1l-3 0 0 -11 0 -7 1 -5 0 -7 0 -5c1,-1 0,-1 1,0l1 0c1,0 1,0 1,1l0 1c2,2 1,6 1,9l0 6 -1 6 0 4zm3 -65l0 6c-4,1 -1,1 -2,0l-1 -1c-2,-1 -1,-1 -1,-2l0 -5c-1,-3 -1,-7 0,-10l0 -11 0 -3c0,-1 0,-1 1,-1l4 0 0 6 0 5 -1 7 0 9zm-18 -14l0 -5c0,-2 0,-2 1,-2l0 0c0,-1 0,-1 1,-1l0 -1c0,-1 0,0 1,0l1 -1c0,-1 0,-1 1,-1l0 0 1 0c2,0 1,-1 2,0l0 22c-1,0 1,2 -2,0 0,-1 0,-1 0,-2l-1 -1 -1 -1 -1 -1 0 -1c-2,0 -1,0 -1,-1l0 -1 -1 0 0 -1 0 -1c-1,0 -1,1 -1,0l0 -1zm8 -17c-15,3 -26,16 -27,33 0,21 26,30 26,34 0,6 0,34 -1,37l-15 -10c5,-1 9,-6 9,-12 0,-17 -25,-17 -25,0 0,16 16,27 31,29l0 16c6,0 5,-4 5,-16l3 0 -1 13c6,0 6,-1 6,-13 10,-5 13,-3 21,-12 9,-9 11,-16 11,-28 0,-17 -25,-24 -27,-30l2 -36c5,0 12,3 14,6 -15,2 -17,25 -1,25 7,0 13,-7 13,-15 0,-11 -16,-21 -26,-21l1 -7 -7 -2 -1 8 -4 0 0 -11 -7 0 0 12z"/>
  <path class="fil6" d="M183 272c-2,-1 -1,-1 0,-2 0,0 0,1 0,1 2,4 1,0 0,1zm-1 -32l-1 -4 1 -2 1 1 1 0 1 0 0 0 1 1 1 0 1 1 0 0 1 1 1 0 0 0 2 1 1 1 3 3c1,0 1,-1 0,1l0 0c1,0 1,0 1,1l0 4c0,1 1,1 -1,1l0 1 0 1 0 0 -1 1 -1 1c-1,3 -1,3 -4,4 0,2 2,1 -1,2l-1 0c0,1 1,1 -1,1l0 0 -1 0c0,2 1,1 -1,1l0 0c-2,0 -1,1 -1,-2l0 -3 -1 -2 0 -3 0 -3 -1 -2 0 -3 0 -2 0 -2zm-10 -9l0 -2c2,0 2,0 2,1l0 0 1 1 1 1 0 2 0 3 1 3 0 4 1 3 0 2 1 2 0 2 0 2 0 2 0 3 0 2c1,0 1,-1 1,1 0,2 0,1 -1,1l-1 0c0,1 -2,3 -2,1l0 -1 0 -2 0 -1 0 -2 -1 -2 0 -2 0 -2 -1 -2 0 -2 0 -2 -1 -3 0 -3 -1 -3 1 -4 -1 -3zm-21 -57l0 -1c0,-1 0,-1 1,-1l0 0 1 -1 0 -1c0,-1 0,-1 1,-1l1 0c0,-1 0,-1 1,-1l0 0c1,-1 1,-1 1,0l1 2 0 1 0 2 1 2 0 1 -1 3 1 2 0 2 1 2 0 1 0 2 1 2c-1,1 0,1 -1,0 -2,-1 -3,-3 -5,-5 -1,0 -1,0 -1,-1l-1 -1 0 -1c-2,0 -1,0 -1,-1l0 0 -1 -1 0 -1 0 -1c0,0 -1,1 -1,-2 0,-4 0,-1 1,-2zm13 -4l0 -2 0 -2 1 -1 2 0c1,1 1,-1 1,2l0 2 1 2 0 2 0 2 1 2 0 2 0 2 1 3 -1 3 1 3 0 2 0 2 1 4 -2 -1 0 0 -1 -1 -1 0 -1 -1 0 0 -1 -3 1 -3 -1 -2 0 -2 0 -2 -1 -2 0 -2 0 -3 0 -2 -1 -2 0 -2zm14 106c-2,2 -1,1 -2,2 -1,-3 -1,-4 2,-2l0 -5c5,0 2,9 4,13 7,-3 3,-6 3,-15 11,-5 17,-8 22,-19 6,-11 7,-23 -1,-33 -7,-9 -21,-11 -26,-15 -2,-2 -6,-35 -5,-38l15 3c-3,4 -14,8 -9,19 3,9 14,9 19,2 13,-16 -9,-29 -26,-29 0,-7 0,-7 -8,-7l1 8 -4 0 -1 -10 -8 0 2 12c-12,3 -23,22 -21,37 3,18 17,22 31,28l5 39 -16 -6c1,-5 13,-12 2,-23 -11,-12 -33,6 -10,27 7,7 13,8 26,8l2 16c6,-1 4,-5 3,-12z"/>
  <path class="fil6" d="M390 137c-2,-3 1,-2 1,-2 1,1 1,1 -1,2zm9 -6c-1,1 1,2 -2,1 0,-3 1,-1 2,-1zm14 -20l0 1 0 0c0,2 0,1 -1,1l-1 1c-1,3 -1,3 -4,4 1,1 1,1 0,1l-2 1 -1 1 0 0 -1 0 -1 0 -1 1 0 0c0,0 0,0 0,0 0,0 -1,1 -1,1 -1,0 -1,1 -1,-1l0 -27c1,-1 0,-1 1,0l1 0 1 0 0 0 1 1 2 1 0 1 1 0 1 0c1,0 1,0 1,1l1 1 1 0c1,0 1,0 1,1 1,0 1,0 0,1l1 1 1 1c1,0 1,0 0,1l0 1c1,1 2,2 0,3l0 1 0 1zm-22 -22l1 1 1 0 0 1c1,1 1,-1 1,2 0,1 0,2 0,3l0 5 1 8 0 6 0 9 -1 0 -2 0c-1,-1 -1,-2 -1,-4l0 -9c-1,-2 -1,-5 -1,-8l0 -8c0,-2 -1,-4 0,-6l1 0zm-17 -53l-1 -3 0 -1c0,-1 0,-1 1,-1l0 0 1 -1c1,-2 1,-1 3,-3 0,-1 -1,-1 1,-1l0 0c0,0 2,-2 2,1l0 2 0 5 1 5 0 5 1 5c-1,0 -1,2 -1,0 0,0 0,0 -1,0l-2 -3c-1,-1 -1,0 -2,-2l0 -1 -1 -1 0 -1 -1 -1 0 0c-1,0 -1,0 -1,-1l0 -1c-1,0 -1,1 -1,-1l1 -1zm14 -12l2 0 1 0c1,1 1,0 1,2 0,2 0,2 0,3l0 8 0 8c1,2 1,5 1,8l0 4c-1,1 0,1 -1,0l-1 -1 -1 0c-1,0 -1,1 -1,-1 -1,-2 -1,-6 -1,-9 -1,-2 -1,-4 -1,-7l0 -9c0,0 -1,-1 -1,-3 0,-3 0,-2 2,-3zm-8 -3c-14,3 -24,17 -24,35 0,14 18,27 29,30l2 38c-8,-2 -13,-2 -17,-8 12,-3 11,-25 -4,-25 -9,0 -12,7 -12,15 0,12 15,25 34,25l0 16c6,0 6,-1 4,-16l3 0 1 13c6,-1 4,-6 4,-15 15,-1 30,-20 30,-37 0,-22 -31,-25 -31,-34 0,-4 -1,-32 0,-35l14 6c-14,4 -16,25 0,25 8,0 13,-7 13,-14 0,-12 -16,-21 -27,-21l0 -7 -8 -1c-1,7 2,8 -4,8l0 -10 -8 -1 1 13z"/>
  <path class="fil6" d="M544 383c2,1 2,2 -1,2l1 -2zm16 -19l-1 1 0 2 -1 0 -4 4c0,1 1,1 -1,1l0 0 -1 0 -1 1 0 0 -1 1 -1 0 -1 1 -1 0 -1 0 0 -28c3,-1 1,0 2,0l0 0c2,0 1,0 1,1l2 1 0 1 2 0 1 1 1 1 1 1 1 0 0 1c1,0 1,-1 1,1l1 0 0 1 0 1 1 1 0 0c1,2 2,3 0,5l0 1 0 0zm-21 -22l0 0c2,0 1,0 1,1 1,0 1,-1 1,0 2,5 1,13 1,18l0 15c-1,1 1,1 -2,1l-1 0c-1,-1 -1,0 -1,-2 0,-1 0,-3 0,-3l0 -12 -1 -19c5,0 1,0 2,1zm-17 -57l0 -1 1 -1 0 0 1 -1 0 -1c0,-1 0,-1 1,-1l1 0 1 -1 0 0c0,-1 0,-1 1,-1 2,1 2,3 2,6 0,2 0,3 0,5 1,2 1,6 1,9l-1 3 -2 -2c-2,-2 -1,1 -2,-2l0 -1 -1 -1c-1,0 0,1 0,0l0 -1c-1,0 -1,0 -1,-1l0 -1 -1 -1 0 0 -1 -2 0 -4zm15 -8l2 -1 1 0c1,0 1,0 1,1l0 19c0,4 1,11 -1,14 -1,0 -1,0 -1,-1l0 -1 -1 0c-3,-1 -1,0 -1,-2l-1 -10 1 -12c-1,-1 -1,-2 -1,-3 0,-3 -1,-3 1,-4zm-17 104l3 0 1 1 2 0 1 1 3 0c2,0 3,0 4,1l0 3 0 12 3 0 2 -3 -1 -7 -1 1 -1 -3 2 0 0 -4c1,0 1,0 1,0l3 0 0 13 2 0 1 -1 3 -13 1 0 2 -1c7,-5 10,-3 18,-13 3,-5 8,-14 8,-22 0,-22 -27,-26 -29,-33l0 -37 14 5c-3,4 -15,6 -11,19 3,8 14,9 20,3 13,-15 -9,-31 -23,-31l0 -7 -8 -2c0,7 2,7 -4,9l0 -11 -7 -1 0 12c-9,5 -11,3 -17,13 -3,5 -7,13 -7,22 0,17 16,25 27,31l1 38c-7,0 -13,-4 -16,-8 18,-4 3,-38 -12,-21 -6,6 -4,14 0,21 4,8 10,9 15,13z"/>
  <path class="fil7" d="M849 822l-1 2 1 2 2 11 1 2 -1 2 1 3 0 2 1 2 0 2 1 2 2 17 1 0 65 -1 -1 -1 0 -1c-1,0 -1,0 -1,-2l0 -1 -1 -1 0 -2c-1,0 0,1 0,-1l0 -1 -1 -2 0 -1c-1,0 -1,1 -1,-1l0 -1 -1 -2 0 -1 0 -1 0 -2 -1 -1 0 -1 -1 -2 0 -1 0 -1 0 -1 -1 -2 0 -1 -1 -1 0 -2 -1 -1 0 -1 0 -2 0 -1 -1 -1 0 -1c-2,0 -1,0 -1,-2l0 -1 -1 -1 0 -1c-1,0 -1,0 0,-2l0 -1 -60 0 1 3z"/>
  <polygon class="fil8" points="231,817 178,817 162,864 163,865 223,865 "/>
  <polygon class="fil5" points="709,831 710,834 713,864 713,866 715,869 765,869 759,819 708,819 "/>
  <path class="fil3" d="M541 967c-3,-5 -4,1 -3,-8 0,-3 -1,-2 1,-3l2 -3c3,0 7,0 10,0 8,1 -1,1 6,3 1,7 -2,7 -5,10 0,23 3,2 3,18l-14 0 0 -17zm0 -26c-40,9 -27,65 14,56 40,-8 26,-65 -14,-56z"/>
  <path class="fil8" d="M362 824l1 -7c-10,0 -38,-1 -46,1l-9 47 49 0 5 -41z"/>
  <path class="fil5" d="M833 864l-1 -2 -4 -28 -1 -2c-1,-16 -1,-13 -16,-13 -9,0 -19,0 -29,0l6 50 45 0 0 -5z"/>
  <path class="fil8" d="M513 829l-2 32 1 3 47 0 0 -47 -45 0c0,2 1,11 -1,12z"/>
  <polygon class="fil8" points="385,824 380,865 422,864 428,817 386,817 "/>
  <polygon class="fil8" points="295,817 294,817 255,817 245,864 246,865 285,865 "/>
  <polygon class="fil8" points="491,817 452,817 448,865 488,865 "/>
  <polygon class="fil5" points="842,799 897,799 891,775 839,775 "/>
  <path class="fil5" d="M873 709l-1 -2 -4 -21 -46 0 3 26 44 0c5,0 4,2 4,-3z"/>
  <polygon class="fil8" points="240,775 189,775 183,799 237,799 "/>
  <polygon class="fil5" points="694,712 739,712 737,686 691,686 "/>
  <polygon class="fil5" points="834,756 885,756 879,731 878,732 831,732 "/>
  <path class="fil5" d="M717 799c12,0 24,0 37,0l-3 -24 -49 0c3,30 2,24 15,24z"/>
  <path class="fil9" d="M830 117l0 2 1 1 8 -4 0 -14 17 0 0 14 3 0 0 2 -3 24 -16 0c-1,-1 -1,1 -1,-3l0 -10 -2 -1c0,-1 0,-1 -1,-1 0,-4 -1,-2 -6,-2l0 25 31 0c0,0 0,0 0,0l1 -2c0,0 0,0 0,0 5,0 3,-10 3,-15 0,-5 0,-11 0,-16l0 -24 -30 0 -4 5 -1 19z"/>
  <polygon class="fil8" points="257,692 215,693 209,719 254,719 "/>
  <polygon class="fil8" points="380,693 337,693 334,719 377,719 "/>
  <polygon class="fil5" points="742,731 741,732 697,732 699,756 745,756 "/>
  <polygon class="fil8" points="369,775 323,775 320,799 366,799 "/>
  <polygon class="fil8" points="402,719 442,718 443,692 403,693 "/>
  <polygon class="fil8" points="517,799 559,799 560,775 517,775 "/>
  <polygon class="fil8" points="434,775 393,775 392,775 389,799 431,799 "/>
  <path class="fil1" d="M627 76l-1 0 -1 3 200 0c0,-5 -5,-2 -10,-3 -10,0 1,-2 -10,-2l-76 0c-32,0 -69,1 -101,0l-1 2z"/>
  <polygon class="fil8" points="249,736 203,736 197,758 243,758 "/>
  <polygon class="fil5" points="761,708 762,712 799,712 799,710 796,686 759,686 "/>
  <polygon class="fil5" points="779,799 819,799 816,775 815,775 776,775 "/>
  <polygon class="fil8" points="454,799 494,799 494,775 454,775 "/>
  <polygon class="fil8" points="466,718 502,719 502,693 466,693 "/>
  <polygon class="fil5" points="771,756 811,756 805,732 768,732 "/>
  <polygon class="fil8" points="331,758 374,758 374,736 332,736 "/>
  <path class="fil10" d="M685 650l1 3 0 3 1 3 0 8c1,1 2,1 2,1l42 0 -3 -21 -43 0 0 3z"/>
  <polygon class="fil8" points="314,692 280,693 277,719 312,718 "/>
  <polygon class="fil8" points="300,775 263,775 260,799 297,799 "/>
  <polygon class="fil8" points="520,758 559,758 560,736 520,736 "/>
  <path class="fil10" d="M814 649l0 3 2 14 1 2 40 0 0 -2 -1 -2 -1 -8 -1 -2 0 -2 -1 -3c0,-4 -15,-2 -19,-2 -4,0 -8,0 -12,0 -4,0 -8,-2 -8,2z"/>
  <polygon class="fil8" points="526,716 562,716 562,693 526,693 "/>
  <polygon class="fil8" points="397,758 437,758 437,737 397,737 "/>
  <path class="fil11" d="M363 660c1,2 0,4 1,6l48 0 -1 -17 -48 0 0 11z"/>
  <polygon class="fil8" points="460,758 497,758 497,736 460,736 "/>
  <polygon class="fil8" points="309,736 272,736 269,758 306,757 "/>
  <polygon class="fil11" points="437,666 483,666 482,649 437,649 "/>
  <polygon class="fil11" points="622,666 622,649 580,649 580,666 "/>
  <polygon class="fil10" points="755,659 756,662 756,665 757,668 791,668 789,655 788,653 788,647 754,647 "/>
  <path class="fil11" d="M226 656c1,3 0,7 1,10l42 0 0 -17 -43 0 0 7z"/>
  <polygon class="fil11" points="511,666 551,666 551,649 511,649 "/>
  <polygon class="fil11" points="334,649 295,649 295,666 334,666 "/>
  <path class="fil9" d="M791 476l0 6 1 0 7 -6 0 -15 17 0 0 18c3,0 9,9 9,-3 0,-9 2,-21 -4,-23 -3,-1 -21,0 -26,-1l-4 5 0 19z"/>
  <path class="fil9" d="M751 476l0 6 1 0 7 -6 0 -15 17 0 0 15 2 0c2,1 1,-2 2,1l0 2 5 2c1,-34 3,-28 -30,-28l-4 4 0 19z"/>
  <path class="fil9" d="M791 116l0 3c4,0 5,2 6,-2l2 -1 0 -14 17 0 0 14 3 1c0,3 2,2 6,2l0 -26 -34 0 0 23z"/>
  <path class="fil9" d="M782 511c0,-2 1,-1 3,-1l0 -26 -6 0c1,4 0,2 0,2 0,2 -1,1 -3,1 1,3 2,15 0,17l-19 0 0 -20 -6 0c0,5 0,11 0,16 -1,17 2,5 2,13 5,0 29,2 29,-2z"/>
  <path class="fil9" d="M791 509c2,0 3,0 3,2l-1 1 29 1c0,-2 -1,-3 1,-3 0,0 -2,-1 2,0l0 -26 -6 0c0,2 1,3 -1,2 0,1 2,1 -2,1l0 17 -18 0c-2,0 0,1 -1,-1l0 -19 -2 0 -3 0 -1 0 0 25z"/>
  <polygon class="fil12" points="474,473 488,473 488,433 474,433 "/>
  <polygon class="fil12" points="232,473 243,473 246,472 246,433 232,433 "/>
  <path class="fil9" d="M819 124c0,2 1,3 -1,3 0,1 2,1 -2,1l0 17 -15 0c-1,0 -2,0 -3,0 -2,-1 0,1 -1,-1l0 -19 -6 0c0,35 0,9 3,26l31 0 0 -26 -6 -1z"/>
  <path class="fil13" d="M541 967l0 17 14 0c0,-16 -3,5 -3,-18 3,-3 6,-3 5,-10 -7,-2 2,-2 -6,-3 -3,0 -7,0 -10,0l-2 3c-2,1 -1,0 -1,3 -1,9 0,3 3,8z"/>
  <path class="fil12" d="M571 550c4,1 238,0 260,0 6,0 33,2 37,0l-297 0 0 -126 0 1c0,1 0,1 0,2 0,1 0,3 0,4 0,14 -2,116 0,119z"/>
  <path class="fil9" d="M740 119l2 1c0,4 1,5 -3,5l1 26c5,0 5,1 5,-4l0 -31 0 -20 -6 0 1 23z"/>
  <path class="fil14" d="M72 226c4,-1 10,-9 10,-15l0 -2c0,-6 -11,-11 -18,-11l8 28z"/>
  <path class="fil14" d="M399 122l2 0 0 0c0,-1 0,-1 1,-1l1 0c0,-1 0,-1 1,0l0 0c0,-2 0,-1 1,-1l2 -1 0 -1 1 -1c1,0 1,0 1,-1l2 -1c0,0 0,-1 0,-1l1 -1 1 -1 0 0 0 -1 0 -1 0 -1 0 -3 0 -1 0 -1 -1 -1c-1,0 -1,0 -1,-1 -1,0 0,0 0,-1 -1,0 -1,0 -1,-1 -1,1 -1,1 -1,0l-1 -1c-2,0 -1,0 -1,-1l-1 0 -1 0 0 -1 -2 -1c-1,0 -1,1 -1,-1l0 0c-2,0 -1,1 -1,0l-1 0 -1 0 0 27z"/>
  <path class="fil14" d="M944 319l0 5 -1 4 0 6 -1 4 0 6 1 0 1 0 1 0 1 -1 0 0 1 -1 1 0 1 -1 0 0 1 0 0 0 1 -1 4 -4 1 -1 0 0c0,-1 -1,-1 1,-1l0 0 0 -2 0 -5 0 -1 0 0 -1 -1c-1,0 -1,0 -1,-1l0 -1 -1 -1 -1 0 -1 -1c-1,0 -1,1 0,0l-1 -1c-1,0 -1,0 -1,-1l0 0 -1 -1c-2,1 -1,1 -1,0l-2 -1 0 -1 -1 0 -1 0 0 3z"/>
  <path class="fil14" d="M181 236l1 4 0 2 0 2 1 3 0 2 0 3 1 3 0 2 0 3 1 2 0 0 1 -1 1 0 0 0 1 -1 1 0c0,-1 0,-1 1,-2l4 -4 1 -1c0,-1 -1,-1 1,-1l0 0c-1,-2 -1,-1 0,-1l0 -1 0 -1 0 -4 0 -1 0 0 0 -1 -3 -3 -1 -1 -2 -1c-1,0 0,1 0,0l-1 0c-1,0 -1,0 -1,-1l0 0c-1,0 -1,0 -1,-1l-1 0c-1,0 -1,0 -1,-1l0 0c-1,0 -1,1 -1,0l-1 0c-1,0 -1,0 -1,-1l-1 2z"/>
  <path class="fil14" d="M547 375l1 0c0,-1 0,-1 1,-1l1 0c0,-1 0,-1 1,-1l0 0 1 -1 1 0 0 0 1 -1 4 -4 1 0 0 -2 1 -1 0 0 0 -1 0 -5 0 0c-1,0 -1,0 -1,-1l0 -1c-1,0 -1,1 0,-1l-1 0 -1 -1 0 -1 -1 0c-2,0 -1,0 -1,-1l-1 -1 -1 -1 -2 0 0 -1 -2 -1 -1 -1 0 0c-1,2 -2,25 -2,25 1,3 0,2 1,3z"/>
  <polygon class="fil5" points="799,476 815,476 816,479 816,461 799,461 "/>
  <path class="fil5" d="M759 476l6 0 1 -3c4,1 -2,1 4,3 1,0 5,0 6,0l0 -15 -17 0 0 15z"/>
  <polygon class="fil5" points="839,116 856,116 856,102 839,102 "/>
  <polygon class="fil5" points="799,116 797,117 799,116 816,116 819,117 816,116 816,102 799,102 "/>
  <polygon class="fil4" points="475,487 488,487 488,473 474,473 "/>
  <polygon class="fil4" points="243,473 232,473 232,487 243,487 "/>
  <polygon class="fil9" points="699,487 699,510 705,510 705,485 702,484 702,487 "/>
  <path class="fil14" d="M33 135l9 25c1,4 1,4 6,5l-10 -32c-2,1 -3,1 -5,2z"/>
  <path class="fil9" d="M699 476l0 3c5,0 2,1 5,2 1,0 1,2 1,-5l0 -20 -6 -1 0 21z"/>
  <path class="fil14" d="M65 229c2,0 2,0 4,0l-9 -27c-2,-7 -1,-4 -6,-7 0,5 6,20 8,26 1,2 2,6 3,8z"/>
  <path class="fil14" d="M23 145c0,9 9,15 13,15l-8 -22c-2,1 -2,1 -4,3 0,1 -1,2 -1,4z"/>
  <path class="fil1" d="M513 829c2,-1 1,-10 1,-12l45 0 0 47 -47 0 -1 -3 1 3c2,2 8,1 11,1 4,0 9,0 13,0 5,0 20,1 23,-1 1,-1 1,-3 1,-5 0,-9 1,-38 0,-42 -4,-2 -33,-1 -41,-1 -1,0 -3,0 -3,0 -2,0 -2,1 -2,1 -1,3 -2,9 -1,12z"/>
  <path class="fil14" d="M164 166l0 2 1 2 -1 2 1 2 0 2 0 3 1 2 0 2 0 2 1 2 0 2 -1 3c2,1 1,0 1,3l0 0 1 1 1 0c1,0 1,0 1,1l0 0c1,-1 1,1 1,-3l0 -2 0 -2 -1 -3 1 -3c-1,-1 -1,0 -1,-3l0 -2 -1 -2 0 -2 0 -2 -1 -2 0 -2 0 -2 -1 -2 -2 0 -1 1z"/>
  <path class="fil14" d="M937 249l0 11c1,3 1,8 0,10l0 5 1 2 1 1c3,-2 0,2 1,-1 1,-3 0,-3 1,-5l0 -9 0 -7 1 -5 0 -6 -3 1c-2,2 -1,1 -2,3z"/>
  <path class="fil14" d="M387 30l0 9c1,1 0,-1 1,2 0,0 0,1 0,1 0,1 0,3 0,4 0,3 0,7 1,9l1 1 1 0c2,0 1,-1 1,-3l0 -8 0 -8 -1 -8 0 -5 -1 0 -2 0 -1 6z"/>
  <path class="fil14" d="M527 279l0 0c0,1 0,1 -1,1l-1 0 -1 1 0 1 -1 1 0 0 0 1 -1 1 0 4 1 2 0 0c1,0 1,0 1,1l0 1c1,0 1,0 1,1l0 1 0 0 1 1 0 1c1,0 1,0 2,2l2 2 1 -3 -1 -9c0,-2 0,-3 0,-5 0,-3 0,-5 -2,-6l-1 1z"/>
  <path class="fil14" d="M928 247l0 0 -1 1c0,1 0,1 -1,1l-1 0c0,1 1,1 0,1l-1 1 0 0 -1 2 0 5 1 1 0 0 0 1 1 1 0 0 0 1 1 1 0 1c1,0 1,0 1,1l1 1c1,0 1,0 1,1 1,2 0,1 2,2l0 -22c-1,-1 0,0 -2,0l-1 0z"/>
  <path class="fil14" d="M172 231l1 3 -1 4 1 3 0 3 1 3 0 2 1 2 0 2 0 2 1 2 0 2 0 2 0 1 0 2 0 1 2 -1 1 0 0 -2 0 -2 -1 -3 1 -2 0 -2 -1 -2 0 -2 0 -2 -1 -3 0 -4c-1,-2 0,-1 -1,-3l0 -3 0 -2 -1 -1c-1,0 -1,0 -1,-1l0 0 -2 -1 0 2z"/>
  <path class="fil14" d="M538 360l0 12 1 5 1 0 2 -1 0 -15 -1 -18 -1 0c-1,0 -1,0 -1,-1l0 0c-2,1 -1,0 -1,2l0 16z"/>
  <path class="fil14" d="M935 315l0 7 0 5 -1 7 0 11 3 0 1 -8 0 -4 0 -6 1 -6c0,-3 1,-7 -1,-9l0 -1c-2,0 -1,0 -1,-1l-1 0 -1 5z"/>
  <path class="fil14" d="M155 169c0,1 0,1 -1,0l-1 1 0 1c0,2 1,1 -1,1l0 0 -1 1 0 1 0 4 0 1 1 1 0 1 0 0 1 1 0 1c2,0 1,0 1,1l1 1c2,2 3,4 5,5l0 -2 0 -2 -1 -1 0 -2 0 -2 -1 -2 1 -3 -1 -1 0 -2 0 -2 -1 -1 0 -2 -1 0 0 0 -1 1z"/>
  <path class="fil14" d="M390 95l0 8c1,2 1,5 1,8l0 9 1 4 2 0 1 0 0 -9 -1 -6 0 -8 0 -5 -1 -5c-1,0 0,0 0,-1l-1 0 -1 -1c-1,2 0,0 -1,3 0,1 1,2 0,3z"/>
  <path class="fil14" d="M378 27c-2,2 -2,1 -3,3 0,1 0,1 -1,1l0 0 0 1 -1 1 1 3c1,0 0,0 0,1l0 1 0 1 1 1 0 0c1,0 1,0 1,1l0 1c1,0 0,0 1,1l0 1c1,1 0,-1 2,2l2 3 1 -5 0 -5 -1 -5 0 -5 -1 -2 -1 -1 0 0 -1 1z"/>
  <path class="fil14" d="M537 284l-1 12c1,2 2,7 1,10 1,1 0,1 1,2l1 0 0 1c1,0 1,0 1,1 2,-3 1,-10 1,-14 -2,-5 -1,-13 -1,-19l-1 0 -2 0 0 7z"/>
  <path class="fil5" d="M611 190c0,1 1,1 3,1l-3 -1 1 -125c-2,1 -1,1 -1,7l0 117c0,2 0,0 0,1z"/>
  <path class="fil15" d="M818 486c-4,0 -1,0 -2,1 -1,3 -1,13 -1,16l-18 0c1,2 -1,1 1,1l18 0 0 -17c4,0 2,0 2,-1 2,1 1,0 1,-2l6 0 0 26c-4,-1 -2,0 -2,0 -2,0 -1,1 -1,3l-29 -1c1,1 0,1 2,1 0,0 1,0 1,0l25 0c0,0 0,0 0,0 1,0 1,0 1,0 0,0 3,1 1,-3 1,1 3,2 2,0l1 -3c0,-1 0,-2 0,-3 0,-4 1,-17 -1,-20 -1,0 0,0 -2,-1 0,0 -1,0 -1,0 -1,0 -1,0 -2,0l-1 1c0,0 0,0 0,0 0,1 -1,1 -1,1 0,1 0,1 0,1z"/>
  <path class="fil1" d="M502 693l0 26 -36 -1c1,1 34,2 36,1 2,-4 1,-10 1,-14 0,-2 0,-4 0,-6 0,-1 0,-4 0,-4 0,-3 1,-1 -1,-2 -3,-1 -14,-1 -18,-1 -3,0 -17,-1 -18,1l36 0z"/>
  <path class="fil1" d="M460 758l0 -22 37 0 0 22c1,-1 0,2 1,-2l-1 -20c-3,-1 -33,-1 -37,0 -2,2 -1,20 0,22z"/>
  <path class="fil1" d="M562 693l0 23 -36 0c2,2 22,1 28,1 3,0 6,0 8,-1 1,-2 1,-21 0,-23 -2,-1 -35,-1 -36,0l36 0z"/>
  <path class="fil1" d="M520 758l0 -22 40 0 -1 22c1,0 1,-1 1,-1l0 -19c0,-2 0,-1 0,-2 -1,0 -1,0 -1,0 -3,-1 -36,-1 -39,0 -2,3 -1,12 -1,17 0,3 0,4 1,5z"/>
  <path class="fil16" d="M849 822l-1 -3 60 0c-3,-2 -58,0 -60,0 0,2 -1,1 1,3z"/>
  <path class="fil17" d="M622 666l-42 0 0 -17c-2,1 -1,6 -1,8 0,3 0,6 1,10 1,0 40,1 42,-1z"/>
  <path class="fil1" d="M397 758l0 -21 40 0c-1,-1 1,-1 -4,-1l-31 0c-5,0 -4,0 -5,1 -1,3 -1,18 0,21z"/>
  <path class="fil15" d="M779 486c-2,0 -4,-1 -3,1 -1,4 0,12 0,17 2,-2 1,-14 0,-17 2,0 3,1 3,-1 0,0 1,2 0,-2l6 0 0 26c-2,0 -3,-1 -3,1 1,0 1,0 2,0 0,0 0,0 1,-1 0,0 0,0 0,0 0,0 1,-1 1,-2l0 -4c0,-4 1,-17 -1,-20 -1,-1 2,0 -2,-1 0,0 -1,0 -1,0 -4,0 -2,1 -3,1 0,1 -1,-2 0,2z"/>
  <path class="fil17" d="M334 649l0 17 -39 0 0 -17c-1,1 -1,15 -1,17l41 1c0,-2 0,-16 -1,-18z"/>
  <path class="fil17" d="M412 666l-48 0c-1,-2 0,-4 -1,-6l0 7c1,0 46,1 49,-1z"/>
  <path class="fil17" d="M269 666l-42 0c-1,-3 0,-7 -1,-10l0 10c2,1 40,2 43,0z"/>
  <path class="fil1" d="M517 799l0 -24 43 0 -1 24 1 -24c-3,-1 -28,0 -33,0 -3,0 -8,-1 -10,0l-1 22c1,3 0,1 1,2z"/>
  <path class="fil18" d="M857 668l-40 0 -1 -2c0,3 0,3 3,3 4,0 35,1 38,-1z"/>
  <path class="fil18" d="M731 668l-42 0c0,0 -1,0 -2,-1 1,2 0,1 2,2 1,0 39,1 42,-1z"/>
  <path class="fil17" d="M437 666c0,0 0,0 0,0l40 1c7,0 6,3 6,-14 0,-4 0,-3 -1,-4l1 17 -46 0z"/>
  <path class="fil17" d="M511 666c1,0 0,1 2,1l38 0 1 -16c-1,-4 0,-1 -1,-2l0 17 -40 0z"/>
  <path class="fil17" d="M385 824l1 -7 42 0c-3,-2 -16,0 -21,0 -4,0 -18,-1 -21,0 -1,2 -1,5 -1,7z"/>
  <polygon class="fil9" points="765,151 771,150 771,145 765,145 "/>
  <path class="fil0" d="M582 438l5 1c2,-2 1,0 2,-3l33 -1 -37 0 -3 0 0 3z"/>
  <path class="fil18" d="M791 668l-34 0 -1 -3c0,5 0,4 15,4 4,0 17,1 20,-1z"/>
  <polygon class="fil9" points="725,510 731,510 731,504 725,504 "/>
  <path class="fil19" d="M830 150c1,1 0,1 2,1l16 0c14,0 14,2 14,-3 0,0 0,0 0,0l-1 2c0,0 0,0 0,0l-31 0z"/>
  <path class="fil15" d="M818 127c-4,-1 -1,0 -2,1l-1 16 -18 0c1,2 -1,0 1,1 1,0 2,0 3,0l15 0 0 -17c4,0 2,0 2,-1 2,0 1,-1 1,-3 0,0 -2,1 -1,3z"/>
  <path class="fil20" d="M547 375c-1,-1 0,0 -1,-3 0,0 1,-23 2,-25 -1,0 1,-1 -2,0l0 28 1 0z"/>
  <path class="fil3" d="M799 710l0 2 -37 0 -1 -4 0 5 38 -1 0 -2c0,0 0,0 0,0z"/>
  <path class="fil17" d="M362 824c1,-2 1,-5 1,-7l-35 0c-5,0 -10,-1 -11,1 8,-2 36,-1 46,-1l-1 7z"/>
  <path class="fil21" d="M538 387l0 2 1 7 0 -11c0,-3 -2,-1 2,-2 1,3 0,7 0,10l1 3 0 -13 -3 0c0,0 0,0 -1,0l0 4z"/>
  <path class="fil22" d="M540 277c0,6 -1,14 1,19l0 -19 -1 0 0 -1 -1 0 0 1 1 0z"/>
  <path class="fil19" d="M840 142c0,-3 0,-6 0,-9 0,-5 1,-6 -4,-6 1,0 1,0 1,1l2 1 0 10c0,4 0,2 1,3z"/>
  <path class="fil21" d="M538 360l0 -16c0,-2 -1,-1 1,-2 -1,-1 3,-1 -2,-1l1 19z"/>
  <path class="fil22" d="M541 343l1 18c0,-5 1,-13 -1,-18 0,-1 0,0 -1,0l1 0z"/>
  <path class="fil15" d="M731 504l0 6c0,-1 0,0 1,-2 0,0 0,-1 0,-1 0,-4 -1,-2 -1,-3 -1,0 0,0 -2,-1 0,0 -1,0 -1,0 -5,0 -2,0 -3,1l6 0z"/>
  <path class="fil22" d="M537 306l0 0c1,-3 0,-8 -1,-10l1 10z"/>
  <path class="fil19" d="M765 151c2,0 -2,0 2,0 0,0 1,0 1,0 4,0 2,0 3,-1l-6 1 0 -6c0,0 -1,0 -1,3l1 2c0,0 0,0 0,1z"/>
  <path class="fil19" d="M725 510c1,0 -1,0 2,0 0,0 1,0 1,0 4,0 2,0 3,0l-6 0 0 -6c0,0 0,0 -1,2 0,0 0,1 0,1 1,5 0,2 1,3z"/>
  <path class="fil15" d="M699 487l3 0 0 -3 3 1c0,-2 2,-1 -1,-1 -2,-1 -1,0 -2,0l-3 3z"/>
  <path class="fil20" d="M937 270c1,-2 1,-7 0,-10 -1,3 -1,7 0,10z"/>
  <path class="fil21" d="M939 278c1,1 -2,1 2,0l0 -6c-1,2 0,2 -1,5 -1,3 2,-1 -1,1z"/>
  <path class="fil21" d="M387 30l1 -6c-2,1 -2,0 -2,3 0,2 1,3 1,3z"/>
  <path class="fil21" d="M537 284l0 -7 2 0 0 -1 -2 1c-2,1 -1,1 -1,4 0,1 0,2 1,3z"/>
  <path class="fil20" d="M392 53l1 0c0,-3 0,-6 -1,-8l0 8z"/>
  <path class="fil21" d="M390 95c1,-1 0,-2 0,-3 1,-3 0,-1 1,-3l-1 0c-1,2 0,4 0,6z"/>
  <path class="fil21" d="M388 46c0,-1 0,-3 0,-4 0,0 0,-1 0,-1 -1,-3 0,-1 -1,-2 0,3 0,5 1,7z"/>
  <polygon class="fil4" points="538,389 538,387 536,387 537,390 "/>
  <path class="fil4" d="M178 276l0 0c-3,-2 -3,-1 -2,2 1,-1 0,0 2,-2z"/>
  <path class="fil20" d="M391 111c0,-3 0,-6 -1,-8 0,3 0,6 1,8z"/>
  <path class="fil4" d="M390 137c2,-1 2,-1 1,-2 0,0 -3,-1 -1,2z"/>
  <path class="fil4" d="M932 358c2,-1 1,-2 1,-3 -1,1 -3,0 -1,3z"/>
  <path class="fil21" d="M391 24l0 5 1 0c0,-1 0,-1 0,-3 0,-2 0,-1 -1,-2l-1 0 1 0z"/>
  <polygon class="fil21" points="394,109 395,109 394,101 "/>
  <path class="fil1" d="M937 246l0 3c1,-2 0,-1 2,-3l3 -1 -4 0c0,1 0,1 -1,1z"/>
  <path class="fil22" d="M937 345c1,-1 0,0 1,-1 0,-1 0,-2 0,-3 0,-1 0,-2 0,-4l-1 8z"/>
  <path class="fil21" d="M381 49c1,0 1,0 1,0 0,2 0,0 1,0l-1 -5 -1 5z"/>
  <polygon class="fil22" points="392,37 392,29 391,29 "/>
  <path class="fil21" d="M151 178l0 -4c-1,1 -1,-2 -1,2 0,3 1,2 1,2z"/>
  <polygon class="fil22" points="934,334 935,327 934,327 "/>
  <path class="fil4" d="M397 132c3,1 1,0 2,-1 -1,0 -2,-2 -2,1z"/>
  <path class="fil22" d="M539 377l-1 -5c0,0 0,2 0,3 0,2 0,1 1,2z"/>
  <path class="fil20" d="M560 363c2,-2 1,-3 0,-5l0 5z"/>
  <path class="fil19" d="M794 511c0,-2 -1,-2 -3,-2 1,1 -2,1 3,2z"/>
  <polygon class="fil21" points="941,263 942,256 941,256 "/>
  <polygon class="fil22" points="196,249 197,249 197,245 196,245 "/>
  <path class="fil12" d="M534 387l0 -3c-1,-1 -2,-1 -4,-1l3 1 1 3z"/>
  <polygon class="fil22" points="395,115 395,109 394,109 "/>
  <polygon class="fil22" points="938,327 939,327 939,321 "/>
  <path class="fil19" d="M780 479l0 -2c-1,-3 0,0 -2,-1 1,4 1,1 2,3z"/>
  <path class="fil1" d="M391 56l1 1 1 0 0 -4 -1 0c0,2 1,3 -1,3z"/>
  <path class="fil4" d="M543 385c3,0 3,-1 1,-2l-1 2z"/>
  <path class="fil4" d="M939 352c0,4 4,0 0,0z"/>
  <path class="fil20" d="M531 298c0,-3 0,-7 -1,-9l1 9z"/>
  <polygon class="fil22" points="941,256 942,256 942,251 "/>
  <polygon class="fil21" points="938,333 939,327 938,327 "/>
  <path class="fil22" d="M407 118c3,-1 3,-1 4,-4 0,0 0,1 0,1l-2 1c0,1 0,1 -1,1l-1 1z"/>
  <path class="fil22" d="M951 340c3,-2 3,-1 4,-4l-4 4z"/>
  <path class="fil22" d="M393 91l1 5c0,-1 0,-2 0,-3 0,-3 0,-1 -1,-2l0 -1c0,1 -1,1 0,1z"/>
  <polygon class="fil21" points="934,327 935,327 935,322 "/>
  <path class="fil21" d="M410 100c0,1 0,1 1,1 0,1 -1,1 0,1 0,1 0,1 1,1l-1 -1c1,-1 1,-1 0,-1 0,-1 0,-1 -1,-1l-1 0c0,1 0,1 1,0z"/>
  <polygon class="fil22" points="935,315 936,310 935,310 "/>
  <path class="fil12" d="M537 399l-3 0c0,3 2,0 3,0z"/>
  <polygon class="fil21" points="943,324 944,324 944,319 "/>
  <path class="fil4" d="M183 272c1,-1 2,3 0,-1 0,0 0,-1 0,-1 -1,1 -2,1 0,2z"/>
  <path class="fil20" d="M392 124l-1 -4c0,2 0,3 1,4z"/>
  <path class="fil21" d="M413 109c2,-1 1,-2 0,-3l0 3z"/>
  <path class="fil21" d="M178 264l-2 1c0,2 2,0 2,-1z"/>
  <path class="fil22" d="M190 258c3,-1 3,-1 4,-4l-4 4z"/>
  <path class="fil21" d="M179 264c1,0 1,1 1,-1 0,-2 0,-1 -1,-1l0 2z"/>
  <polygon class="fil22" points="943,328 944,324 943,324 "/>
  <path class="fil20" d="M170 197l2 1 -1 -4c0,4 0,2 -1,3z"/>
  <path class="fil22" d="M931 269c-2,-1 -1,0 -2,-2 0,1 0,1 0,2 3,2 1,0 2,0z"/>
  <path class="fil22" d="M153 170l0 1 -1 1c2,0 1,1 1,-1l0 -1 1 -1c1,1 1,1 1,0l-1 0c-1,0 -1,0 -1,1z"/>
  <polygon class="fil22" points="182,247 183,247 182,244 "/>
  <polygon class="fil22" points="182,240 182,240 181,236 "/>
  <path class="fil20" d="M556 353l1 0 0 1 1 1 1 0c-1,2 -1,1 0,1l0 -1 -1 0c0,-2 0,-1 -1,-1l0 -1 -1 0 -1 -1c0,1 -1,1 1,1z"/>
  <path class="fil21" d="M160 190c1,1 0,1 1,0l-1 -2 0 2z"/>
  <path class="fil21" d="M538 308c-1,-1 0,-1 -1,-2l0 0c0,2 -2,1 1,2z"/>
  <path class="fil21" d="M401 122l-2 0c0,2 0,1 1,1 0,0 1,-1 1,-1 0,0 0,0 0,0z"/>
  <path class="fil12" d="M908 190c-1,0 -2,0 -2,0 0,1 -1,1 -1,1 0,0 0,0 0,0 3,0 1,0 3,-1z"/>
  <polygon class="fil22" points="183,255 184,255 183,252 "/>
  <polygon class="fil21" points="184,257 184,255 183,255 "/>
  <path class="fil21" d="M541 277c0,-1 0,-1 -1,-1l0 1 1 0z"/>
  <path class="fil21" d="M380 27l1 0c0,-3 -2,-1 -2,-1l1 1z"/>
  <polygon class="fil21" points="182,242 182,240 182,240 "/>
  <path class="fil21" d="M197 249l-1 0 0 1c2,0 1,0 1,-1z"/>
  <path class="fil22" d="M185 262l-1 -2c0,3 -1,2 1,2z"/>
  <polygon class="fil22" points="169,173 169,171 168,171 "/>
  <polygon class="fil22" points="179,260 179,257 178,257 "/>
  <polygon class="fil21" points="171,190 171,190 170,187 "/>
  <path class="fil22" d="M925 249l0 1c1,0 0,0 0,-1l1 0c1,0 1,0 1,-1l-1 1c-1,0 -1,-1 -1,0z"/>
  <path class="fil20" d="M949 318l1 1c0,-1 0,-1 -1,-1l-1 0c0,1 -1,1 1,0z"/>
  <polygon class="fil21" points="183,249 183,247 182,247 "/>
  <path class="fil21" d="M951 320l1 1c0,-2 0,-2 -1,-1l-1 -1c0,1 0,1 1,1z"/>
  <polygon class="fil21" points="169,177 170,177 169,175 "/>
  <path class="fil21" d="M528 299c-1,-2 -1,-2 -2,-2 1,3 0,0 2,2z"/>
  <path class="fil22" d="M374 37c0,-1 1,-1 0,-1l-1 1 1 0z"/>
  <path class="fil20" d="M379 46c-2,-3 -1,-1 -2,-2 1,2 1,1 2,2z"/>
  <path class="fil21" d="M157 168l0 2 1 0 -1 -2c0,-1 0,-1 -1,0l1 0z"/>
  <polygon class="fil22" points="166,187 167,187 166,185 "/>
  <polygon class="fil22" points="165,181 166,181 165,179 "/>
  <polygon class="fil22" points="175,257 176,257 175,255 "/>
  <polygon class="fil21" points="176,259 176,257 175,257 "/>
  <polygon class="fil22" points="164,170 165,170 164,168 "/>
  <polygon class="fil22" points="171,192 171,190 171,190 "/>
  <polygon class="fil22" points="170,179 170,177 169,177 "/>
  <path class="fil20" d="M525 280c-1,0 -1,0 -1,1l0 1 0 -1 1 -1 1 0c1,0 1,0 1,-1l-1 1 -1 0z"/>
  <path class="fil21" d="M938 245c-1,0 -1,0 -1,1 1,0 1,0 1,-1z"/>
  <path class="fil21" d="M189 260c3,-1 1,0 1,-2 -1,1 -1,1 -1,2z"/>
  <polygon class="fil22" points="381,29 381,27 380,27 "/>
  <polygon class="fil21" points="178,257 179,257 179,255 "/>
  <polygon class="fil21" points="168,171 169,171 168,169 "/>
  <path class="fil22" d="M952 321l1 1 1 0 1 1 0 1c0,1 0,1 1,1l-1 -1 0 -1 -1 -1 -1 0 -1 -1 0 0c-1,1 -1,0 0,0z"/>
  <polygon class="fil22" points="174,251 175,251 174,249 "/>
  <polygon class="fil21" points="175,253 175,251 174,251 "/>
  <polygon class="fil21" points="166,183 166,181 165,181 "/>
  <path class="fil21" d="M540 343c0,-1 1,-1 -1,-1 0,1 0,1 1,1z"/>
  <path class="fil21" d="M540 310c0,-1 0,-1 -1,-1 0,1 0,1 1,1z"/>
  <polygon class="fil21" points="167,189 167,187 166,187 "/>
  <path class="fil21" d="M938 311c0,-1 0,-1 -1,-1 0,1 -1,1 1,1z"/>
  <path class="fil21" d="M924 259l0 0 -1 0c0,1 0,0 1,0z"/>
  <path class="fil21" d="M197 245c0,-1 0,-1 -1,-1l0 1 1 0z"/>
  <polygon class="fil22" points="158,171 158,170 157,170 "/>
  <path class="fil21" d="M167 195c0,-3 1,-2 -1,-3l1 3z"/>
  <polygon class="fil21" points="158,175 159,175 158,173 "/>
  <polygon class="fil21" points="159,185 160,185 159,183 "/>
  <path class="fil21" d="M177 240l-1 -3c1,2 0,1 1,3z"/>
  <path class="fil21" d="M374 38l0 -1 -1 0c0,2 0,1 1,1z"/>
  <path class="fil20" d="M525 294c0,-1 0,-1 -1,-1 0,1 0,1 1,1z"/>
  <polygon class="fil20" points="179,253 179,251 178,251 "/>
  <path class="fil21" d="M171 184l-1 -3c0,3 0,2 1,3z"/>
  <polygon class="fil21" points="164,172 165,170 164,170 "/>
  <polygon class="fil22" points="160,186 160,185 159,185 "/>
  <polygon class="fil21" points="178,251 179,251 178,249 "/>
  <path class="fil22" d="M168 167c0,-3 0,-1 -1,-2l1 2z"/>
  <path class="fil22" d="M408 99c0,-1 0,-1 -1,-1 0,1 -1,1 1,1z"/>
  <polygon class="fil22" points="159,176 159,175 158,175 "/>
  <path class="fil16" d="M908 822l0 -2c-1,2 -1,2 0,2z"/>
  <path class="fil16" d="M910 827l-1 -2c0,2 -1,2 1,2z"/>
  <path class="fil21" d="M374 32l0 -1c-1,0 -1,0 -1,1l1 0z"/>
  <path class="fil20" d="M542 376l-2 1c3,0 1,0 2,-1z"/>
  <polygon class="fil20" points="176,262 176,262 176,261 "/>
  <path class="fil21" d="M924 251c-1,0 -1,0 -1,2l1 -2z"/>
  <path class="fil21" d="M957 332l0 2c1,0 1,0 0,-2z"/>
  <path class="fil16" d="M921 866l-1 -2c0,2 0,2 1,2z"/>
  <path class="fil16" d="M919 860l0 -1c0,2 -1,1 0,1z"/>
  <path class="fil16" d="M918 855l-1 -1c0,2 0,1 1,1z"/>
  <path class="fil21" d="M957 327c1,-1 1,-1 0,-1l0 1z"/>
  <path class="fil21" d="M186 261l-1 1c2,0 1,1 1,-1z"/>
  <path class="fil21" d="M413 105c1,-1 1,-1 0,-1l0 1z"/>
  <path class="fil21" d="M379 26c-2,0 -1,0 -1,1l1 -1z"/>
  <path class="fil21" d="M549 348c0,-1 1,-1 -1,-1l1 1z"/>
  <polygon class="fil21" points="176,264 176,262 176,262 "/>
  <path class="fil21" d="M390 56l-1 -1c0,2 0,1 1,1z"/>
  <path class="fil21" d="M413 112l-1 1c1,0 1,1 1,-1z"/>
  <path class="fil21" d="M174 230c0,-1 0,-1 -2,-1l2 1z"/>
  <path class="fil21" d="M196 244c1,-2 1,-1 0,-1l0 1z"/>
  <path class="fil22" d="M183 235l-1 -1c0,1 0,1 1,1z"/>
  <path class="fil20" d="M196 251c-1,0 -1,-1 0,1l0 -1z"/>
  <path class="fil22" d="M549 374c-1,0 -1,0 -1,1l1 -1z"/>
  <path class="fil22" d="M402 121c-1,0 -1,0 -1,1l1 -1z"/>
  <path class="fil21" d="M153 182l-1 -1c0,1 -1,1 1,1z"/>
  <path class="fil20" d="M945 316c-1,-1 0,-1 -1,0l1 0z"/>
  <path class="fil22" d="M402 95l-1 0c0,1 -1,0 1,0z"/>
  <polygon class="fil22" points="374,32 373,32 373,33 "/>
  <path class="fil20" d="M154 184c0,-1 1,-1 -1,-1l1 1z"/>
  <path class="fil22" d="M560 358l-1 -1c0,1 0,1 1,1z"/>
  <path class="fil20" d="M524 292c0,-1 0,-1 -1,-1l1 1z"/>
  <path class="fil22" d="M376 41c0,-1 0,-1 -1,-1l1 1z"/>
  <path class="fil21" d="M926 263l-1 -1c0,1 -1,1 1,1z"/>
  <path class="fil22" d="M189 238l-1 -1c0,1 0,1 1,1z"/>
  <path class="fil21" d="M928 247c-1,0 -1,0 -1,1l1 -1z"/>
  <path class="fil20" d="M175 231l-1 -1c0,1 0,1 1,1z"/>
  <path class="fil22" d="M404 121c-1,-1 -1,-1 -1,0l1 0z"/>
  <polygon class="fil22" points="924,259 923,258 923,259 "/>
  <path class="fil21" d="M938 277l-1 -2c0,1 -1,1 1,2z"/>
  <path class="fil21" d="M925 250c-1,0 -1,0 -1,1l1 -1z"/>
  <path class="fil20" d="M929 267c0,-1 0,-1 -1,-1l1 1z"/>
  <path class="fil20" d="M375 40l-1 -1c0,1 0,1 1,1z"/>
  <path class="fil20" d="M528 278c-1,0 -1,0 -1,1l1 -1z"/>
  <path class="fil20" d="M152 172c-1,0 -1,0 -1,1l1 -1z"/>
  <path class="fil20" d="M403 96l-1 -1c0,2 0,1 1,1z"/>
  <path class="fil20" d="M170 197c0,-1 0,-1 -1,-1l1 1z"/>
  <path class="fil20" d="M196 252c-2,0 -1,0 -1,1l1 -1z"/>
  <path class="fil22" d="M188 237l-1 -1c0,1 0,1 1,1z"/>
  <path class="fil20" d="M405 120c-1,0 -1,-1 -1,1l1 -1z"/>
  <path class="fil20" d="M554 371l-1 1c2,0 1,0 1,-1z"/>
  <path class="fil21" d="M936 310c-1,-1 0,-1 -1,0l1 0z"/>
  <path class="fil22" d="M185 235l-1 0c0,1 0,0 1,0z"/>
  <path class="fil22" d="M551 373c-1,0 -1,0 -1,1l1 -1z"/>
  <path class="fil20" d="M957 334c-2,0 -1,0 -1,1l1 -1z"/>
  <path class="fil20" d="M375 30l-1 1c1,0 1,0 1,-1z"/>
  <path class="fil21" d="M156 168c-1,0 -1,0 -1,1l1 -1z"/>
  <path class="fil21" d="M525 295l0 0c0,1 -1,0 0,0z"/>
  <path class="fil20" d="M377 43c-1,-1 0,-1 -1,-1l1 1z"/>
  <path class="fil21" d="M407 118l0 1c1,0 1,0 0,-1z"/>
  <path class="fil20" d="M190 238l0 0c0,1 -1,0 0,0z"/>
  <path class="fil22" d="M186 236l-1 -1c0,1 0,1 1,1z"/>
  <path class="fil22" d="M155 185l-1 -1c0,1 0,1 1,1z"/>
  <path class="fil20" d="M927 265c0,-1 0,-1 -1,-1l1 1z"/>
  <polygon class="fil22" points="523,284 522,284 522,285 "/>
  <path class="fil22" d="M400 95c-1,-1 0,-1 -1,0l1 0z"/>
  <path class="fil22" d="M188 260l-1 1c2,0 1,0 1,-1z"/>
  <path class="fil21" d="M957 326c0,-1 0,-1 -1,-1l1 1z"/>
  <polygon class="fil21" points="944,344 943,344 943,344 "/>
  <polygon class="fil22" points="413,111 413,110 413,111 "/>
  <polygon class="fil21" points="523,284 523,283 522,284 "/>
  <polygon class="fil22" points="152,180 151,179 151,180 "/>
  <polygon class="fil21" points="413,111 413,111 413,112 "/>
  <polygon class="fil22" points="925,261 924,260 924,261 "/>
  <polygon class="fil21" points="925,261 925,261 924,261 "/>
  <polygon class="fil20" points="943,344 943,344 942,344 "/>
  <polygon class="fil21" points="152,181 152,180 151,180 "/>
  <polygon class="fil22" points="560,364 560,364 560,364 "/>
  <polygon class="fil21" points="560,364 560,364 559,365 "/>
  <path class="fil21" d="M393 57l-1 0c1,1 0,1 1,0z"/>
  <polygon class="fil21" points="174,247 173,244 "/>
  <polygon class="fil22" points="178,247 177,244 "/>
  <polygon class="fil3" points="873,709 872,707 "/>
  <polygon class="fil22" points="159,181 158,179 "/>
  <polygon class="fil20" points="929,247 928,247 "/>
  <polygon class="fil20" points="165,176 165,174 "/>
  <polygon class="fil21" points="545,395 544,396 "/>
  <polygon class="fil12" points="527,383 526,382 "/>
  <polygon class="fil21" points="549,382 548,382 "/>
  <polygon class="fil21" points="524,382 523,381 "/>
  <polygon class="fil22" points="938,312 938,311 "/>
  <polygon class="fil22" points="539,309 539,308 "/>
  <polygon class="fil20" points="165,165 164,166 "/>
  <polygon class="fil22" points="395,124 394,124 "/>
  <polygon class="fil20" points="946,317 946,316 "/>
  <polygon class="fil22" points="526,296 525,295 "/>
  <polygon class="fil20" points="523,291 522,289 "/>
  <polygon class="fil21" points="187,261 187,261 "/>
  <polygon class="fil21" points="956,335 955,336 "/>
  <polygon class="fil20" points="942,338 943,334 "/>
  <polygon class="fil21" points="951,340 950,341 "/>
  <polygon class="fil22" points="949,341 948,342 "/>
  <polygon class="fil22" points="947,342 946,343 "/>
  <polygon class="fil21" points="407,98 406,98 "/>
  <polygon class="fil20" points="405,98 405,97 "/>
  <polygon class="fil20" points="946,343 945,344 "/>
  <polygon class="fil20" points="551,350 551,349 "/>
  <polygon class="fil20" points="554,351 553,350 "/>
  <polygon class="fil20" points="552,372 551,373 "/>
  <polygon class="fil22" points="392,90 391,89 "/>
  <polygon class="fil18" points="686,653 685,650 "/>
  <polygon class="fil16" points="909,824 908,823 "/>
  <polygon class="fil16" points="849,826 848,824 "/>
  <polygon class="fil21" points="553,372 553,372 "/>
  <polygon class="fil21" points="524,282 523,283 "/>
  <polygon class="fil16" points="911,829 910,828 "/>
  <polygon class="fil18" points="855,656 854,654 "/>
  <polygon class="fil16" points="911,832 911,830 "/>
  <polygon class="fil3" points="710,834 709,831 "/>
  <polygon class="fil3" points="828,834 827,832 "/>
  <polygon class="fil16" points="912,834 911,833 "/>
  <polygon class="fil16" points="913,837 912,836 "/>
  <polygon class="fil18" points="687,659 686,656 "/>
  <polygon class="fil16" points="852,839 851,837 "/>
  <polygon class="fil16" points="914,840 913,838 "/>
  <polygon class="fil22" points="173,234 172,231 "/>
  <polygon class="fil16" points="914,842 914,841 "/>
  <polygon class="fil16" points="852,844 851,841 "/>
  <polygon class="fil16" points="915,845 914,843 "/>
  <polygon class="fil18" points="756,662 755,659 "/>
  <polygon class="fil16" points="853,848 852,846 "/>
  <polygon class="fil16" points="916,847 915,846 "/>
  <polygon class="fil16" points="916,850 916,849 "/>
  <polygon class="fil16" points="854,852 853,850 "/>
  <polygon class="fil16" points="917,853 916,851 "/>
  <polygon class="fil20" points="559,367 558,367 "/>
  <polygon class="fil16" points="919,858 918,856 "/>
  <polygon class="fil20" points="176,234 176,232 "/>
  <polygon class="fil16" points="920,863 919,862 "/>
  <polygon class="fil20" points="382,39 381,34 "/>
  <polygon class="fil20" points="950,341 949,341 "/>
  <polygon class="fil18" points="854,652 853,649 "/>
  <polygon class="fil3" points="833,864 832,862 "/>
  <polygon class="fil3" points="713,866 713,864 "/>
  <polygon class="fil21" points="168,196 167,195 "/>
  <polygon class="fil16" points="922,868 921,867 "/>
  <polygon class="fil18" points="814,652 814,649 "/>
  <polygon class="fil18" points="857,666 856,664 "/>
  <polygon class="fil20" points="193,240 192,239 "/>
  <polygon class="fil21" points="173,241 172,238 "/>
  <polygon class="fil18" points="789,655 788,653 "/>
 </g>
</svg>
