<?xml version="1.0" encoding="UTF-8"?>
<!DOCTYPE svg PUBLIC "-//W3C//DTD SVG 1.1//EN" "http://www.w3.org/Graphics/SVG/1.1/DTD/svg11.dtd">
<!-- Creator: CorelDRAW X7 -->
<svg xmlns="http://www.w3.org/2000/svg" xml:space="preserve" width="2780px" height="450px" version="1.1" style="shape-rendering:geometricPrecision; text-rendering:geometricPrecision; image-rendering:optimizeQuality; fill-rule:evenodd; clip-rule:evenodd"
viewBox="0 0 2780 450"
 xmlns:xlink="http://www.w3.org/1999/xlink">
 <defs>
  <style type="text/css">
   <![CDATA[
    .str0 {stroke:#373435;stroke-width:2.99882}
    .fil1 {fill:none;fill-rule:nonzero}
    .fil0 {fill:#FEFEFE;fill-rule:nonzero}
   ]]>
  </style>
 </defs>
 <g id="Camada_x0020_1">
  <metadata id="CorelCorpID_0Corel-Layer"/>
  <path class="fil0" d="M136 186l13 -2c44,-9 75,-13 93,-13 13,0 19,5 19,16 0,6 -2,11 -8,13 -3,1 -9,2 -17,3 -53,3 -93,9 -120,18 -11,17 -27,47 -48,90 -12,26 -21,50 -28,71 5,-1 10,-3 14,-4 30,-11 52,-17 67,-20 19,-4 36,-6 53,-6 11,0 19,2 24,4 5,2 7,7 7,13 0,6 -2,10 -8,12 -3,1 -9,2 -19,2 -54,3 -102,16 -144,40 -6,3 -10,4 -14,4 -6,0 -11,-3 -16,-9 -3,-5 -5,-10 -5,-15 0,-5 6,-23 19,-56 19,-49 46,-102 79,-161 10,-18 29,-47 57,-89 6,-10 12,-20 18,-29 -8,-2 -12,-7 -12,-16 0,-7 3,-11 10,-14 10,-5 31,-10 61,-15 45,-7 83,-10 114,-10 18,0 27,5 27,14 0,6 -3,12 -9,16 -3,2 -8,4 -15,4 0,0 -3,0 -7,0 -3,0 -6,0 -10,0 -15,0 -36,1 -64,4 -24,3 -44,7 -62,12 2,3 3,5 3,7 0,3 -4,11 -14,24l-14 22c-21,31 -35,54 -44,70z"/>
  <path id="1" class="fil0" d="M346 215c-13,20 -26,44 -37,69 -16,36 -24,63 -24,81 0,5 1,9 3,12 2,3 5,4 10,4 10,0 22,-10 37,-29 9,-12 17,-23 24,-35 4,-7 8,-10 13,-10 3,0 5,1 7,3 1,1 2,3 2,5 0,8 -10,24 -30,50 -23,32 -45,47 -64,47 -11,0 -19,-5 -26,-14 -5,-6 -7,-15 -7,-26 0,-25 7,-53 22,-86 3,-8 13,-28 29,-59 -6,1 -10,2 -13,2 -4,0 -8,-1 -12,-3 -4,-3 -6,-6 -6,-11 0,-5 2,-9 8,-12 2,-1 10,-2 23,-4 5,-1 12,-3 22,-6 7,-12 19,-30 35,-52 9,-12 15,-20 18,-24 5,-5 10,-7 13,-7 3,0 6,1 8,4 3,3 4,5 4,8 0,5 -6,16 -17,31 -8,10 -13,19 -17,25 22,-6 38,-9 48,-9 11,0 16,5 16,14 0,5 -1,8 -5,11 -2,1 -8,2 -16,3 -4,-1 -19,3 -46,11 -7,2 -15,5 -22,7z"/>
  <path id="2" class="fil0" d="M411 353l0 5c0,5 1,9 3,12 5,7 13,11 25,11 25,0 55,-20 88,-59 6,-6 11,-10 15,-10 2,0 4,1 6,4 1,1 2,3 2,4 0,8 -10,22 -29,41 -16,14 -32,27 -49,36 -17,9 -33,14 -48,14 -16,0 -28,-5 -36,-16 -6,-7 -9,-17 -9,-30 0,-34 16,-68 48,-101 26,-26 49,-40 69,-40 5,0 10,2 14,5 5,4 8,10 8,17 0,10 -5,24 -15,39 -20,33 -51,55 -92,68zm6 -24c15,-5 26,-10 34,-16 14,-11 25,-24 34,-38 3,-5 4,-9 4,-13 0,-4 -2,-6 -6,-6 -5,0 -12,4 -22,12 -17,14 -32,34 -44,61z"/>
  <path id="3" class="fil0" d="M669 222c16,0 24,9 24,26 0,15 -6,29 -18,45 -9,11 -17,17 -23,17 -6,0 -9,-4 -9,-10 0,-4 1,-6 3,-8 0,-1 3,-4 7,-7 4,-4 7,-9 11,-16 3,-5 4,-8 4,-11 0,-3 -2,-5 -5,-5 -5,0 -11,3 -20,10 -14,11 -28,28 -41,51 -15,24 -22,43 -22,56 0,5 1,9 4,12 4,6 9,8 16,8 13,0 28,-8 45,-24 15,-13 28,-27 38,-41 5,-7 10,-11 13,-11 3,0 5,1 7,3 1,2 2,4 2,6 0,8 -10,22 -29,44 -31,34 -59,51 -84,51 -15,0 -26,-5 -34,-16 -6,-8 -8,-17 -8,-28 0,-21 8,-45 26,-73 17,-27 36,-48 58,-65 13,-9 25,-14 35,-14z"/>
  <path id="4" class="fil0" d="M1009 234c20,-43 39,-80 57,-111 18,-31 30,-50 36,-58 7,-9 14,-13 20,-13 3,0 6,1 8,4 3,2 4,5 4,8 0,5 -3,13 -10,24 -30,47 -57,96 -81,145 -29,57 -44,100 -44,128 0,12 2,21 7,27 1,2 4,5 11,10 1,1 2,3 2,6 0,4 -2,8 -5,11 -3,4 -7,5 -11,5 -4,0 -9,-2 -15,-8 -8,-8 -13,-17 -15,-28 0,-4 -1,-13 -2,-25 -21,38 -41,58 -61,58 -11,0 -20,-7 -27,-19 -4,-9 -6,-18 -6,-29 0,-31 11,-63 35,-95 23,-32 48,-48 74,-48 7,0 15,2 23,8zm-11 25c-5,-4 -10,-6 -14,-6 -17,0 -33,10 -49,31 -20,28 -30,54 -30,79 0,4 0,6 2,9 2,5 6,8 11,8 7,0 16,-7 26,-21 14,-18 26,-40 38,-65 4,-8 8,-17 12,-26 0,0 1,-2 3,-5l1 -4z"/>
  <path id="5" class="fil0" d="M1072 353l0 5c0,5 2,9 4,12 5,7 13,11 25,11 25,0 55,-20 88,-59 6,-6 11,-10 15,-10 2,0 4,1 6,4 1,1 2,3 2,4 0,8 -10,22 -29,41 -16,14 -32,27 -49,36 -18,9 -34,14 -48,14 -16,0 -28,-5 -37,-16 -6,-7 -8,-17 -8,-30 0,-34 16,-68 48,-101 26,-26 49,-40 69,-40 5,0 10,2 14,5 5,4 8,10 8,17 0,10 -5,24 -15,39 -20,33 -51,55 -93,68zm7 -24c14,-5 26,-10 34,-16 14,-11 25,-24 34,-38 3,-5 4,-9 4,-13 0,-4 -2,-6 -6,-6 -5,0 -12,4 -22,12 -18,14 -32,34 -44,61z"/>
  <path id="6" class="fil0" d="M1607 22c3,0 6,2 9,5 3,3 4,7 4,10 0,6 -3,13 -8,21 -3,5 -13,19 -30,43 -81,111 -133,212 -156,301 -3,15 -8,22 -17,22 -4,0 -8,-2 -11,-6 -4,-4 -5,-9 -5,-13 0,-11 5,-29 14,-57 23,-63 63,-139 120,-228 24,-36 43,-63 58,-81 10,-11 17,-17 22,-17z"/>
  <path id="7" class="fil0" d="M1629 215c-13,20 -25,44 -37,69 -16,36 -24,63 -24,81 0,5 1,9 3,12 2,3 6,4 10,4 10,0 22,-10 37,-29 9,-12 17,-23 24,-35 4,-7 9,-10 13,-10 3,0 5,1 7,3 1,1 2,3 2,5 0,8 -10,24 -29,50 -24,32 -46,47 -65,47 -11,0 -19,-5 -26,-14 -4,-6 -7,-15 -7,-26 0,-25 8,-53 22,-86 3,-8 13,-28 29,-59 -6,1 -10,2 -13,2 -4,0 -8,-1 -11,-3 -5,-3 -7,-6 -7,-11 0,-5 3,-9 9,-12 1,-1 9,-2 22,-4 5,-1 12,-3 22,-6 7,-12 19,-30 35,-52 9,-12 15,-20 19,-24 5,-5 9,-7 12,-7 3,0 6,1 8,4 3,3 4,5 4,8 0,5 -6,16 -17,31 -8,10 -13,19 -17,25 22,-6 39,-9 48,-9 11,0 17,5 17,14 0,5 -2,8 -6,11 -2,1 -7,2 -16,3 -3,-1 -19,3 -46,11 -7,2 -15,5 -22,7z"/>
  <path id="8" class="fil0" d="M1759 361c-6,12 -13,22 -19,30 -13,16 -26,24 -39,24 -11,0 -19,-5 -25,-16 -4,-7 -6,-14 -6,-24 0,-22 7,-47 21,-74 16,-31 35,-54 58,-70 14,-11 29,-16 42,-16 9,0 16,2 22,8 5,4 7,10 7,16 0,4 -2,10 -5,18 3,4 4,8 4,12 0,4 -2,11 -8,21 -6,10 -12,23 -18,39 -6,18 -9,32 -9,43 0,8 2,15 7,21 2,1 6,3 13,7 5,2 8,6 8,13 0,3 -2,7 -5,9 -3,3 -6,4 -10,4 -11,0 -21,-5 -29,-15 -7,-8 -10,-18 -10,-30 0,-4 1,-11 1,-20zm39 -101c-3,-4 -5,-7 -8,-10 -3,-2 -6,-3 -9,-3 -16,0 -33,14 -51,41 -20,30 -30,55 -30,76 0,5 1,9 3,12 2,2 5,4 9,4 9,0 21,-11 34,-32 7,-11 16,-28 27,-50 7,-14 13,-24 16,-29 1,-2 4,-5 9,-9z"/>
  <path id="9" class="fil0" d="M1888 307c3,-2 6,-5 8,-7 42,-42 71,-63 85,-63 8,0 12,5 12,13 0,6 -3,14 -11,22 -38,45 -58,85 -58,120 0,11 3,22 9,32 3,5 5,8 5,11 0,2 -2,5 -4,7 -3,3 -6,4 -9,4 -9,0 -16,-5 -21,-16 -6,-10 -8,-22 -8,-36 0,-27 10,-58 30,-91 -27,18 -53,49 -77,94 -6,11 -12,16 -19,16 -4,0 -7,-1 -9,-4 -3,-3 -4,-6 -4,-11 0,-11 12,-39 37,-86 14,-25 24,-44 32,-55 8,-11 15,-17 20,-17 3,0 5,2 8,4 3,3 4,6 4,10 0,4 -3,11 -9,19 -8,13 -15,24 -21,34z"/>
  <path id="10" class="fil0" d="M2067 287c15,-16 30,-29 45,-40 20,-13 33,-20 42,-20 3,0 7,2 10,4 4,4 6,7 6,12 0,5 -5,14 -14,25 -16,23 -29,43 -38,61 -8,16 -12,27 -12,32 0,6 3,9 8,9 11,0 30,-20 56,-59 5,-8 10,-12 14,-12 4,0 7,3 7,8 0,8 -8,23 -24,45 -13,20 -27,35 -42,45 -10,7 -19,11 -28,11 -9,0 -15,-4 -19,-11 -2,-5 -3,-10 -3,-16 0,-18 6,-39 19,-62 3,-5 12,-21 27,-47 -41,21 -76,66 -105,136 -3,8 -7,12 -13,12 -3,0 -7,-1 -9,-4 -3,-3 -4,-6 -4,-10 0,-7 7,-26 20,-58 24,-58 46,-107 67,-147 21,-41 44,-83 70,-127 6,-10 11,-18 14,-21 4,-4 8,-6 12,-6 3,0 6,2 9,6 2,3 3,6 3,10 0,6 -3,13 -10,23 -22,34 -43,71 -65,112 -24,43 -38,73 -43,89z"/>
  <path id="11" class="fil0" d="M2277 361c-6,12 -13,22 -19,30 -13,16 -26,24 -39,24 -11,0 -19,-5 -25,-16 -4,-7 -6,-14 -6,-24 0,-22 7,-47 21,-74 16,-31 35,-54 58,-70 14,-11 29,-16 42,-16 9,0 16,2 22,8 5,4 7,10 7,16 0,4 -2,10 -5,18 3,4 4,8 4,12 0,4 -2,11 -8,21 -6,10 -12,23 -18,39 -6,18 -9,32 -9,43 0,8 2,15 7,21 2,1 6,3 13,7 5,2 8,6 8,13 0,3 -2,7 -5,9 -3,3 -6,4 -10,4 -12,0 -21,-5 -29,-15 -7,-8 -10,-18 -10,-30 0,-4 0,-11 1,-20zm39 -101c-3,-4 -6,-7 -8,-10 -3,-2 -6,-3 -10,-3 -15,0 -32,14 -50,41 -20,30 -30,55 -30,76 0,5 1,9 3,12 2,2 5,4 9,4 9,0 21,-11 34,-32 7,-11 16,-28 27,-50 7,-14 12,-24 16,-29 1,-2 4,-5 9,-9z"/>
  <path id="12" class="fil0" d="M2373 353l0 5c0,5 2,9 4,12 5,7 13,11 25,11 25,0 55,-20 88,-59 6,-6 11,-10 15,-10 2,0 4,1 6,4 1,1 2,3 2,4 0,8 -10,22 -29,41 -16,14 -32,27 -49,36 -17,9 -34,14 -48,14 -16,0 -28,-5 -37,-16 -5,-7 -8,-17 -8,-30 0,-34 16,-68 48,-101 26,-26 49,-40 69,-40 5,0 10,2 14,5 5,4 8,10 8,17 0,10 -5,24 -15,39 -20,33 -51,55 -93,68zm7 -24c15,-5 26,-10 34,-16 14,-11 25,-24 34,-38 3,-5 4,-9 4,-13 0,-4 -2,-6 -6,-6 -5,0 -12,4 -22,12 -18,14 -32,34 -44,61zm157 -231c3,0 6,1 8,4 2,2 3,4 3,7 0,5 -9,19 -27,41 -9,12 -16,20 -20,23 -4,4 -8,6 -12,6 -6,0 -9,-3 -9,-11 0,-5 4,-12 11,-21 6,-6 15,-18 28,-36 6,-9 12,-13 18,-13z"/>
  <path id="13" class="fil0" d="M2573 310c17,-18 32,-32 45,-42 20,-16 33,-23 40,-23 3,0 6,1 9,3 2,3 3,5 3,8 0,4 -4,10 -11,19 -11,13 -18,25 -23,35 48,-48 81,-72 98,-72 4,0 7,2 10,4 3,2 4,5 4,9 0,6 -4,13 -13,22 -39,40 -58,72 -58,98 0,10 2,17 5,22l8 10c2,2 2,4 2,7 0,3 -1,6 -4,9 -3,3 -6,5 -10,5 -7,0 -13,-4 -18,-13 -7,-10 -11,-22 -11,-36 0,-19 6,-37 16,-56 4,-7 10,-16 18,-27 -17,13 -34,31 -52,54 -12,15 -23,33 -33,52 -5,9 -10,14 -16,14 -7,0 -11,-4 -11,-12 0,-8 6,-26 17,-52 7,-15 15,-30 24,-47 -34,27 -61,64 -78,110 -4,10 -10,15 -17,15 -3,0 -6,-1 -8,-4 -2,-2 -3,-5 -3,-9 0,-12 6,-33 20,-65 14,-33 29,-63 47,-89 12,-19 22,-28 28,-28 7,0 10,3 10,10 0,3 -4,10 -12,21 -13,21 -22,37 -26,48z"/>
  <path id="14" class="fil1 str0" d="M136 186l13 -2c44,-9 75,-13 93,-13 13,0 19,5 19,16 0,6 -2,11 -8,13 -3,1 -9,2 -17,3 -53,3 -93,9 -120,18 -11,17 -27,47 -48,90 -12,26 -21,50 -28,71 5,-1 10,-3 14,-4 30,-11 52,-17 67,-20 19,-4 36,-6 53,-6 11,0 19,2 24,4 5,2 7,7 7,13 0,6 -2,10 -8,12 -3,1 -9,2 -19,2 -54,3 -102,16 -144,40 -6,3 -10,4 -14,4 -6,0 -11,-3 -16,-9 -3,-5 -5,-10 -5,-15 0,-5 6,-23 19,-56 19,-49 46,-102 79,-161 10,-18 29,-47 57,-89 6,-10 12,-20 18,-29 -8,-2 -12,-7 -12,-16 0,-7 3,-11 10,-14 10,-5 31,-10 61,-15 45,-7 83,-10 114,-10 18,0 27,5 27,14 0,6 -3,12 -9,16 -3,2 -8,4 -15,4 0,0 -3,0 -7,0 -3,0 -6,0 -10,0 -15,0 -36,1 -64,4 -24,3 -44,7 -62,12 2,3 3,5 3,7 0,3 -4,11 -14,24l-14 22c-21,31 -35,54 -44,70z"/>
  <path id="15" class="fil1 str0" d="M346 215c-13,20 -26,44 -37,69 -16,36 -24,63 -24,81 0,5 1,9 3,12 2,3 5,4 10,4 10,0 22,-10 37,-29 9,-12 17,-23 24,-35 4,-7 8,-10 13,-10 3,0 5,1 7,3 1,1 2,3 2,5 0,8 -10,24 -30,50 -23,32 -45,47 -64,47 -11,0 -19,-5 -26,-14 -5,-6 -7,-15 -7,-26 0,-25 7,-53 22,-86 3,-8 13,-28 29,-59 -6,1 -10,2 -13,2 -4,0 -8,-1 -12,-3 -4,-3 -6,-6 -6,-11 0,-5 2,-9 8,-12 2,-1 10,-2 23,-4 5,-1 12,-3 22,-6 7,-12 19,-30 35,-52 9,-12 15,-20 18,-24 5,-5 10,-7 13,-7 3,0 6,1 8,4 3,3 4,5 4,8 0,5 -6,16 -17,31 -8,10 -13,19 -17,25 22,-6 38,-9 48,-9 11,0 16,5 16,14 0,5 -1,8 -5,11 -2,1 -8,2 -16,3 -4,-1 -19,3 -46,11 -7,2 -15,5 -22,7z"/>
  <path id="16" class="fil1 str0" d="M411 353l0 5c0,5 1,9 3,12 5,7 13,11 25,11 25,0 55,-20 88,-59 6,-6 11,-10 15,-10 2,0 4,1 6,4 1,1 2,3 2,4 0,8 -10,22 -29,41 -16,14 -32,27 -49,36 -17,9 -33,14 -48,14 -16,0 -28,-5 -36,-16 -6,-7 -9,-17 -9,-30 0,-34 16,-68 48,-101 26,-26 49,-40 69,-40 5,0 10,2 14,5 5,4 8,10 8,17 0,10 -5,24 -15,39 -20,33 -51,55 -92,68zm6 -24c15,-5 26,-10 34,-16 14,-11 25,-24 34,-38 3,-5 4,-9 4,-13 0,-4 -2,-6 -6,-6 -5,0 -12,4 -22,12 -17,14 -32,34 -44,61z"/>
  <path id="17" class="fil1 str0" d="M669 222c16,0 24,9 24,26 0,15 -6,29 -18,45 -9,11 -17,17 -23,17 -6,0 -9,-4 -9,-10 0,-4 1,-6 3,-8 0,-1 3,-4 7,-7 4,-4 7,-9 11,-16 3,-5 4,-8 4,-11 0,-3 -2,-5 -5,-5 -5,0 -11,3 -20,10 -14,11 -28,28 -41,51 -15,24 -22,43 -22,56 0,5 1,9 4,12 4,6 9,8 16,8 13,0 28,-8 45,-24 15,-13 28,-27 38,-41 5,-7 10,-11 13,-11 3,0 5,1 7,3 1,2 2,4 2,6 0,8 -10,22 -29,44 -31,34 -59,51 -84,51 -15,0 -26,-5 -34,-16 -6,-8 -8,-17 -8,-28 0,-21 8,-45 26,-73 17,-27 36,-48 58,-65 13,-9 25,-14 35,-14z"/>
  <path id="18" class="fil1 str0" d="M1009 234c20,-43 39,-80 57,-111 18,-31 30,-50 36,-58 7,-9 14,-13 20,-13 3,0 6,1 8,4 3,2 4,5 4,8 0,5 -3,13 -10,24 -30,47 -57,96 -81,145 -29,57 -44,100 -44,128 0,12 2,21 7,27 1,2 4,5 11,10 1,1 2,3 2,6 0,4 -2,8 -5,11 -3,4 -7,5 -11,5 -4,0 -9,-2 -15,-8 -8,-8 -13,-17 -15,-28 0,-4 -1,-13 -2,-25 -21,38 -41,58 -61,58 -11,0 -20,-7 -27,-19 -4,-9 -6,-18 -6,-29 0,-31 11,-63 35,-95 23,-32 48,-48 74,-48 7,0 15,2 23,8zm-11 25c-5,-4 -10,-6 -14,-6 -17,0 -33,10 -49,31 -20,28 -30,54 -30,79 0,4 0,6 2,9 2,5 6,8 11,8 7,0 16,-7 26,-21 14,-18 26,-40 38,-65 4,-8 8,-17 12,-26 0,0 1,-2 3,-5l1 -4z"/>
  <path id="19" class="fil1 str0" d="M1072 353l0 5c0,5 2,9 4,12 5,7 13,11 25,11 25,0 55,-20 88,-59 6,-6 11,-10 15,-10 2,0 4,1 6,4 1,1 2,3 2,4 0,8 -10,22 -29,41 -16,14 -32,27 -49,36 -18,9 -34,14 -48,14 -16,0 -28,-5 -37,-16 -6,-7 -8,-17 -8,-30 0,-34 16,-68 48,-101 26,-26 49,-40 69,-40 5,0 10,2 14,5 5,4 8,10 8,17 0,10 -5,24 -15,39 -20,33 -51,55 -93,68zm7 -24c14,-5 26,-10 34,-16 14,-11 25,-24 34,-38 3,-5 4,-9 4,-13 0,-4 -2,-6 -6,-6 -5,0 -12,4 -22,12 -18,14 -32,34 -44,61z"/>
  <path id="20" class="fil1 str0" d="M1607 22c3,0 6,2 9,5 3,3 4,7 4,10 0,6 -3,13 -8,21 -3,5 -13,19 -30,43 -81,111 -133,212 -156,301 -3,15 -8,22 -17,22 -4,0 -8,-2 -11,-6 -4,-4 -5,-9 -5,-13 0,-11 5,-29 14,-57 23,-63 63,-139 120,-228 24,-36 43,-63 58,-81 10,-11 17,-17 22,-17z"/>
  <path id="21" class="fil1 str0" d="M1629 215c-13,20 -25,44 -37,69 -16,36 -24,63 -24,81 0,5 1,9 3,12 2,3 6,4 10,4 10,0 22,-10 37,-29 9,-12 17,-23 24,-35 4,-7 9,-10 13,-10 3,0 5,1 7,3 1,1 2,3 2,5 0,8 -10,24 -29,50 -24,32 -46,47 -65,47 -11,0 -19,-5 -26,-14 -4,-6 -7,-15 -7,-26 0,-25 8,-53 22,-86 3,-8 13,-28 29,-59 -6,1 -10,2 -13,2 -4,0 -8,-1 -11,-3 -5,-3 -7,-6 -7,-11 0,-5 3,-9 9,-12 1,-1 9,-2 22,-4 5,-1 12,-3 22,-6 7,-12 19,-30 35,-52 9,-12 15,-20 19,-24 5,-5 9,-7 12,-7 3,0 6,1 8,4 3,3 4,5 4,8 0,5 -6,16 -17,31 -8,10 -13,19 -17,25 22,-6 39,-9 48,-9 11,0 17,5 17,14 0,5 -2,8 -6,11 -2,1 -7,2 -16,3 -3,-1 -19,3 -46,11 -7,2 -15,5 -22,7z"/>
  <path id="22" class="fil1 str0" d="M1759 361c-6,12 -13,22 -19,30 -13,16 -26,24 -39,24 -11,0 -19,-5 -25,-16 -4,-7 -6,-14 -6,-24 0,-22 7,-47 21,-74 16,-31 35,-54 58,-70 14,-11 29,-16 42,-16 9,0 16,2 22,8 5,4 7,10 7,16 0,4 -2,10 -5,18 3,4 4,8 4,12 0,4 -2,11 -8,21 -6,10 -12,23 -18,39 -6,18 -9,32 -9,43 0,8 2,15 7,21 2,1 6,3 13,7 5,2 8,6 8,13 0,3 -2,7 -5,9 -3,3 -6,4 -10,4 -11,0 -21,-5 -29,-15 -7,-8 -10,-18 -10,-30 0,-4 1,-11 1,-20zm39 -101c-3,-4 -5,-7 -8,-10 -3,-2 -6,-3 -9,-3 -16,0 -33,14 -51,41 -20,30 -30,55 -30,76 0,5 1,9 3,12 2,2 5,4 9,4 9,0 21,-11 34,-32 7,-11 16,-28 27,-50 7,-14 13,-24 16,-29 1,-2 4,-5 9,-9z"/>
  <path id="23" class="fil1 str0" d="M1888 307c3,-2 6,-5 8,-7 42,-42 71,-63 85,-63 8,0 12,5 12,13 0,6 -3,14 -11,22 -38,45 -58,85 -58,120 0,11 3,22 9,32 3,5 5,8 5,11 0,2 -2,5 -4,7 -3,3 -6,4 -9,4 -9,0 -16,-5 -21,-16 -6,-10 -8,-22 -8,-36 0,-27 10,-58 30,-91 -27,18 -53,49 -77,94 -6,11 -12,16 -19,16 -4,0 -7,-1 -9,-4 -3,-3 -4,-6 -4,-11 0,-11 12,-39 37,-86 14,-25 24,-44 32,-55 8,-11 15,-17 20,-17 3,0 5,2 8,4 3,3 4,6 4,10 0,4 -3,11 -9,19 -8,13 -15,24 -21,34z"/>
  <path id="24" class="fil1 str0" d="M2067 287c15,-16 30,-29 45,-40 20,-13 33,-20 42,-20 3,0 7,2 10,4 4,4 6,7 6,12 0,5 -5,14 -14,25 -16,23 -29,43 -38,61 -8,16 -12,27 -12,32 0,6 3,9 8,9 11,0 30,-20 56,-59 5,-8 10,-12 14,-12 4,0 7,3 7,8 0,8 -8,23 -24,45 -13,20 -27,35 -42,45 -10,7 -19,11 -28,11 -9,0 -15,-4 -19,-11 -2,-5 -3,-10 -3,-16 0,-18 6,-39 19,-62 3,-5 12,-21 27,-47 -41,21 -76,66 -105,136 -3,8 -7,12 -13,12 -3,0 -7,-1 -9,-4 -3,-3 -4,-6 -4,-10 0,-7 7,-26 20,-58 24,-58 46,-107 67,-147 21,-41 44,-83 70,-127 6,-10 11,-18 14,-21 4,-4 8,-6 12,-6 3,0 6,2 9,6 2,3 3,6 3,10 0,6 -3,13 -10,23 -22,34 -43,71 -65,112 -24,43 -38,73 -43,89z"/>
  <path id="25" class="fil1 str0" d="M2277 361c-6,12 -13,22 -19,30 -13,16 -26,24 -39,24 -11,0 -19,-5 -25,-16 -4,-7 -6,-14 -6,-24 0,-22 7,-47 21,-74 16,-31 35,-54 58,-70 14,-11 29,-16 42,-16 9,0 16,2 22,8 5,4 7,10 7,16 0,4 -2,10 -5,18 3,4 4,8 4,12 0,4 -2,11 -8,21 -6,10 -12,23 -18,39 -6,18 -9,32 -9,43 0,8 2,15 7,21 2,1 6,3 13,7 5,2 8,6 8,13 0,3 -2,7 -5,9 -3,3 -6,4 -10,4 -12,0 -21,-5 -29,-15 -7,-8 -10,-18 -10,-30 0,-4 0,-11 1,-20zm39 -101c-3,-4 -6,-7 -8,-10 -3,-2 -6,-3 -10,-3 -15,0 -32,14 -50,41 -20,30 -30,55 -30,76 0,5 1,9 3,12 2,2 5,4 9,4 9,0 21,-11 34,-32 7,-11 16,-28 27,-50 7,-14 12,-24 16,-29 1,-2 4,-5 9,-9z"/>
  <path id="26" class="fil1 str0" d="M2373 353l0 5c0,5 2,9 4,12 5,7 13,11 25,11 25,0 55,-20 88,-59 6,-6 11,-10 15,-10 2,0 4,1 6,4 1,1 2,3 2,4 0,8 -10,22 -29,41 -16,14 -32,27 -49,36 -17,9 -34,14 -48,14 -16,0 -28,-5 -37,-16 -5,-7 -8,-17 -8,-30 0,-34 16,-68 48,-101 26,-26 49,-40 69,-40 5,0 10,2 14,5 5,4 8,10 8,17 0,10 -5,24 -15,39 -20,33 -51,55 -93,68zm7 -24c15,-5 26,-10 34,-16 14,-11 25,-24 34,-38 3,-5 4,-9 4,-13 0,-4 -2,-6 -6,-6 -5,0 -12,4 -22,12 -18,14 -32,34 -44,61zm157 -231c3,0 6,1 8,4 2,2 3,4 3,7 0,5 -9,19 -27,41 -9,12 -16,20 -20,23 -4,4 -8,6 -12,6 -6,0 -9,-3 -9,-11 0,-5 4,-12 11,-21 6,-6 15,-18 28,-36 6,-9 12,-13 18,-13z"/>
  <path id="27" class="fil1 str0" d="M2573 310c17,-18 32,-32 45,-42 20,-16 33,-23 40,-23 3,0 6,1 9,3 2,3 3,5 3,8 0,4 -4,10 -11,19 -11,13 -18,25 -23,35 48,-48 81,-72 98,-72 4,0 7,2 10,4 3,2 4,5 4,9 0,6 -4,13 -13,22 -39,40 -58,72 -58,98 0,10 2,17 5,22l8 10c2,2 2,4 2,7 0,3 -1,6 -4,9 -3,3 -6,5 -10,5 -7,0 -13,-4 -18,-13 -7,-10 -11,-22 -11,-36 0,-19 6,-37 16,-56 4,-7 10,-16 18,-27 -17,13 -34,31 -52,54 -12,15 -23,33 -33,52 -5,9 -10,14 -16,14 -7,0 -11,-4 -11,-12 0,-8 6,-26 17,-52 7,-15 15,-30 24,-47 -34,27 -61,64 -78,110 -4,10 -10,15 -17,15 -3,0 -6,-1 -8,-4 -2,-2 -3,-5 -3,-9 0,-12 6,-33 20,-65 14,-33 29,-63 47,-89 12,-19 22,-28 28,-28 7,0 10,3 10,10 0,3 -4,10 -12,21 -13,21 -22,37 -26,48z"/>
 </g>
</svg>
