<?xml version="1.0" encoding="UTF-8"?>
<!DOCTYPE svg PUBLIC "-//W3C//DTD SVG 1.1//EN" "http://www.w3.org/Graphics/SVG/1.1/DTD/svg11.dtd">
<!-- Creator: CorelDRAW X7 -->
<svg xmlns="http://www.w3.org/2000/svg" xml:space="preserve" width="297mm" height="210mm" version="1.1" style="shape-rendering:geometricPrecision; text-rendering:geometricPrecision; image-rendering:optimizeQuality; fill-rule:evenodd; clip-rule:evenodd"
viewBox="0 0 29700 21000"
 xmlns:xlink="http://www.w3.org/1999/xlink">
 <defs>
  <style type="text/css">
   <![CDATA[
    .str0 {stroke:#373435;stroke-width:20}
    .fil2 {fill:#E6E7E8}
    .fil1 {fill:#4B4B4D}
    .fil0 {fill:#373435}
    .fil3 {fill:#ED3237}
   ]]>
  </style>
 </defs>
 <g id="Camada_x0020_1">
  <metadata id="CorelCorpID_0Corel-Layer"/>
  <path class="fil0" d="M18683 16374c3140,266 5342,883 5342,1601 0,961 -3934,1740 -8787,1740 -4853,0 -8787,-779 -8787,-1740 0,-701 2098,-1306 5118,-1581 123,606 76,1259 87,2053 2351,0 4702,0 7053,0 -37,-954 -115,-1543 -26,-2073z"/>
  <path class="fil1 str0" d="M9736 15451l10757 0c-1627,1206 -1338,1513 -1252,3025 -2650,0 -5300,0 -7950,0 -26,-1261 233,-2053 -1555,-3025z"/>
  <path class="fil0" d="M2049 1272l25630 11c872,0 829,289 828,716 -18,4578 21,5975 -2,12586 9,897 -271,953 -1237,965l-6890 0 -9129 0 -9222 0c-317,0 -378,-147 -403,-339l0 -13514c0,-233 25,-425 425,-425zm22337 12968l0 294c0,10 4,20 8,27 25,51 107,57 138,1 4,-7 8,-18 8,-28l0 -294c0,-34 -37,-67 -73,-67 -24,0 -41,5 -58,21 -11,10 -23,27 -23,46zm-302 347l0 21c0,58 23,123 50,166l13 19c18,25 36,43 59,64 3,2 3,2 6,4 3,3 4,4 6,6 37,26 40,29 85,50 35,16 96,32 149,32l22 0c57,0 123,-18 164,-39 17,-9 26,-13 43,-24 5,-4 8,-6 13,-9 36,-25 58,-50 84,-82 2,-3 2,-4 4,-7 4,-5 6,-8 9,-13 6,-10 11,-19 16,-29 18,-32 36,-89 36,-138 0,-45 -2,-67 -15,-108 -4,-15 -9,-25 -14,-38 -6,-13 -12,-23 -18,-35 -3,-4 -7,-10 -10,-15 -14,-19 -26,-34 -42,-51 -17,-18 -42,-31 -69,-31 -67,0 -107,84 -44,129 8,5 20,22 25,29 9,14 18,29 24,47 24,75 4,154 -55,209 -5,4 -9,9 -14,12 -3,3 -5,4 -8,6 -2,2 -5,4 -8,6 -33,23 -83,39 -124,39 -41,0 -70,-5 -103,-19 -12,-5 -24,-11 -34,-18 -13,-9 -27,-19 -37,-29 -34,-36 -61,-85 -61,-133 0,-34 0,-47 12,-79 7,-18 15,-32 25,-46 3,-4 5,-7 8,-11 15,-18 35,-32 44,-46 16,-26 10,-63 -15,-86 -25,-23 -69,-27 -97,-7 -18,13 -54,52 -67,71 -4,6 -7,10 -11,17 -11,18 -20,34 -28,53 -13,33 -23,74 -23,113zm-21230 -12380l24337 0 0 11536 -24337 0 0 -11536z"/>
  <polygon class="fil2" points="2854,2207 27191,2207 27191,13743 2854,13743 "/>
  <path class="fil3" d="M24084 14587l0 21c0,58 23,123 50,166l13 19c18,25 36,43 59,64 3,2 3,2 6,4 3,3 4,4 6,6 37,26 40,29 85,50 35,16 96,32 149,32l22 0c57,0 123,-18 164,-39 17,-9 26,-13 43,-24 5,-4 8,-6 13,-9 36,-25 58,-50 84,-82 2,-3 2,-4 4,-7 4,-5 6,-8 9,-13 6,-10 11,-19 16,-29 18,-32 36,-89 36,-138 0,-45 -2,-67 -15,-108 -4,-15 -9,-25 -14,-38 -6,-13 -12,-23 -18,-35 -3,-4 -7,-10 -10,-15 -14,-19 -26,-34 -42,-51 -17,-18 -42,-31 -69,-31 -67,0 -107,84 -44,129 8,5 20,22 25,29 9,14 18,29 24,47 24,75 4,154 -55,209 -5,4 -9,9 -14,12 -3,3 -5,4 -8,6 -2,2 -5,4 -8,6 -33,23 -83,39 -124,39 -41,0 -70,-5 -103,-19 -12,-5 -24,-11 -34,-18 -13,-9 -27,-19 -37,-29 -34,-36 -61,-85 -61,-133 0,-34 0,-47 12,-79 7,-18 15,-32 25,-46 3,-4 5,-7 8,-11 15,-18 35,-32 44,-46 16,-26 10,-63 -15,-86 -25,-23 -69,-27 -97,-7 -18,13 -54,52 -67,71 -4,6 -7,10 -11,17 -11,18 -20,34 -28,53 -13,33 -23,74 -23,113z"/>
  <path class="fil3" d="M24386 14240l0 294c0,10 4,20 8,27 25,51 107,57 138,1 4,-7 8,-18 8,-28l0 -294c0,-34 -37,-67 -73,-67 -24,0 -41,5 -58,21 -11,10 -23,27 -23,46z"/>
 </g>
</svg>
