<?xml version="1.0" encoding="UTF-8"?>
<!DOCTYPE svg PUBLIC "-//W3C//DTD SVG 1.1//EN" "http://www.w3.org/Graphics/SVG/1.1/DTD/svg11.dtd">
<!-- Creator: CorelDRAW X7 -->
<svg xmlns="http://www.w3.org/2000/svg" xml:space="preserve" width="1091px" height="1091px" version="1.1" style="shape-rendering:geometricPrecision; text-rendering:geometricPrecision; image-rendering:optimizeQuality; fill-rule:evenodd; clip-rule:evenodd"
viewBox="0 0 1091 1091"
 xmlns:xlink="http://www.w3.org/1999/xlink">
 <defs>
  <style type="text/css">
   <![CDATA[
    .fil5 {fill:#01A858}
    .fil12 {fill:#02436F}
    .fil14 {fill:#1482BF}
    .fil1 {fill:#353434}
    .fil4 {fill:#388840}
    .fil7 {fill:#525355}
    .fil11 {fill:#5B6778}
    .fil3 {fill:#7591BC}
    .fil0 {fill:#86BB48}
    .fil6 {fill:#A7C0DC}
    .fil10 {fill:#A9ABAE}
    .fil8 {fill:#B83236}
    .fil9 {fill:#D2D3D5}
    .fil13 {fill:#EA3237}
    .fil15 {fill:#F1991E}
    .fil2 {fill:#FEFEFE}
   ]]>
  </style>
 </defs>
 <g id="Camada_x0020_1">
  <metadata id="CorelCorpID_0Corel-Layer"/>
  <path class="fil0" d="M53 290l389 0 0 364c2,-1 1,-1 3,-3l60 -61c7,-8 24,-24 29,-30 4,-4 12,-11 14,-14 -23,-5 -66,-19 -71,-56 -2,-12 3,-27 7,-36l10 -15 15 -17c5,-4 11,-11 17,-15 -1,-5 -2,-10 -2,-17 -3,-36 7,-72 32,-89 16,-10 30,-7 44,4 15,12 18,26 24,44l22 -9 0 -9 -14 0c0,-1 0,0 0,-2 -1,-2 0,1 -1,-1l0 -20c1,0 1,0 1,0l0 -2c0,-2 12,-1 14,-1l0 -56c2,0 20,2 22,5 3,4 1,43 1,52l31 0 1 16 28 -8c2,-2 4,-4 6,-6 2,-2 3,-3 5,-5 5,-3 9,-6 14,-7 6,-2 12,-2 17,0 6,1 10,5 14,6l3 0c1,-3 6,-7 8,-9l71 -72c3,-3 5,-5 8,-8 18,-18 38,-40 55,-57 13,-12 27,-28 40,-40l23 -24c3,-3 6,-6 8,-8 3,-3 6,-6 8,-8 3,-3 6,-6 8,-9 3,-2 6,-5 8,-7 4,-5 14,-14 16,-17 -12,1 -48,0 -62,0l-896 0c-7,0 -24,1 -30,-1l0 248z"/>
  <path class="fil1" d="M1008 873l2 0 1 5 0 7c0,7 -4,8 -4,0l0 -7 1 -5zm-6 5c3,-2 4,1 2,4 -2,2 -3,5 -2,9 1,16 19,8 13,-6 -1,-3 -4,-5 -2,-7 2,-3 5,1 5,3 6,12 -1,27 -12,24 -4,-2 -7,-6 -8,-12 -1,-6 1,-14 4,-15zm-949 -588l0 -248c6,2 23,1 30,1l896 0c14,0 50,1 62,0l1 0c0,0 0,0 0,-1 0,0 0,1 0,1 0,-1 0,0 0,0l0 761 0 1 0 47 -16 0 -973 -1 0 -45c-1,-8 0,-52 0,-64l0 -452zm379 636l254 0 400 0 0 -927 -1083 0 0 927 429 0z"/>
  <polygon class="fil2" points="64,749 268,749 267,308 64,308 "/>
  <path class="fil0" d="M1041 44l-88 262c7,5 34,7 51,35 11,16 8,41 -3,57 -3,5 -4,8 -9,13 -1,3 -3,4 -5,7 -2,2 -3,3 -5,5l-12 11c-7,7 -15,14 -24,19 -17,13 -34,23 -53,32l-3 12c12,5 9,23 9,44l-8 0c0,-7 1,-13 1,-20 0,-8 -1,-12 -6,-13l-7 22 0 11 -4 0c-6,16 -16,47 -22,66 -8,21 -15,44 -22,65 -4,11 -8,22 -11,33 -11,33 -23,67 -33,99 2,1 5,1 7,1 33,-1 242,1 248,-1l0 -761 0 0 -1 1z"/>
  <path class="fil3" d="M64 749l0 -441 203 0c0,0 0,0 0,1l1 1c0,1 0,0 0,1 0,1 0,3 0,4l0 113c0,120 1,243 0,362l-205 0 1 -41zm300 12l14 0 0 18 -14 0 -86 0 0 -18 86 0zm60 -11c-2,1 -148,1 -150,0 1,-2 -1,-1 2,-2l144 0c3,0 3,-1 4,2zm-149 -37l140 1 0 19 -140 0 0 -20zm0 -29l107 0 0 20 -2 0 -2 0 -100 0 -3 0 0 -20zm1 -32l125 0 2 0 0 20 -127 0 0 -4 0 -16zm0 -30c0,-3 3,-2 5,-2l20 0c14,0 71,-1 81,0l-1 20c-7,1 -18,0 -26,0l-75 0c-5,0 -4,3 -4,-18zm0 -15c-1,-24 1,-19 7,-19 17,0 50,-1 64,0 1,4 0,16 0,20l-71 -1zm0 -47l141 0 0 20 -141 0 0 -20zm112 -15c-38,0 -75,0 -113,0l0 -3 142 0c6,0 7,-1 8,2 -3,2 -31,1 -37,1zm-112 -34l69 0 0 20 -69 0 0 -20zm0 -30l92 0 0 20 -92 0 0 -20zm1 -27l76 0 2 0 0 20 -78 0 0 -4 0 -16zm46 -142c2,-1 48,-1 57,-1 3,0 7,0 10,0 3,0 5,1 5,5l1 80c0,7 1,20 -3,23 -2,1 -49,0 -58,0 -5,0 -14,3 -15,-5 -1,-5 -1,-65 -1,-79 0,-12 -1,-20 4,-23zm-270 494l973 0 0 -1 -584 0 0 -151 0 -364 -389 0 0 452c0,12 -1,56 0,64z"/>
  <path class="fil4" d="M741 539l-13 2c-16,6 -71,11 -89,12 -17,1 -78,0 -91,-7 -2,3 -10,10 -14,14 -5,6 -22,22 -29,30l-60 61c-2,2 -1,2 -3,3l0 151 584 0 16 0 0 -1c-6,2 -215,0 -248,1 -2,0 -5,0 -7,-1 -2,2 -183,0 -203,0 3,-6 7,-11 10,-17 6,-10 18,-29 25,-41 1,-2 3,-5 4,-8l50 -82c2,-3 3,-5 5,-8l29 -49c2,-3 3,-5 5,-8 3,-6 6,-11 10,-16l19 -33 7 -1 0 -4 0 4 -7 0c0,-1 0,2 0,-2z"/>
  <path class="fil5" d="M846 506c1,5 2,6 1,12 -6,6 -16,2 -22,5 0,2 1,5 2,7 1,2 3,2 6,3 7,0 8,-4 12,-5 5,13 -12,14 -16,13 -8,-2 -12,-13 -12,-23l-4 1c-1,4 0,16 0,22l-7 0 -1 -3c-3,4 -9,5 -14,2 -7,-3 -7,-8 -10,-11l-4 1 0 11 -7 1 0 -10 -12 3c-1,2 -1,3 -1,6l-7 0 0 -4 -2 0 0 4 -7 1 -19 33c-4,5 -7,10 -10,16 -2,3 -3,5 -5,8l-29 49c-2,3 -3,5 -5,8l-50 82c-1,3 -3,6 -4,8 -7,12 -19,31 -25,41 -3,6 -7,11 -10,17 20,0 201,2 203,0 10,-32 22,-66 33,-99 3,-11 7,-22 11,-33 7,-21 14,-44 22,-65 6,-19 16,-50 22,-66l-4 0c0,-10 3,-34 -7,-32 -8,1 -6,13 -6,32l-6 0 -1 -36 -5 1z"/>
  <path class="fil1" d="M471 971c-12,0 -23,3 -35,3l-26 2c-21,3 -38,5 -59,9 -5,1 -10,2 -16,3 -5,1 -11,3 -15,4 -6,2 -11,3 -16,5 -8,2 -45,14 -40,32 5,23 76,37 92,39 6,1 11,2 17,3 15,3 39,4 51,6l44 4c3,0 6,0 9,1l18 1c35,1 74,0 111,0 10,0 25,-1 36,-1 4,0 6,0 8,-1l96 -9c17,-3 117,-17 115,-47 0,-10 -15,-18 -21,-21 -33,-16 -96,-25 -133,-29l-67 -4c-5,15 -3,36 -3,54l-162 0c0,-19 0,-38 -4,-54z"/>
  <path class="fil6" d="M968 833l54 0 0 11 -54 0 0 -11zm-861 -4l0 4 0 2 1 -1c0,0 0,0 0,0l-1 -2c0,-4 0,-4 1,-4 0,0 1,0 2,0 3,0 1,0 1,1l0 4 0 1 0 5 -3 0c-3,0 -1,-1 -1,1l1 0 3 0 0 5 -3 0c-1,0 -2,0 -3,0 -4,1 -1,0 -2,-1l0 -4 0 -1 0 -5 0 -2 0 -4c1,0 0,-1 2,-1 4,1 1,0 2,2zm-46 3c-2,-11 6,-20 13,-21 21,-3 24,34 4,36 -9,1 -16,-6 -17,-15zm882 -8c1,-2 2,-1 3,-2 1,-1 1,-2 3,-3l0 15c-2,0 -1,0 -3,-3 -2,-2 -1,0 -3,-1l0 -6zm-835 -2l3 0 0 5 -3 0 0 -5zm-5 0l4 0 0 5 -4 0 0 -5zm876 -7l32 0 0 10 -32 0 0 -10zm-871 2l3 0 0 4 -3 1 0 -5zm-5 0l4 0 0 4 -4 0 0 -4zm5 -6l3 0 0 4 -3 0 0 -4zm-5 3l0 -3 4 0 0 3 0 1c-4,0 -3,0 -4,-1zm923 38l0 -46 -973 0 0 45 973 1z"/>
  <path class="fil7" d="M471 971c4,16 4,35 4,54l162 0c0,-18 -2,-39 3,-54 1,-3 2,-6 4,-9 7,-12 18,-20 28,-27 3,-2 5,-3 7,-4 2,-2 5,-3 7,-5l-254 0c7,8 30,17 38,41 1,2 0,2 1,4z"/>
  <path class="fil4" d="M1041 43c-2,3 -12,12 -16,17 -2,2 -5,5 -8,7 -2,3 -5,6 -8,9 -2,2 -5,5 -8,8 -2,2 -5,5 -8,8l-23 24c-13,12 -27,28 -40,40 -17,17 -37,39 -55,57 -3,3 -5,5 -8,8l-71 72c-2,2 -7,6 -8,9 12,-1 24,-3 36,-4 12,-2 25,-2 37,-3 14,-1 16,-3 31,1l1 0c-1,0 -1,0 -1,0l-2 -2 23 -38c2,-3 4,-5 5,-8 6,-10 30,-50 38,-63l19 -31c1,-3 3,-6 4,-8l14 -23c10,-15 20,-33 29,-47 1,-3 3,-5 4,-8 2,-3 4,-5 5,-8l10 -16 1 -1 0 0c0,0 0,-1 0,0 0,0 0,-1 0,-1 0,1 0,1 0,1l-1 0z"/>
  <path class="fil5" d="M829 487c2,-3 8,-9 11,-12 1,2 2,4 3,6 -3,3 -8,9 -12,11l-2 -5zm18 -121c-1,11 1,22 3,31 8,26 27,31 43,23 4,-2 6,-4 9,-6l3 30c-9,5 -14,9 -24,10 -10,1 -19,0 -27,-5 -12,-8 -24,-29 -28,-46l0 -1c0,1 0,1 -1,1 0,0 0,0 0,0 0,0 0,0 0,1 0,0 0,0 -1,0l-15 25c-1,6 -4,10 -7,13 -5,8 -32,51 -33,55 5,3 8,7 8,17l2 -1c3,-2 1,-3 5,-11 4,-7 12,-10 18,-6 8,4 0,-1 11,1l0 7 8 -3c9,-6 5,-5 16,-5 10,-3 23,-9 32,-13 11,-5 21,-10 30,-15l38 -113c-11,-4 -22,-8 -33,-10 -7,-2 -31,-7 -36,-6l-5 -1c-1,5 -5,10 -8,14l-8 14z"/>
  <path class="fil4" d="M671 419c5,13 22,4 31,4 1,22 -5,30 -20,30 -7,-1 -14,-1 -20,-1 -8,-1 -10,-2 -14,-9 -1,2 0,1 -2,3l-29 30c-8,9 -27,27 -36,36 7,4 24,6 32,7 12,2 24,3 35,4l1 -45 6 0 0 46 8 0c1,-19 1,-15 -3,-16l0 -8c2,-2 3,0 4,-2l0 -13 6 0 1 16 8 0 0 7 -9 0 0 16 14 0c-3,-28 18,-34 24,-25 1,0 1,0 1,0l1 -1c1,-1 4,-1 6,-1 1,5 0,20 0,26l5 -1 0 -24c1,0 3,0 4,0 3,0 3,0 3,3 5,-2 10,-7 15,-2 2,2 3,5 4,8 2,8 0,10 3,12l0 -1c0,-2 0,-1 0,-3 0,-1 0,-3 0,-5l1 -28 6 0 0 19c5,-2 5,-4 12,-4 1,-4 28,-47 33,-55 -18,15 -46,23 -65,8 -8,-7 -15,-17 -20,-30 -6,-19 -6,-25 -6,-47 -1,5 1,6 -2,9l-17 17c-3,3 -6,7 -10,11 -2,2 -9,10 -11,9z"/>
  <path class="fil1" d="M599 361c-3,4 -30,6 -36,6 -7,1 -14,3 -14,-8 1,-30 30,-48 46,-20 2,3 7,16 4,22zm-73 46c1,3 1,6 2,9 1,2 2,5 3,8 1,2 2,4 3,6l7 12c2,1 6,6 10,9 4,3 8,5 13,6 21,6 63,-10 58,-34 -1,-5 -5,-11 -8,-13 -2,1 -7,6 -10,9 -3,2 -7,5 -12,6 -8,3 -24,5 -29,-2 -3,-3 -7,-9 -9,-13 0,-1 0,0 -1,-1 0,-1 0,-1 -1,-2 -1,-2 -4,-11 -2,-14 1,-1 0,-1 2,-1l24 -2 8 0c8,-2 17,-2 25,-4 9,-3 15,-4 16,-17l0 -6 -1 -14c-6,-18 -9,-32 -24,-44 -14,-11 -28,-14 -44,-4 -25,17 -35,53 -32,89 0,7 1,12 2,17z"/>
  <path class="fil1" d="M737 353l3 -9c1,-5 3,-9 6,-11 3,-5 11,-9 19,-9 3,1 7,2 9,5 3,1 7,5 8,9 1,1 0,0 1,2 1,1 1,1 1,2 8,21 -2,21 -12,23 -7,0 -30,4 -35,0 -1,-4 -1,-8 0,-12zm-8 -39c-1,2 -2,3 -4,5 -1,2 -2,5 -4,7 -1,4 -3,8 -5,14l-3 10c0,8 -2,15 -2,23 0,22 0,28 6,47 5,13 12,23 20,30 19,15 47,7 65,-8 3,-3 6,-7 7,-13 1,-9 -4,-18 -7,-20 -5,3 -9,9 -17,13 -9,6 -33,9 -41,-5 -2,-5 -8,-17 -7,-25 18,-3 37,-2 56,-6 9,-2 18,-4 19,-16 2,-10 -1,-26 -4,-34l-4 -10c-2,-2 -3,-5 -5,-7 -1,-2 -1,-3 -2,-4 -2,-2 -2,-2 -2,-4 -2,-1 -9,-7 -10,-9 -4,-1 -8,-5 -14,-6 -5,-2 -11,-2 -17,0 -5,1 -9,4 -14,7 -2,2 -3,3 -5,5 -2,2 -4,4 -6,6z"/>
  <path class="fil5" d="M893 296c9,0 22,2 31,3 10,2 20,5 29,7l88 -262 -10 16c-1,3 -3,5 -5,8 -1,3 -3,5 -4,8 -9,14 -19,32 -29,47l-14 23c-1,2 -3,5 -4,8l-19 31c-8,13 -32,53 -38,63 -1,3 -3,5 -5,8l-23 38 2 2c0,0 0,0 1,0z"/>
  <path class="fil0" d="M563 423c5,7 21,5 29,2 5,-1 9,-4 12,-6 3,-3 8,-8 10,-9 3,2 7,8 8,13 5,24 -37,40 -58,34 -5,-1 -9,-3 -13,-6 -4,-3 -8,-8 -10,-9 -5,8 -30,28 -7,49 8,7 35,21 47,21 9,-9 28,-27 36,-36l29 -30c2,-2 1,-1 2,-3 -3,-9 -1,-55 -2,-69 -7,3 -15,8 -22,11 -8,4 -15,7 -21,11 -14,8 -28,17 -40,27z"/>
  <path class="fil8" d="M904 312c16,3 29,6 44,10 14,2 38,15 47,25 6,7 10,15 5,31 -3,8 -11,21 -16,24 2,-19 0,-29 -12,-42 -12,-12 -19,-13 -30,-19 -13,-4 -26,-10 -39,-11 -4,1 1,5 -5,1 -2,-1 -3,-2 -5,-2 -4,-2 -10,-2 -14,-2 -8,-1 -18,2 -22,10 3,1 9,0 11,2 5,-1 29,4 36,6 11,2 22,6 33,10 13,4 25,13 34,22 4,4 8,13 4,23 -10,30 -57,56 -76,68 -9,5 -19,10 -30,15 -9,4 -22,10 -32,13 1,1 0,0 1,1l4 3c3,3 2,4 4,6l5 -1 1 -7c1,0 3,0 4,0 3,0 2,0 2,3 2,-1 4,-2 6,-3 2,-1 5,-1 7,-2l22 -11c19,-9 36,-19 53,-32 9,-5 17,-12 24,-19l12 -11c2,-2 3,-3 5,-5 2,-3 4,-4 5,-7 5,-5 6,-8 9,-13 11,-16 14,-41 3,-57 -17,-28 -44,-30 -51,-35 -9,-2 -19,-5 -29,-7 -9,-1 -22,-3 -31,-3l-1 0c2,2 4,3 7,4 2,2 4,3 6,5l-1 7z"/>
  <path class="fil1" d="M646 340l0 13 0 8 0 13c1,14 -1,60 2,69 4,7 6,8 14,9 6,0 13,0 20,1 15,0 21,-8 20,-30 -9,0 -26,9 -31,-4 -3,-14 -4,-39 -3,-54l0 -12c0,-3 0,-8 1,-10l0 -10 27 1c2,-1 5,0 5,-2l0 -10 -1 -16 -31 0c0,-9 2,-48 -1,-52 -2,-3 -20,-5 -22,-5l0 56c-2,0 -14,-1 -14,1l0 2c0,0 0,0 -1,0l0 20c1,2 0,-1 1,1 0,2 0,1 0,2l14 0 0 9z"/>
  <path class="fil1" d="M861 295c-3,2 -6,4 -9,6 -2,1 -4,2 -5,4 -2,1 -2,2 -4,3 -1,3 -4,5 -5,8 -2,3 -4,7 -5,9l-4 11c-1,4 -3,10 -4,15 0,5 -1,10 -2,16 -1,14 1,23 3,35l0 1c4,17 16,38 28,46 8,5 17,6 27,5 10,-1 15,-5 24,-10l-3 -30c-3,2 -5,4 -9,6 -16,8 -35,3 -43,-23 -2,-9 -4,-20 -3,-31 1,-11 6,-24 10,-29 4,-8 14,-11 22,-10 4,0 10,0 14,2 2,0 3,1 5,2 6,4 1,0 5,-1 -1,-1 -1,-1 -1,-2l2 -16 1 -7c-2,-2 -4,-3 -6,-5 -3,-1 -5,-2 -7,-4 -15,-4 -17,-2 -31,-1z"/>
  <path class="fil8" d="M548 546c13,7 74,8 91,7 18,-1 73,-6 89,-12l13 -2 0 -19 -13 2 0 19 -7 0 0 -19 -5 1 0 19 -6 -1c-1,-1 0,-2 -1,-3 -10,7 -20,3 -25,-14l-14 0c0,12 1,8 9,6 0,4 0,6 -1,9 -2,2 -9,3 -12,1 -4,-2 -2,-10 -3,-16l-8 0 0 17 -6 0 -1 -3c-15,-1 -29,0 -45,-1 -14,-1 -27,-3 -41,-5 -24,-3 -64,-15 -75,-35 -9,-17 12,-43 22,-53 1,-1 2,-2 3,-3 5,-5 14,-14 19,-17 -1,-3 -2,-6 -3,-8 -1,-3 -1,-6 -2,-9 -6,4 -12,11 -17,15l-15 17 -10 15c-4,9 -9,24 -7,36 5,37 48,51 71,56z"/>
  <path class="fil9" d="M72 761l189 1 0 20 -189 0 0 -21zm-8 -12l-1 41 205 0c1,-119 0,-242 0,-362l0 -113c0,-1 0,-3 0,-4 0,-1 0,0 0,-1l-1 -1c0,-1 0,-1 0,-1l1 441 -204 0z"/>
  <path class="fil0" d="M899 468c19,-12 66,-38 76,-68 4,-10 0,-19 -4,-23 -9,-9 -21,-18 -34,-22l-38 113z"/>
  <path class="fil2" d="M347 370c2,-1 7,6 16,3 7,-2 5,-6 13,1 3,3 7,10 7,18 0,7 -6,10 -10,12 -10,3 -27,3 -35,-3 -10,-7 -3,-27 9,-31zm8 -38c8,-4 13,3 14,11 2,9 -2,17 -7,20 -12,7 -22,-24 -7,-31zm-28 76l0 3 63 0 0 -91 -2 0 -61 0 0 88z"/>
  <path class="fil2" d="M251 769c0,-4 2,-8 5,-5 3,2 3,10 -1,11 -3,0 -2,-2 -4,2 -1,2 -1,3 -3,3 0,-6 3,-4 3,-11zm-179 13l189 0 0 -20 -189 -1 0 21z"/>
  <path class="fil4" d="M809 429l15 -25c1,0 1,0 1,0 0,-1 0,-1 0,-1 0,0 0,0 0,0 1,0 1,0 1,-1l0 1 0 -1c-2,-12 -4,-21 -3,-35 1,-6 2,-11 2,-16 1,-5 3,-11 4,-15l-21 0c3,8 6,24 4,34 -1,12 -10,14 -19,16 -19,4 -38,3 -56,6 -1,8 5,20 7,25 8,14 32,11 41,5 8,-4 12,-10 17,-13 3,2 8,11 7,20z"/>
  <path class="fil0" d="M562 532l6 -7c-3,-3 -14,-6 -25,-12 -17,-10 -32,-29 -24,-56 3,-13 9,-19 15,-27 -1,-2 -2,-4 -3,-6 -5,3 -14,12 -19,17 -1,1 -2,2 -3,3 -10,10 -31,36 -22,53 11,20 51,32 75,35z"/>
  <polygon class="fil10" points="276,580 417,580 417,560 276,560 "/>
  <polygon class="fil10" points="275,733 415,733 415,714 275,713 "/>
  <polygon class="fil10" points="276,668 276,672 403,672 403,652 401,652 276,652 "/>
  <path class="fil9" d="M327 320l61 0 2 0 0 91 -63 0 0 -3 0 -88zm-4 -8c-5,3 -4,11 -4,23 0,14 0,74 1,79 1,8 10,5 15,5 9,0 56,1 58,0 4,-3 3,-16 3,-23l-1 -80c0,-4 -2,-5 -5,-5 -3,0 -7,0 -10,0 -9,0 -55,0 -57,1z"/>
  <path class="fil8" d="M568 525c25,8 54,12 80,12l0 -14c-11,-1 -23,-2 -35,-4 -8,-1 -25,-3 -32,-7 -12,0 -39,-14 -47,-21 -23,-21 2,-41 7,-49l-7 -12c-6,8 -12,14 -15,27 -8,27 7,46 24,56 11,6 22,9 25,12z"/>
  <polygon class="fil10" points="275,704 278,704 378,704 380,704 382,704 382,684 275,684 "/>
  <path class="fil10" d="M276 622c0,21 -1,18 4,18l75 0c8,0 19,1 26,0l1 -20c-10,-1 -67,0 -81,0l-20 0c-2,0 -5,-1 -5,2z"/>
  <path class="fil0" d="M668 365c-1,15 0,40 3,54 2,1 9,-7 11,-9 4,-4 7,-8 10,-11l17 -17c3,-3 1,-4 2,-9 0,-8 2,-15 2,-23 -15,3 -30,10 -45,15z"/>
  <path class="fil0" d="M942 341c11,6 18,7 30,19 12,13 14,23 12,42 5,-3 13,-16 16,-24 5,-16 1,-24 -5,-31 -9,-10 -33,-23 -47,-25 0,4 -5,14 -6,19z"/>
  <polygon class="fil10" points="276,501 368,501 368,481 276,481 "/>
  <path class="fil0" d="M599 361c3,-6 -2,-19 -4,-22 -16,-28 -45,-10 -46,20 0,11 7,9 14,8 6,0 33,-2 36,-6z"/>
  <path class="fil1" d="M721 522l0 19 7 0 0 -19 0 -10c6,-5 13,-6 13,8l0 19c0,4 0,1 0,2l7 0 0 -4 0 -15c1,-4 -1,-2 2,-3l0 18 0 4 7 0c0,-3 0,-4 1,-6 -1,-2 -1,-1 -1,-4 0,-2 0,-4 0,-5 0,-3 0,-5 0,-8 0,-4 0,-5 2,-7 1,-1 3,-2 4,-2 5,-1 6,2 7,6l0 17 0 10 7 -1 0 -11 0 -16c0,-10 -3,-14 -8,-17 -7,0 -7,2 -12,4l0 -19 -6 0 -1 28c0,2 0,4 0,5 0,2 0,1 0,3l0 1c-3,-2 -1,-4 -3,-12 -1,-3 -2,-6 -4,-8 -5,-5 -10,0 -15,2 0,-3 0,-3 -3,-3 -1,0 -3,0 -4,0l0 24z"/>
  <polygon class="fil10" points="277,470 277,474 355,474 355,454 353,454 277,454 "/>
  <polygon class="fil9" points="364,779 364,761 278,761 278,779 "/>
  <path class="fil7" d="M347 370c-12,4 -19,24 -9,31 8,6 25,6 35,3 4,-2 10,-5 10,-12 0,-8 -4,-15 -7,-18 -8,-7 -6,-3 -13,-1 -9,3 -14,-4 -16,-3z"/>
  <path class="fil10" d="M276 607l71 1c0,-4 1,-16 0,-20 -14,-1 -47,0 -64,0 -6,0 -8,-5 -7,19z"/>
  <polygon class="fil10" points="276,531 345,531 345,511 276,511 "/>
  <path class="fil8" d="M625 369c-1,13 -7,14 -16,17 -8,2 -17,2 -25,4 -4,3 -11,7 -15,10 -5,3 -11,7 -15,10 2,4 6,10 9,13 12,-10 26,-19 40,-27 6,-4 13,-7 21,-11 7,-3 15,-8 22,-11l0 -13 -21 8z"/>
  <path class="fil4" d="M746 342l-9 11c-1,4 -1,8 0,12 5,4 28,0 35,0 10,-2 20,-2 12,-23 0,-1 0,-1 -1,-2 -1,-2 0,-1 -1,-2l-36 4z"/>
  <path class="fil1" d="M851 505l1 36 6 0c0,-19 -2,-31 6,-32 10,-2 7,22 7,32l4 0 4 0 0 -11c0,-16 -2,-18 3,-21 2,-1 3,-1 4,-1 5,1 6,5 6,13 0,7 -1,13 -1,20l8 0c0,-21 3,-39 -9,-44 -6,-1 -10,3 -13,6 -2,-3 -3,-4 -7,-6l1 -1c-2,1 -5,1 -7,2 -2,1 -4,2 -6,3 0,-3 1,-3 -2,-3 -1,0 -3,0 -4,0l-1 7z"/>
  <path class="fil1" d="M789 526l1 0 -1 0c-3,-3 -3,-10 -1,-15 2,-3 3,-5 6,-6 2,-1 7,-1 7,3 4,1 5,8 4,14 -1,4 -3,8 -7,9 -3,1 -7,0 -9,-5zm-10 -13c1,3 0,4 1,9 0,3 1,4 1,7 3,3 3,8 10,11 5,3 11,2 14,-2l1 3 7 0c0,-6 -1,-18 0,-22 -1,-4 -1,-11 0,-15l0 -7c-11,-2 -3,3 -11,-1 -6,-4 -14,-1 -18,6 -4,8 -2,9 -5,11z"/>
  <path class="fil1" d="M709 523c-3,12 -15,12 -18,1 -4,-9 2,-19 8,-20 4,0 7,2 9,5 2,3 2,9 1,14zm-25 1c5,17 15,21 25,14 1,1 0,2 1,3l6 1 0 -19c0,-6 1,-21 0,-26 -2,0 -5,0 -6,1l-1 1c0,0 0,0 -1,0 -6,-9 -27,-3 -24,25z"/>
  <path class="fil5" d="M903 330c13,1 26,7 39,11 1,-5 6,-15 6,-19 -15,-4 -28,-7 -44,-10l-2 16c0,1 0,1 1,2z"/>
  <path class="fil1" d="M825 514c-2,-8 11,-16 14,-4 1,2 1,1 1,4 -2,1 -14,3 -15,0zm-4 -13c-1,3 -1,4 -3,7 -1,3 -1,6 -1,10 0,10 4,21 12,23 4,1 21,0 16,-13 -4,1 -5,5 -12,5 -3,-1 -5,-1 -6,-3 -1,-2 -2,-5 -2,-7 6,-3 16,1 22,-5 1,-6 0,-7 -1,-12 -2,-2 -1,-3 -4,-6l-4 -3c-1,-1 0,0 -1,-1 -11,0 -7,-1 -16,5z"/>
  <polygon class="fil11" points="1026,852 1042,852 1042,805 1026,805 1026,806 "/>
  <path class="fil8" d="M788 302l-3 0c1,2 8,8 10,9 16,-1 32,-2 48,-3 2,-1 2,-2 4,-3 1,-2 3,-3 5,-4 3,-2 6,-4 9,-6 -12,1 -25,1 -37,3 -12,1 -24,3 -36,4z"/>
  <path class="fil12" d="M76 830c4,2 3,1 7,1l-2 8c-3,2 -4,1 -7,0l2 -9zm-9 6c0,-5 1,-9 5,-9 5,1 2,5 2,10 -4,-1 -3,-1 -7,-1zm18 -15c0,1 -1,5 -1,6 -1,2 -2,3 -4,3 -5,0 -3,-5 -2,-10 4,2 3,2 7,1zm-15 -3c3,-2 5,-1 8,0l-2 10c-4,-3 -6,-1 -8,-1l2 -9zm-9 14c1,9 8,16 17,15 20,-2 17,-39 -4,-36 -7,1 -15,10 -13,21z"/>
  <path class="fil4" d="M795 311c0,2 0,2 2,4 1,1 1,2 2,4 2,2 3,5 5,7l29 -1c1,-2 3,-6 5,-9 1,-3 4,-5 5,-8 -16,1 -32,2 -48,3z"/>
  <path class="fil7" d="M355 332c-15,7 -5,38 7,31 5,-3 9,-11 7,-20 -1,-8 -6,-15 -14,-11z"/>
  <polygon class="fil2" points="968,844 1022,844 1022,833 968,833 "/>
  <path class="fil0" d="M701 332c0,2 -3,1 -5,2l-27 9c-1,2 -1,7 -1,10 16,-4 32,-11 48,-13 2,-6 4,-10 5,-14l-20 6z"/>
  <path class="fil1" d="M663 524c1,6 -1,14 3,16 3,2 10,1 12,-1 1,-3 1,-5 1,-9 -8,2 -9,6 -9,-6l0 -16 9 0 0 -7 -8 0 -1 -16 -6 0 0 13c-1,2 -2,0 -4,2l0 8c4,1 4,-3 3,16z"/>
  <path class="fil8" d="M668 353l0 12c15,-5 30,-12 45,-15l3 -10c-16,2 -32,9 -48,13z"/>
  <polygon class="fil1" points="648,523 648,537 648,538 649,541 655,541 655,524 655,478 649,478 "/>
  <path class="fil7" d="M274 750c2,1 148,1 150,0 -1,-3 -1,-2 -4,-2l-144 0c-3,1 -1,0 -2,2z"/>
  <path class="fil7" d="M275 545c38,0 75,0 113,0 6,0 34,1 37,-1 -1,-3 -2,-2 -8,-2l-142 0 0 3z"/>
  <path class="fil8" d="M759 331l-13 2c-3,2 -5,6 -6,11l6 -2 36 -4c-1,-4 -5,-8 -8,-9l-15 2z"/>
  <path class="fil4" d="M691 524l18 -1c1,-5 1,-11 -1,-14 -2,-3 -5,-5 -9,-5 -6,1 -12,11 -8,20z"/>
  <polygon class="fil2" points="979,825 1011,825 1011,815 979,815 "/>
  <path class="fil4" d="M562 532c14,2 27,4 41,5 16,1 30,0 45,1l0 -1c-26,0 -55,-4 -80,-12l-6 7z"/>
  <polygon class="fil8" points="624,349 625,363 646,353 646,340 "/>
  <polygon class="fil8" points="804,326 808,336 829,336 833,325 "/>
  <path class="fil8" d="M788 511c-2,5 -2,12 1,15l1 0 15 -4c1,-6 0,-13 -4,-14l-13 3z"/>
  <path class="fil13" d="M1002 878c-3,1 -5,9 -4,15 1,6 4,10 8,12 11,3 18,-12 12,-24 0,-2 -3,-6 -5,-3 -2,2 1,4 2,7 6,14 -12,22 -13,6 -1,-4 0,-7 2,-9 2,-3 1,-6 -2,-4z"/>
  <path class="fil8" d="M701 322l0 10 20 -6c2,-2 3,-5 4,-7 2,-2 3,-3 4,-5l-28 8z"/>
  <path class="fil10" d="M370 766l3 5c0,1 -1,1 -1,2 -1,2 -1,1 -2,2l0 -9zm-6 13l14 0 0 -18 -14 0 0 18z"/>
  <path class="fil8" d="M757 518c0,3 0,5 0,8 0,1 0,3 0,5 0,3 0,2 1,4l12 -3 0 -17 -13 3z"/>
  <path class="fil8" d="M552 407l24 -17 -24 2c-2,0 -1,0 -2,1 -2,3 1,12 2,14z"/>
  <path class="fil5" d="M871 496l-1 1c4,2 5,3 7,6 3,-3 7,-7 13,-6l3 -12 -22 11z"/>
  <path class="fil4" d="M847 366l8 -14c3,-4 7,-9 8,-14l5 1c-2,-2 -8,-1 -11,-2 -4,5 -9,18 -10,29z"/>
  <polygon class="fil0" points="625,363 625,369 646,361 646,353 "/>
  <path class="fil4" d="M728 522l13 -2c0,-14 -7,-13 -13,-8l0 10z"/>
  <polygon class="fil8" points="669,343 696,334 669,333 "/>
  <path class="fil0" d="M576 390l-24 17c1,1 1,1 1,2 1,1 1,0 1,1 4,-3 10,-7 15,-10 4,-3 11,-7 15,-10l-8 0z"/>
  <path class="fil8" d="M691 524c3,11 15,11 18,-1l-18 1z"/>
  <path class="fil1" d="M829 487l2 5c4,-2 9,-8 12,-11 -1,-2 -2,-4 -3,-6 -3,3 -9,9 -11,12z"/>
  <path class="fil8" d="M825 514l14 -4c-3,-12 -16,-4 -14,4z"/>
  <path class="fil5" d="M790 526l-1 0c2,5 6,6 9,5 4,-1 6,-5 7,-9l-15 4z"/>
  <path class="fil8" d="M813 504c-1,4 -1,11 0,15l4 -1c0,-4 0,-7 1,-10 2,-3 2,-4 3,-7l-8 3z"/>
  <path class="fil5" d="M757 518l13 -3c-1,-4 -2,-7 -7,-6 -1,0 -3,1 -4,2 -2,2 -2,3 -2,7z"/>
  <path class="fil0" d="M746 333l13 -2c2,-2 2,-2 3,-4 2,-1 1,-1 3,-3 -8,0 -16,4 -19,9z"/>
  <path class="fil5" d="M879 530l7 -22c-1,0 -2,0 -4,1 -5,3 -3,5 -3,21z"/>
  <path class="fil8" d="M70 818l-2 9c2,0 4,-2 8,1l2 -10c-3,-1 -5,-2 -8,0z"/>
  <path class="fil13" d="M1007 878l0 7c0,8 4,7 4,0l0 -7 -1 -5 -2 0 -1 5z"/>
  <path class="fil14" d="M67 836c4,0 3,0 7,1 0,-5 3,-9 -2,-10 -4,0 -5,4 -5,9z"/>
  <path class="fil4" d="M85 821c-4,1 -3,1 -7,-1 -1,5 -3,10 2,10 2,0 3,-1 4,-3 0,-1 1,-5 1,-6z"/>
  <path class="fil2" d="M943 830c2,1 1,-1 3,1 2,3 1,3 3,3l0 -15c-2,1 -2,2 -3,3 -1,1 -2,0 -3,2l0 6z"/>
  <path class="fil15" d="M74 839c3,1 4,2 7,0l2 -8c-4,0 -3,1 -7,-1l-2 9z"/>
  <path class="fil4" d="M759 331l15 -2c-2,-3 -6,-4 -9,-5 -2,2 -1,2 -3,3 -1,2 -1,2 -3,4z"/>
  <path class="fil7" d="M253 773c-2,-4 -2,-5 0,-9l3 1c1,4 1,4 0,8l-3 0zm-5 7c2,0 2,-1 3,-3 2,-4 1,-2 4,-2 4,-1 4,-9 1,-11 -3,-3 -5,1 -5,5 0,7 -3,5 -3,11z"/>
  <path class="fil5" d="M825 514c1,3 13,1 15,0 0,-3 0,-2 -1,-4l-14 4z"/>
  <path class="fil5" d="M788 511l13 -3c0,-4 -5,-4 -7,-3 -3,1 -4,3 -6,6z"/>
  <path class="fil8" d="M777 530l4 -1c0,-3 -1,-4 -1,-7 -1,-5 0,-6 -1,-9l-2 1 0 16z"/>
  <path class="fil10" d="M103 832l0 2 4 1 0 4 -4 0 0 1 4 0 0 4 -4 0c1,1 -2,2 2,1 1,0 2,0 3,0l0 -5 -1 0c0,-2 -2,-1 1,-1l0 -5 3 0 0 -1 -3 0 0 -5 3 1c0,-1 2,-1 -1,-1 -1,0 -2,0 -2,0 -1,0 -1,0 -1,4l1 2c0,0 0,0 0,0l-1 1 0 -2 -4 -1 0 -3 4 0c-1,-2 2,-1 -2,-2 -2,0 -1,1 -2,1l0 4z"/>
  <path class="fil2" d="M253 773l3 0c1,-4 1,-4 0,-8l-3 -1c-2,4 -2,5 0,9z"/>
  <path class="fil8" d="M748 537l2 0 0 -18c-3,1 -1,-1 -2,3l0 15z"/>
  <polygon class="fil0" points="740,344 737,353 746,342 "/>
  <polygon class="fil11" points="103,827 107,827 107,822 103,822 "/>
  <polygon class="fil11" points="103,821 107,821 107,817 103,817 "/>
  <polygon class="fil11" points="108,822 111,821 111,817 108,817 "/>
  <path class="fil1" d="M370 775c1,-1 1,0 2,-2 0,-1 1,-1 1,-2l-3 -5 0 9z"/>
  <polygon class="fil11" points="108,827 111,827 111,822 108,822 "/>
  <path class="fil11" d="M107 815l0 -1 0 -3 -4 0 0 3c1,1 0,1 4,1z"/>
  <polygon class="fil11" points="108,845 111,845 111,840 108,840 "/>
  <polygon class="fil11" points="111,833 111,829 108,828 108,833 "/>
  <polygon class="fil11" points="108,815 111,815 111,811 108,811 "/>
  <polygon class="fil11" points="108,839 111,839 111,834 108,834 "/>
  <polygon class="fil7" points="103,839 107,839 107,835 103,834 "/>
  <polygon class="fil7" points="103,832 107,833 107,829 103,829 "/>
  <polygon class="fil7" points="103,844 107,844 107,840 103,840 "/>
 </g>
</svg>
