<?xml version="1.0" encoding="UTF-8"?>
<!DOCTYPE svg PUBLIC "-//W3C//DTD SVG 1.1//EN" "http://www.w3.org/Graphics/SVG/1.1/DTD/svg11.dtd">
<!-- Creator: CorelDRAW X7 -->
<svg xmlns="http://www.w3.org/2000/svg" xml:space="preserve" width="1091px" height="1091px" version="1.1" style="shape-rendering:geometricPrecision; text-rendering:geometricPrecision; image-rendering:optimizeQuality; fill-rule:evenodd; clip-rule:evenodd"
viewBox="0 0 1091 1091"
 xmlns:xlink="http://www.w3.org/1999/xlink">
 <defs>
  <style type="text/css">
   <![CDATA[
    .fil0 {fill:#281F17}
    .fil4 {fill:#68482C}
    .fil6 {fill:#68482C}
    .fil1 {fill:#95BA4B}
    .fil2 {fill:#95BA4B}
    .fil3 {fill:#C6D988}
    .fil5 {fill:#FEF8B5}
   ]]>
  </style>
 </defs>
 <g id="Camada_x0020_1">
  <metadata id="CorelCorpID_0Corel-Layer"/>
  <path class="fil0" d="M614 926c9,2 7,-2 12,-4l0 -9c-3,-2 -1,-1 -3,-3l5 3c0,2 -2,0 0,5l10 3 1 -4c7,0 10,-1 13,-5l0 -15c-2,-2 -2,-3 -5,-4 11,0 15,-5 14,-15l-1 -1 -1 -3 2 -1 -6 -21c0,0 -2,-3 -2,-3 -2,-7 -1,-1 2,-4 1,9 7,19 9,30 10,1 6,-3 14,-1 3,-3 2,-2 6,-2 9,-1 6,0 13,-6 0,0 -1,-5 -1,-6 -2,-5 -3,-5 -5,-5 5,-4 0,-2 2,-11 -4,0 -3,0 -6,-3 0,0 -1,0 -1,0 0,-1 0,-1 0,-1 6,-3 6,7 15,0 2,-1 1,-3 2,-6 15,-4 3,-8 7,-17 2,3 2,8 2,13l3 -3c1,-1 1,0 2,-1 -1,-6 -3,-7 1,-11 3,-1 5,-2 7,-3l1 -4c4,-14 -4,-2 2,-14 1,-2 1,-3 1,-5 -1,-4 -3,-3 -3,-8l9 -2 8 -3c0,-8 2,-11 2,-17 6,0 2,0 7,-4 -1,-7 2,-6 -2,-12 1,-3 0,0 2,-1l5 0 1 -4c1,-7 2,-5 3,-10 3,1 7,1 11,-1 3,-2 2,-5 2,-12 8,-7 8,-9 4,-20 5,-3 4,1 9,-2 3,-3 2,-4 6,-6l-1 -5c13,2 10,2 24,-4 1,-5 2,-6 4,-10 1,-5 3,-5 8,-6 1,-1 5,-3 5,-3 4,-2 3,0 8,-3 0,-1 2,-13 2,-15 0,-3 -1,-7 -2,-10 0,-2 -3,-5 -4,-6 -5,-8 -11,-4 -17,-5 0,0 1,2 2,3 4,-1 4,-2 6,1l3 4c0,1 0,1 0,1 0,0 1,1 1,1l-1 6c-7,2 -3,-3 -8,3 -7,0 -11,-1 -12,-6 -1,1 -4,2 -5,2l-3 3c-7,-1 -7,0 -11,-3 -6,4 -8,2 -13,0 -4,-1 -9,0 -12,-2l-11 8c0,-1 0,-1 -1,-2 0,-1 -1,-1 -1,-2 0,0 -1,-2 -2,-3 -3,-4 -2,-2 -6,-3 -5,-1 -4,-3 -8,-2 -5,1 0,3 -7,2 -2,-3 -3,-5 -3,-9 1,0 -1,0 3,-2 4,-1 6,1 10,3 2,-3 1,-2 1,-4 3,-7 7,-1 7,0 2,-7 1,-7 8,-7l1 -7 8 1c1,2 1,2 2,5 -2,2 -3,3 -6,4l3 1 1 7c5,-1 6,-2 11,-1 2,2 1,0 3,4 5,-1 5,-2 11,-2l2 3c5,-7 7,-3 9,-1 0,0 2,-2 2,-3 0,0 1,0 1,0l2 -1c0,-1 0,0 1,-1 -4,-2 -4,-1 -4,-6 3,-1 2,-1 5,-1 3,-1 1,-1 4,0 6,3 0,4 6,7 0,0 -1,-2 -1,-2l-1 -3c-2,1 -2,1 -1,-1 -1,-2 -1,-1 -2,-2 -1,-3 0,0 -1,-3 -1,-4 0,-2 -3,-5 -4,-4 -2,-1 -7,-3 -5,-2 -2,-2 -8,-2 -7,1 -4,0 -6,2 -2,2 1,0 -2,2l-2 -6c-5,-1 -7,0 -9,3 -6,5 -6,0 -9,4 -1,-3 -1,-3 -4,-5 -2,-1 -1,0 -2,-1l-2 -2c0,0 0,0 -1,-1l-5 -4 0 0c-2,0 -2,1 -1,-2 -2,0 -2,3 -1,-1l-1 -2 -6 -1c1,4 0,2 2,5l-4 0 1 -5c-8,6 1,7 -6,7l1 1 -9 0c-4,8 -16,-2 -16,-2l1 -4c-3,-1 -3,-2 -6,-4 0,5 0,4 1,7 -5,0 -1,1 -3,-2 -1,-3 3,-4 -2,-3l1 0c-3,2 -8,4 -12,4 0,1 0,1 -1,3 -1,3 -1,2 -5,4 -2,2 0,1 -3,2 -4,-10 -5,-9 -10,-10 1,-4 3,-6 2,-11l-6 -1c1,-6 0,-4 -3,-8l-1 0c-4,-1 -6,-3 -9,-5 1,-4 2,-3 4,-6l-4 -3 -2 0 0 14 -5 0c-3,2 0,1 -5,1 0,0 0,0 -1,0l-8 3c0,-1 -1,-1 -1,-1 0,0 0,-1 0,-1 -3,-4 -5,-3 -6,-5 0,0 0,0 0,0 -4,-2 -2,-4 -1,-6 -4,-1 -2,0 -4,-2 -3,-3 1,-2 -3,-3 -3,-1 -2,2 -3,-2 4,3 1,2 4,5l5 4c-5,4 -7,1 -17,-1 -1,1 -2,2 -3,3 -10,-2 -6,-2 -11,-3 0,-3 1,-10 5,-10l4 0c12,3 10,-1 13,2 -1,-6 0,-1 1,-3l3 -7c-8,-2 -16,-2 -23,-4 -1,3 -2,5 -5,6l-11 -6c0,-13 -4,-12 -13,-13 -3,0 -3,0 -4,0 0,-1 -1,-1 -1,-1l-3 1c-1,3 -1,2 0,6l1 2 1 3 2 2 0 2c-1,1 0,0 -2,1 -1,3 0,1 -1,4l-4 0 -2 -2 0 -7c-1,-1 0,-1 -2,-2 -1,0 0,0 -2,0l1 -2 -1 -2 -1 -1 -1 -3c-2,0 -2,1 -2,-1 -5,-1 -7,1 -10,4 -3,-2 -2,0 -7,1 0,-1 0,-1 -1,-2 -1,-3 0,-2 -11,-2 -6,-1 -2,-2 -8,-4l-3 3c-3,2 -2,2 -2,4l-1 6c4,9 3,3 5,7 -2,2 -3,5 -6,6 -3,2 1,-2 -6,4 -2,-1 -3,-3 -5,-5 -5,2 -3,2 -10,2 1,7 1,1 -2,6 -2,4 1,1 -2,4 0,0 -2,1 -3,2 -1,0 -4,0 -6,0 -5,0 -1,-1 -4,-1 -5,-1 -7,1 -10,3 -1,16 -1,2 1,13 1,5 -1,3 0,7 0,3 2,1 1,4l-2 -4c0,-2 -1,-4 -1,-6 -11,2 1,4 -10,7 0,-1 -1,-1 -1,-1 0,0 0,-1 0,-1 0,0 0,-1 0,-1 -2,-3 -1,-2 -5,-5 -4,-3 -2,-4 -5,-7 -28,-18 19,12 -23,9l0 2 -2 -1 0 -1c-2,-2 -1,-1 -1,-3 -2,1 -2,1 -2,-1l-1 0 -1 0 -5 -1c-2,-1 -2,-1 -3,-2 -3,1 -2,1 -4,3 -1,11 1,3 2,9 2,9 -4,11 -5,11 -3,-1 -13,2 -16,4l-11 -4c0,5 1,8 -1,12 0,-1 0,-1 -1,-3 0,0 0,-2 0,-3 -12,-3 -1,-5 -14,-8 -6,-1 -9,-2 -16,0 0,2 0,1 -2,0 -2,5 -2,5 -7,7 2,4 1,3 1,7 -15,-2 -9,-4 -20,4 -6,3 -7,14 -9,21l-6 -1 -7 6c0,3 0,2 1,4 3,-1 3,-2 5,0l4 4c-2,5 -5,3 -3,8l9 -1c2,1 3,2 4,3l1 3c3,4 2,5 11,4 0,2 0,1 0,3 1,2 1,3 -2,4l-10 3c0,7 2,9 9,9 2,5 2,2 4,6l4 0c2,9 1,0 7,7l2 -1 6 0c1,6 -1,5 1,10l4 0c1,3 -1,10 0,13 1,5 1,3 4,4 2,0 1,-1 3,2 3,-1 2,-1 5,0 -1,1 -1,1 -2,2l0 3c-3,4 -3,9 0,13 3,3 3,6 4,11 -6,4 -3,7 -6,16 2,2 3,4 4,8 3,0 8,-1 11,0 2,1 0,1 4,2 3,1 4,0 6,0l1 -6c4,7 0,6 8,9l-2 4c0,4 -1,2 1,4 1,-3 3,-7 5,-11 4,-10 2,-8 6,-8 -3,3 -11,19 -10,27 0,5 2,5 5,7 -5,15 -3,4 -1,16 -5,3 -5,2 -6,5 0,1 -1,7 -2,8 7,5 3,2 6,10 3,7 4,4 9,9l8 -1 1 -1 2 0 6 1c9,0 10,3 11,7 1,3 1,1 2,3 2,3 0,3 3,4 -3,14 -1,14 9,21l11 -2c-2,3 -3,3 -7,5 0,3 0,6 0,8 -1,6 13,13 16,3 5,4 4,7 11,8l3 -20c1,1 1,0 1,4l-2 14c0,0 0,1 0,1l4 4c3,3 3,4 7,4 0,-5 0,-8 0,-13 0,-2 0,-4 0,-6 1,-4 1,-2 2,-3l0 22 9 1c-2,3 -2,1 -3,5 3,4 3,1 4,8 -11,4 -2,11 3,10 1,-1 1,-3 5,-4 -2,4 -3,5 0,9 -3,2 -4,2 -3,7 1,7 -1,8 1,10 1,1 5,1 6,0 2,-2 0,-1 1,-3l0 -3c4,3 0,-1 3,4 2,1 2,1 3,3 2,4 0,2 4,7l5 0 0 5c5,2 3,-1 5,5 5,-1 2,3 13,1 1,3 1,2 2,5l-3 2c-1,6 3,14 7,17 6,2 12,2 16,-1 5,-6 -1,-16 1,-21 2,2 1,1 2,11l8 -3c6,2 0,1 6,2 4,-5 0,-5 -1,-6 -2,-1 0,1 -1,-2l9 3c2,-3 2,-3 5,-3 3,-7 6,-5 9,-10l3 -13c-3,-2 -9,-4 -7,-9 0,-1 4,-9 7,-11l-1 -4c4,-1 4,-1 3,-6l5 1c2,-3 1,-2 4,-3 1,-4 0,-5 -1,-10l-4 -1 2 -6c-1,-5 -4,-10 -1,-13 3,3 2,7 4,11 0,-1 -2,-1 1,-2 5,-1 3,0 5,2l-6 1c3,6 1,12 5,16zm-67 -21c1,0 2,1 3,3 0,1 0,1 -1,2 -2,-1 -3,0 -2,-5zm227 -232c0,-5 0,-7 1,-10l4 -1c2,1 6,6 7,8 -6,2 -3,2 -12,3zm-55 -28c4,-4 10,-2 11,3 2,10 -8,5 -12,4l1 -7zm-292 -7c-7,-2 -8,0 -7,-6 -5,-1 -3,0 -3,-4 3,-2 5,-1 9,-3 1,5 2,2 2,10 0,0 0,0 0,1l-1 1c0,0 0,1 0,1zm232 -11c-2,2 -1,1 -3,4 -3,-2 -2,1 -2,-4 -2,0 -10,2 -5,-10 2,0 -1,-2 9,-1l1 11zm-335 0c-2,-1 -2,-1 -3,-3l0 -5c6,-2 9,1 10,8l-4 2c2,1 3,-1 3,4 -1,6 -7,7 -13,7 -4,-6 -3,-8 0,-12l7 -1zm157 -7c-1,-19 23,-16 9,-1l-9 1zm156 -10c-5,2 -5,1 -7,-2 -1,0 -2,0 -2,-1 0,0 0,0 -1,-1 7,-6 5,-5 9,-6 0,1 1,1 1,3 0,1 0,2 0,2 0,2 0,3 0,5zm-26 -19c-14,-15 17,-18 5,0l-5 0zm-137 2l2 4c-7,0 -3,2 -5,-2 -1,-2 -1,-3 -2,-5l2 -8c2,0 4,-1 6,-3l6 2 1 5c0,2 0,1 0,4l-10 3zm50 -12c3,-1 1,1 5,-1l2 -1c1,4 -1,3 5,3l0 4c2,1 1,0 3,3 -14,3 -2,4 -16,4 -1,-4 -1,-9 1,-12zm140 10c-3,-10 -4,-4 -5,-11l5 1c0,4 -1,3 1,7 2,-5 2,-3 1,-7l5 0c-2,6 -5,6 -4,15l-6 0 3 -5zm-17 1c0,-8 1,-7 -1,-15 6,1 3,-1 5,4 4,-1 5,0 8,1 2,12 -4,10 -12,10zm-85 -32c1,-4 -1,-1 3,-4 5,-3 5,-2 7,-2l2 1c0,0 0,0 0,0l3 2c0,-1 1,0 1,0l-3 8c3,-2 4,-3 7,-1 2,1 1,0 2,2 -1,6 -2,5 -9,4l0 -5c-8,-1 -10,1 -13,-5zm-28 -9c-1,-3 -3,-9 1,-11 3,-1 7,6 7,6 1,8 -1,7 -8,5z"/>
  <path class="fil1" d="M421 141c2,25 27,67 48,82 30,21 47,16 69,25 7,2 19,19 21,26 1,1 0,0 2,3 0,1 0,2 1,3 2,6 4,17 1,23l-10 49c2,-2 12,-10 14,-12 7,-19 11,-43 5,-63 -2,-3 -3,-5 -4,-8l-4 -7c0,-1 0,-1 -1,-1 0,-1 0,-1 0,-2l-14 -16c9,-22 24,-41 30,-69 17,-69 -41,-121 -97,-146 -10,-5 -25,-13 -35,-15 4,46 -33,77 -26,128z"/>
  <path class="fil1" d="M751 111l-2 1c0,0 -11,3 -34,10l-8 1 -3 2c-6,2 3,0 -10,2 -6,1 -13,6 -19,9 -4,2 -10,8 -16,11 -6,7 -5,6 -15,16 -4,2 -12,15 -15,20 -4,7 -8,15 -10,23 -8,25 -4,37 -2,62l4 21 2 12c1,2 0,0 3,1 6,-19 177,-197 162,-195 -6,1 -19,0 -37,4z"/>
  <path class="fil1" d="M514 417c9,-63 20,-66 -65,-105l-2 0c-13,-5 -27,-8 -47,-11l-29 -1 -27 2c1,3 1,2 3,4 2,2 2,3 3,4l2 1 1 1 1 1 1 1 1 1 1 1 1 1c17,18 15,28 21,58 3,11 6,19 10,28 5,11 11,14 19,21 5,2 7,4 12,5 4,2 8,3 13,5 9,2 20,2 30,1l3 0c8,-2 14,-2 22,-6 7,-2 12,-6 20,-7 1,2 11,16 12,18 1,0 4,3 4,2 0,-1 1,-6 -1,-10 -2,-6 -8,-13 -9,-15z"/>
  <path class="fil1" d="M603 330l10 -8c2,-3 4,-4 8,-6 3,-2 4,-3 8,-5l6 -1c25,-2 64,-14 84,-30 1,-1 3,-2 5,-3 7,-4 14,-12 19,-18 2,-2 4,-3 5,-5 2,-2 2,-3 4,-5 1,-2 3,-4 4,-6 15,-19 32,-114 34,-136 -43,42 -162,160 -188,214l1 9z"/>
  <path class="fil2" d="M558 521c-12,-39 -19,-84 -1,-122 2,-6 9,-18 11,-24 2,-4 4,-7 6,-11 -4,-1 -5,-1 -7,-1 -3,2 -6,6 -9,9 0,0 4,-15 5,-16l4 -16c-2,1 -12,10 -14,12l-1 3c-7,27 -14,51 -17,79l0 21c-12,-14 -10,-34 -15,-15 -2,-6 -1,-5 0,0 2,6 3,5 5,10 4,7 8,20 10,28 3,8 6,16 8,25 1,6 2,9 4,14 1,4 6,22 10,27 5,6 11,-1 9,-4 0,-1 -6,-15 -8,-19z"/>
  <path class="fil3" d="M643 287c1,1 0,2 0,3 4,0 30,-23 34,-28 21,4 28,4 36,3 -3,0 -23,-1 -33,-6 4,-2 27,-26 28,-29 13,6 30,11 42,12 -10,-3 -32,-10 -39,-14 6,-8 14,-17 19,-25 4,-5 3,-4 6,-10 16,0 20,1 37,-7 -15,7 -24,5 -35,5 9,-8 29,-46 34,-69 -10,23 -22,46 -37,68 -2,4 -5,7 -8,11 -1,-3 -4,-4 -6,-8 -8,-15 -8,-27 -11,-30 1,10 8,35 15,41 -5,7 -10,13 -16,20 -3,4 -7,9 -11,12 -12,-11 -13,-31 -18,-36l6 23 10 16c-15,17 -16,17 -25,26l-13 -26c-3,-8 -7,-28 -9,-31 1,11 3,22 7,32 3,12 8,19 13,27 -3,3 -25,21 -26,20z"/>
  <path class="fil4" d="M820 620l-2 -1c0,0 1,2 1,2 -6,-3 0,-4 -6,-7 -3,-1 -1,-1 -4,0 -3,0 -2,0 -5,1 0,5 0,4 4,6 -1,1 -1,0 -1,1l-2 1c0,0 -1,0 -1,0 0,1 -2,3 -2,3 -2,-2 -4,-6 -9,1l-2 -3c-6,0 -6,1 -11,2 -2,-4 -1,-2 -3,-4 -5,-1 -6,0 -11,1l-1 -7 -3 -1c3,-1 4,-2 6,-4 -1,-3 -1,-3 -2,-5l-8 -1 -1 7c-7,0 -6,0 -8,7 0,-1 -4,-7 -7,0 0,2 1,1 -1,4 -4,-2 -6,-4 -10,-3 -4,2 -2,2 -3,2 0,4 1,6 3,9 7,1 2,-1 7,-2 4,-1 3,1 8,2 4,1 3,-1 6,3 1,1 2,3 2,3 0,1 1,1 1,2 1,1 1,1 1,2l11 -8c3,2 8,1 12,2 5,2 7,4 13,0 4,3 4,2 11,3l3 -3c1,0 4,-1 5,-2 1,5 5,6 12,6 5,-6 1,-1 8,-3l1 -6c0,0 -1,-1 -1,-1 0,0 0,0 0,-1l-3 -4c-2,-3 -2,-2 -6,-1 -1,-1 -2,-3 -2,-3zm-4 -5c-1,2 -1,2 1,1l-1 -1z"/>
  <path class="fil4" d="M609 928c2,1 1,-2 1,3 1,12 -15,31 -11,40 2,-2 1,0 2,-4 1,-4 3,-13 7,-17l0 12c-2,1 -3,1 -4,2 1,5 0,3 2,6 0,0 0,0 0,0 1,0 1,1 1,1l-1 6c4,-2 0,1 3,-4 1,-2 2,-2 3,-3 4,-10 2,-8 -2,-12 0,-6 -1,-12 0,-17 1,-3 2,-4 2,-7 0,-3 -1,-8 2,-8 -4,-4 -2,-10 -5,-16l6 -1c-2,-2 0,-3 -5,-2 -3,1 -1,1 -1,2 -2,-4 -1,-8 -4,-11 -3,3 0,8 1,13l-2 6 4 1c1,5 2,6 1,10z"/>
  <path class="fil4" d="M621 555c-2,-3 -1,-1 -2,-5 -1,2 -2,-3 -1,3 -3,-3 -1,1 -13,-2l-4 0c-4,0 -5,7 -5,10 5,1 1,1 11,3 1,-1 2,-2 3,-3 10,2 12,5 17,1l-5 -4c-3,-3 0,-2 -4,-5 1,4 0,1 3,2z"/>
  <path class="fil4" d="M321 619l0 5c1,2 1,2 3,3l-7 1c-3,4 -4,6 0,12 6,0 12,-1 13,-7 0,-5 -1,-3 -3,-4l4 -2c-1,-7 -4,-10 -10,-8z"/>
  <path class="fil0" d="M573 1007c2,-9 -3,-9 -11,-8l5 13c-3,-2 -2,-2 -4,-5 -1,2 0,-3 -2,2 0,2 0,3 0,4 0,3 0,5 1,7 6,2 8,2 11,-13z"/>
  <path class="fil0" d="M558 765c-3,-2 -5,-5 -10,-3 -4,1 -6,6 -5,11 2,6 16,8 15,-8z"/>
  <path class="fil4" d="M631 560l0 4 -1 -1c0,2 0,1 -1,3 0,0 0,0 0,0 1,2 3,1 6,5 0,0 0,1 0,1 0,0 1,0 1,1l8 -3c1,0 1,0 1,0 5,0 2,1 5,-1l-4 0 0 -8 -4 -4 -11 3z"/>
  <path class="fil4" d="M562 560c3,6 5,4 13,5l0 5c7,1 8,2 9,-4 -1,-2 0,-1 -2,-2 -3,-2 -4,-1 -7,1l3 -8c0,0 -1,-1 -1,0l-3 -2c0,0 0,0 0,0l-2 -1c-2,0 -2,-1 -7,2 -4,3 -2,0 -3,4z"/>
  <path class="fil4" d="M419 596l4 4c0,0 0,0 0,0 5,0 6,-1 9,-3 6,0 11,2 9,-5l-5 0 -1 -2 -1 0c-4,3 -7,2 -11,-1l1 -5 -2 0c-2,6 0,7 -3,12z"/>
  <path class="fil4" d="M471 582l-2 8c1,2 1,3 2,5 2,4 -2,2 5,2l-2 -4 10 -3c0,-3 0,-2 0,-4l-1 -5 -6 -2c-2,2 -4,3 -6,3z"/>
  <path class="fil4" d="M524 581c-2,3 -2,8 -1,12 14,0 2,-1 16,-4 -2,-3 -1,-2 -3,-3l0 -4c-6,0 -4,1 -5,-3l-2 1c-4,2 -2,0 -5,1z"/>
  <polygon class="fil0" points="646,561 646,569 650,570 656,570 656,555 656,554 646,551 "/>
  <path class="fil1" d="M726 120l-2 1c1,4 3,6 6,7 6,1 7,-2 10,-4l-1 -8 -13 4z"/>
  <path class="fil0" d="M523 984c-7,0 -9,5 -9,10 11,7 17,0 9,-10z"/>
  <path class="fil1" d="M574 364c1,-1 7,-9 8,-11l21 -23c1,-3 3,-8 -1,-9l-35 42c2,0 5,1 7,1z"/>
  <path class="fil4" d="M611 591l5 0c12,-18 -19,-15 -5,0z"/>
  <path class="fil0" d="M651 584c4,-1 6,2 5,5 -4,1 -2,1 -5,-1l0 -4zm-4 8c9,1 14,2 12,-10 -3,-2 -4,-3 -8,-1 -1,-5 1,-3 -5,-4 2,8 1,7 1,15z"/>
  <path class="fil4" d="M719 645l-1 7c4,1 14,6 12,-4 -1,-5 -7,-7 -11,-3z"/>
  <path class="fil4" d="M417 628c0,4 -2,3 3,4 -1,6 0,4 7,6 0,0 0,-1 0,-1l1 -1c0,-1 0,-1 0,-1 0,-8 -1,-5 -2,-10 -4,2 -6,1 -9,3z"/>
  <path class="fil0" d="M618 944c9,0 9,-3 6,-10l-7 0c-4,6 -2,7 1,10z"/>
  <path class="fil4" d="M534 551c7,2 9,3 8,-5 0,0 -4,-7 -7,-6 -4,2 -2,8 -1,11z"/>
  <path class="fil4" d="M774 673c9,-1 6,-1 12,-3 -1,-2 -5,-7 -7,-8l-4 1c-1,3 -1,5 -1,10z"/>
  <path class="fil0" d="M408 877l1 2c3,0 6,-1 7,-4 1,-3 0,-6 -1,-8l-6 1c-2,3 -1,4 -1,9z"/>
  <path class="fil0" d="M662 591l-2 5 8 1c-1,-9 2,-10 4,-16l-6 -1c1,5 1,2 -1,7 -2,-4 -1,-3 0,-6l-6 -1c1,6 0,1 3,11z"/>
  <path class="fil0" d="M734 793l1 1 1 0 2 1c5,0 3,0 5,-3 0,-3 -1,-4 -3,-6l-5 0 -3 3 2 4z"/>
  <path class="fil5" d="M655 527c-8,-5 -14,5 -4,8 4,-1 6,-2 4,-8z"/>
  <path class="fil0" d="M631 560l11 -3 4 4 0 -10c-7,1 -4,2 -9,5 -3,2 -7,0 -6,4zm-1 3l1 1 -1 -1z"/>
  <path class="fil0" d="M504 984c2,-1 3,-2 2,-8 0,-5 0,-5 -4,-7 -2,3 -3,15 2,15z"/>
  <path class="fil4" d="M627 606c1,1 1,1 1,1 0,1 1,1 2,1 2,3 2,4 7,2 0,-2 0,-3 0,-5 0,0 0,-1 0,-2 0,-2 -1,-2 -1,-3 -4,1 -2,0 -9,6z"/>
  <path class="fil0" d="M528 1033c-7,-2 -15,8 1,7 0,-5 1,-4 -1,-7z"/>
  <path class="fil0" d="M537 1015c2,2 0,1 5,2 2,-3 3,-3 3,-7 -5,-1 -9,-1 -8,5z"/>
  <path class="fil0" d="M537 1021c-9,1 -8,8 -2,10 3,-3 3,-5 2,-10z"/>
  <path class="fil0" d="M666 569c-1,-4 -1,-2 -2,-6 -1,-1 -1,-3 -2,-5l-2 0c-2,3 -2,2 -4,6 3,2 6,4 10,5z"/>
  <path class="fil4" d="M419 585l0 -1c-2,-1 -3,-1 -5,-1 -2,3 -2,3 -1,6 5,1 6,2 6,-4z"/>
  <path class="fil4" d="M651 584l-1 4c3,3 2,2 7,2 0,-4 -2,-10 -6,-6z"/>
  <path class="fil0" d="M565 807c2,-1 3,0 3,-5 -1,-4 -1,-3 -4,-4 -3,8 0,8 1,9z"/>
  <path class="fil0" d="M399 589c3,2 3,2 5,0 3,-8 -7,-8 -5,0z"/>
  <path class="fil3" d="M550 908c-1,-2 -2,-3 -3,-3 -1,5 0,4 2,5 1,-1 1,-1 1,-2z"/>
  <path class="fil4" d="M659 880c4,2 1,-2 2,4 1,17 -23,43 -16,56 1,-3 1,-1 2,-5 2,-7 4,-18 11,-24l0 17c-3,1 -4,1 -7,2 2,7 1,4 4,8 0,0 1,1 1,1 0,0 0,0 0,1l-2 8c7,-3 1,2 5,-5 2,-3 5,-3 6,-4 6,-14 3,-11 -3,-18 0,-7 -2,-15 0,-23 1,-3 2,-5 2,-9 1,-4 -1,-11 3,-11 -5,-5 -3,-14 -7,-22l10 -1c-4,-3 -1,-4 -8,-3 -6,1 -2,1 -2,2 -3,-6 -2,-11 -7,-14 -4,4 0,11 2,17l-4 8 8 2c1,7 2,9 0,13z"/>
  <path class="fil4" d="M472 911c3,2 2,-2 1,4 -4,15 -36,41 -33,52 2,-2 1,0 4,-4 4,-6 9,-18 18,-23l-5 16c-4,1 -5,1 -7,2 -1,7 -1,4 0,8 1,0 1,1 1,1 0,-1 0,0 0,0l-4 8c7,-2 0,2 6,-5 3,-2 5,-3 7,-4 10,-12 6,-10 2,-16 3,-7 3,-15 8,-22 1,-3 3,-5 5,-9 1,-4 2,-10 5,-10 -3,-5 2,-13 0,-21l10 -1c-2,-3 1,-4 -7,-3 -5,1 -2,2 -2,2 -1,-5 1,-10 -2,-14 -5,5 -4,11 -3,17l-7 8 6 2c0,6 1,8 -3,12z"/>
  <path class="fil4" d="M381 808c-5,2 -2,-2 -3,5 -2,18 32,47 22,61 -2,-2 -1,0 -3,-5 -2,-8 -6,-21 -15,-27l0 18c4,2 6,2 9,3 -1,8 0,5 -5,9 0,0 -1,1 -1,1 0,0 -1,1 0,1l2 9c-9,-3 -1,2 -7,-6 -2,-3 -6,-3 -7,-4 -9,-15 -4,-12 4,-19 0,-9 2,-18 0,-26 -2,-4 -3,-6 -4,-10 0,-5 2,-12 -3,-12 7,-6 4,-16 10,-25l-14 -1c5,-4 0,-5 11,-3 8,0 2,1 3,2 3,-6 3,-12 9,-16 5,5 0,12 -3,19l5 10 -10 2c-2,7 -3,9 0,14z"/>
  <path class="fil4" d="M551 858c5,2 2,-3 2,5 3,20 -34,53 -24,68 2,-2 2,0 4,-6 2,-8 6,-22 16,-30l0 21c-4,2 -7,2 -10,4 2,8 1,4 5,9 0,1 1,2 1,1 1,0 1,1 1,1l-3 11c11,-4 1,2 8,-7 2,-3 6,-3 8,-5 10,-17 5,-13 -4,-21 0,-10 -3,-20 0,-29 1,-4 3,-7 3,-11 1,-5 -1,-14 5,-13 -8,-7 -5,-18 -11,-28l14 -1c-5,-4 0,-5 -12,-4 -8,1 -2,2 -2,3 -4,-7 -4,-14 -10,-18 -6,5 -1,14 3,21l-6 11 11 2c2,8 4,10 1,16z"/>
  <path class="fil6" d="M731 824c6,2 2,-3 4,5 5,22 -30,69 -17,84 2,-4 2,-1 3,-8 2,-10 3,-27 13,-38l3 24c-5,2 -7,4 -10,6 3,9 1,5 7,9 0,1 1,2 1,1 0,0 1,1 1,1l-2 13c11,-7 1,2 7,-10 3,-4 7,-6 8,-8 8,-21 4,-16 -7,-23 -1,-10 -5,-21 -4,-32 1,-5 3,-8 3,-13 0,-6 -4,-15 2,-16 -9,-6 -7,-19 -15,-29l16 -5c-7,-3 -1,-6 -13,-1 -9,3 -3,3 -3,3 -5,-6 -5,-14 -13,-17 -5,8 2,16 6,23l-5 14 12 0c4,8 6,10 3,17z"/>
  <path class="fil4" d="M580 688c-5,11 3,9 5,9 0,5 -1,3 2,4 2,-3 0,-2 3,-4l-1 -11c-10,-1 -7,1 -9,2z"/>
  <path class="fil0" d="M614 926c9,2 7,-2 12,-4l0 -9c-3,-2 -1,-1 -3,-3l5 3c0,2 -2,0 0,5l10 3 1 -4c7,0 10,-1 13,-5l0 -15c-2,-2 -2,-3 -5,-4 11,0 15,-5 14,-15l-1 -1 -1 -3 2 -1 -6 -21c0,0 -2,-3 -2,-3 -2,-7 -1,-1 2,-4 1,9 7,19 9,30 10,1 6,-3 14,-1 3,-3 2,-2 6,-2 9,-1 6,0 13,-6 0,0 -1,-5 -1,-6 -2,-5 -3,-5 -5,-5 5,-4 0,-2 2,-11 -4,0 -3,0 -6,-3 0,0 -1,0 -1,0 0,-1 0,-1 0,-1 6,-3 6,7 15,0 2,-1 1,-3 2,-6 15,-4 3,-8 7,-17 2,3 2,8 2,13l3 -3c1,-1 1,0 2,-1 -1,-6 -3,-7 1,-11 3,-1 5,-2 7,-3l1 -4c4,-14 -4,-2 2,-14 1,-2 1,-3 1,-5 -1,-4 -3,-3 -3,-8l9 -2 8 -3c0,-8 2,-11 2,-17 6,0 2,0 7,-4 -1,-7 2,-6 -2,-12 1,-3 0,0 2,-1l5 0 1 -4c1,-7 2,-5 3,-10 3,1 7,1 11,-1 3,-2 2,-5 2,-12 8,-7 8,-9 4,-20 5,-3 4,1 9,-2 3,-3 2,-4 6,-6l-1 -5c13,2 10,2 24,-4 1,-5 2,-6 4,-10 1,-5 3,-5 8,-6 1,-1 5,-3 5,-3 4,-2 3,0 8,-3 0,-1 2,-13 2,-15 0,-3 -1,-7 -2,-10 0,-2 -3,-5 -4,-6 -5,-8 -11,-4 -17,-5 0,0 1,2 2,3 4,-1 4,-2 6,1l3 4c0,1 0,1 0,1 0,0 1,1 1,1l-1 6c-7,2 -3,-3 -8,3 -7,0 -11,-1 -12,-6 -1,1 -4,2 -5,2l-3 3c-7,-1 -7,0 -11,-3 -6,4 -8,2 -13,0 -4,-1 -9,0 -12,-2l-11 8c0,-1 0,-1 -1,-2 0,-1 -1,-1 -1,-2 0,0 -1,-2 -2,-3 -3,-4 -2,-2 -6,-3 -5,-1 -4,-3 -8,-2 -5,1 0,3 -7,2 -2,-3 -3,-5 -3,-9 1,0 -1,0 3,-2 4,-1 6,1 10,3 2,-3 1,-2 1,-4 3,-7 7,-1 7,0 2,-7 1,-7 8,-7l1 -7 8 1c1,2 1,2 2,5 -2,2 -3,3 -6,4l3 1 1 7c5,-1 6,-2 11,-1 2,2 1,0 3,4 5,-1 5,-2 11,-2l2 3c5,-7 7,-3 9,-1 0,0 2,-2 2,-3 0,0 1,0 1,0l2 -1c0,-1 0,0 1,-1 -4,-2 -4,-1 -4,-6 3,-1 2,-1 5,-1 3,-1 1,-1 4,0 6,3 0,4 6,7 0,0 -1,-2 -1,-2l-1 -3c-2,1 -2,1 -1,-1 -1,-2 -1,-1 -2,-2 -1,-3 0,0 -1,-3 -1,-4 0,-2 -3,-5 -4,-4 -2,-1 -7,-3 -5,-2 -2,-2 -8,-2 -7,1 -4,0 -6,2 -2,2 1,0 -2,2l-2 -6c-5,-1 -7,0 -9,3 -6,5 -6,0 -9,4 -1,-3 -1,-3 -4,-5 -2,-1 -1,0 -2,-1l-2 -2c0,0 0,0 -1,-1l-5 -4 0 0c-2,0 -2,1 -1,-2 -2,0 -2,3 -1,-1l-1 -2 -6 -1c1,4 0,2 2,5l-4 0 1 -5c-8,6 1,7 -6,7l1 1 -9 0c-4,8 -16,-2 -16,-2l1 -4c-3,-1 -3,-2 -6,-4 0,5 0,4 1,7 -5,0 -1,1 -3,-2 -1,-3 3,-4 -2,-3l1 0c-3,2 -8,4 -12,4 0,1 0,1 -1,3 -1,3 -1,2 -5,4 -2,2 0,1 -3,2 -4,-10 -5,-9 -10,-10 1,-4 3,-6 2,-11l-6 -1c1,-6 0,-4 -3,-8l-1 0c-4,-1 -6,-3 -9,-5 1,-4 2,-3 4,-6l-4 -3 -2 0 0 14 -5 0c-3,2 0,1 -5,1 0,0 0,0 -1,0l-8 3c0,-1 -1,-1 -1,-1 0,0 0,-1 0,-1 -3,-4 -5,-3 -6,-5 0,0 0,0 0,0 -4,-2 -2,-4 -1,-6 -4,-1 -2,0 -4,-2 -3,-3 1,-2 -3,-3 -3,-1 -2,2 -3,-2 4,3 1,2 4,5l5 4c-5,4 -7,1 -17,-1 -1,1 -2,2 -3,3 -10,-2 -6,-2 -11,-3 0,-3 1,-10 5,-10l4 0c12,3 10,-1 13,2 -1,-6 0,-1 1,-3l3 -7c-8,-2 -16,-2 -23,-4 -1,3 -2,5 -5,6l-11 -6c0,-13 -4,-12 -13,-13 -3,0 -3,0 -4,0 0,-1 -1,-1 -1,-1l-3 1c-1,3 -1,2 0,6l1 2 1 3 2 2 0 2c-1,1 0,0 -2,1 -1,3 0,1 -1,4l-4 0 -2 -2 0 -7c-1,-1 0,-1 -2,-2 -1,0 0,0 -2,0l1 -2 -1 -2 -1 -1 -1 -3c-2,0 -2,1 -2,-1 -5,-1 -7,1 -10,4 -3,-2 -2,0 -7,1 0,-1 0,-1 -1,-2 -1,-3 0,-2 -11,-2 -6,-1 -2,-2 -8,-4l-3 3c-3,2 -2,2 -2,4l-1 6c4,9 3,3 5,7 -2,2 -3,5 -6,6 -3,2 1,-2 -6,4 -2,-1 -3,-3 -5,-5 -5,2 -3,2 -10,2 1,7 1,1 -2,6 -2,4 1,1 -2,4 0,0 -2,1 -3,2 -1,0 -4,0 -6,0 -5,0 -1,-1 -4,-1 -5,-1 -7,1 -10,3 -1,16 -1,2 1,13 1,5 -1,3 0,7 0,3 2,1 1,4l-2 -4c0,-2 -1,-4 -1,-6 -11,2 1,4 -10,7 0,-1 -1,-1 -1,-1 0,0 0,-1 0,-1 0,0 0,-1 0,-1 -2,-3 -1,-2 -5,-5 -4,-3 -2,-4 -5,-7 -28,-18 19,12 -23,9l0 2 -2 -1 0 -1c-2,-2 -1,-1 -1,-3 -2,1 -2,1 -2,-1l-1 0 -1 0 -5 -1c-2,-1 -2,-1 -3,-2 -3,1 -2,1 -4,3 -1,11 1,3 2,9 2,9 -4,11 -5,11 -3,-1 -13,2 -16,4l-11 -4c0,5 1,8 -1,12 0,-1 0,-1 -1,-3 0,0 0,-2 0,-3 -12,-3 -1,-5 -14,-8 -6,-1 -9,-2 -16,0 0,2 0,1 -2,0 -2,5 -2,5 -7,7 2,4 1,3 1,7 -15,-2 -9,-4 -20,4 -6,3 -7,14 -9,21l-6 -1 -7 6c0,3 0,2 1,4 3,-1 3,-2 5,0l4 4c-2,5 -5,3 -3,8l9 -1c2,1 3,2 4,3l1 3c3,4 2,5 11,4 0,2 0,1 0,3 1,2 1,3 -2,4l-10 3c0,7 2,9 9,9 2,5 2,2 4,6l4 0c2,9 1,0 7,7l2 -1 6 0c1,6 -1,5 1,10l4 0c1,3 -1,10 0,13 1,5 1,3 4,4 2,0 1,-1 3,2 3,-1 2,-1 5,0 -1,1 -1,1 -2,2l0 3c-3,4 -3,9 0,13 3,3 3,6 4,11 -6,4 -3,7 -6,16 2,2 3,4 4,8 3,0 8,-1 11,0 2,1 0,1 4,2 3,1 4,0 6,0l1 -6c4,7 0,6 8,9l-2 4c0,4 -1,2 1,4 1,-3 3,-7 5,-11 4,-10 2,-8 6,-8 -3,3 -11,19 -10,27 0,5 2,5 5,7 -5,15 -3,4 -1,16 -5,3 -5,2 -6,5 0,1 -1,7 -2,8 7,5 3,2 6,10 3,7 4,4 9,9l8 -1 1 -1 2 0 6 1c9,0 10,3 11,7 1,3 1,1 2,3 2,3 0,3 3,4 -3,14 -1,14 9,21l11 -2c-2,3 -3,3 -7,5 0,3 0,6 0,8 -1,6 13,13 16,3 5,4 4,7 11,8l3 -20c1,1 1,0 1,4l-2 14c0,0 0,1 0,1l4 4c3,3 3,4 7,4 0,-5 0,-8 0,-13 0,-2 0,-4 0,-6 1,-4 1,-2 2,-3l0 22 9 1c-2,3 -2,1 -3,5 3,4 3,1 4,8 -11,4 -2,11 3,10 1,-1 1,-3 5,-4 -2,4 -3,5 0,9 -3,2 -4,2 -3,7 1,7 -1,8 1,10 1,1 5,1 6,0 2,-2 0,-1 1,-3l0 -3c4,3 0,-1 3,4 2,1 2,1 3,3 2,4 0,2 4,7l5 0 0 5c5,2 3,-1 5,5 5,-1 2,3 13,1 1,3 1,2 2,5l-3 2c-1,6 3,14 7,17 6,2 12,2 16,-1 5,-6 -1,-16 1,-21 2,2 1,1 2,11l8 -3c6,2 0,1 6,2 4,-5 0,-5 -1,-6 -2,-1 0,1 -1,-2l9 3c2,-3 2,-3 5,-3 3,-7 6,-5 9,-10l3 -13c-3,-2 -9,-4 -7,-9 0,-1 4,-9 7,-11l-1 -4c4,-1 4,-1 3,-6l5 1c2,-3 1,-2 4,-3 1,-4 0,-5 -1,-10l-4 -1 2 -6c-1,-5 -4,-10 -1,-13 3,3 2,7 4,11 0,-1 -2,-1 1,-2 5,-1 3,0 5,2l-6 1c3,6 1,12 5,16zm-67 -21c1,0 2,1 3,3 0,1 0,1 -1,2 -2,-1 -3,0 -2,-5zm227 -232c0,-5 0,-7 1,-10l4 -1c2,1 6,6 7,8 -6,2 -3,2 -12,3zm-55 -28c4,-4 10,-2 11,3 2,10 -8,5 -12,4l1 -7zm-292 -7c-7,-2 -8,0 -7,-6 -5,-1 -3,0 -3,-4 3,-2 5,-1 9,-3 1,5 2,2 2,10 0,0 0,0 0,1l-1 1c0,0 0,1 0,1zm232 -11c-2,2 -1,1 -3,4 -3,-2 -2,1 -2,-4 -2,0 -10,2 -5,-10 2,0 -1,-2 9,-1l1 11zm-335 0c-2,-1 -2,-1 -3,-3l0 -5c6,-2 9,1 10,8l-4 2c2,1 3,-1 3,4 -1,6 -7,7 -13,7 -4,-6 -3,-8 0,-12l7 -1zm157 -7c-1,-19 23,-16 9,-1l-9 1zm156 -10c-5,2 -5,1 -7,-2 -1,0 -2,0 -2,-1 0,0 0,0 -1,-1 7,-6 5,-5 9,-6 0,1 1,1 1,3 0,1 0,2 0,2 0,2 0,3 0,5zm-26 -19c-14,-15 17,-18 5,0l-5 0zm-137 2l2 4c-7,0 -3,2 -5,-2 -1,-2 -1,-3 -2,-5l2 -8c2,0 4,-1 6,-3l6 2 1 5c0,2 0,1 0,4l-10 3zm50 -12c3,-1 1,1 5,-1l2 -1c1,4 -1,3 5,3l0 4c2,1 1,0 3,3 -14,3 -2,4 -16,4 -1,-4 -1,-9 1,-12zm140 10c-3,-10 -4,-4 -5,-11l5 1c0,4 -1,3 1,7 2,-5 2,-3 1,-7l5 0c-2,6 -5,6 -4,15l-6 0 3 -5zm-17 1c0,-8 1,-7 -1,-15 6,1 3,-1 5,4 4,-1 5,0 8,1 2,12 -4,10 -12,10zm-85 -32c1,-4 -1,-1 3,-4 5,-3 5,-2 7,-2l2 1c0,0 0,0 0,0l3 2c0,-1 1,0 1,0l-3 8c3,-2 4,-3 7,-1 2,1 1,0 2,2 -1,6 -2,5 -9,4l0 -5c-8,-1 -10,1 -13,-5zm-28 -9c-1,-3 -3,-9 1,-11 3,-1 7,6 7,6 1,8 -1,7 -8,5z"/>
  <path class="fil0" d="M614 926c9,2 7,-2 12,-4l0 -9c-3,-2 -1,-1 -3,-3l5 3c0,2 -2,0 0,5l10 3 1 -4c7,0 10,-1 13,-5l0 -15c-2,-2 -2,-3 -5,-4 11,0 15,-5 14,-15l-1 -1 -1 -3 2 -1 -6 -21c0,0 -2,-3 -2,-3 -2,-7 -1,-1 2,-4 1,9 7,19 9,30 10,1 6,-3 14,-1 3,-3 2,-2 6,-2 9,-1 6,0 13,-6 0,0 -1,-5 -1,-6 -2,-5 -3,-5 -5,-5 5,-4 0,-2 2,-11 -4,0 -3,0 -6,-3 0,0 -1,0 -1,0 0,-1 0,-1 0,-1 6,-3 6,7 15,0 2,-1 1,-3 2,-6 15,-4 3,-8 7,-17 2,3 2,8 2,13l3 -3c1,-1 1,0 2,-1 -1,-6 -3,-7 1,-11 3,-1 5,-2 7,-3l1 -4c4,-14 -4,-2 2,-14 1,-2 1,-3 1,-5 -1,-4 -3,-3 -3,-8l9 -2 8 -3c0,-8 2,-11 2,-17 6,0 2,0 7,-4 -1,-7 2,-6 -2,-12 1,-3 0,0 2,-1l5 0 1 -4c1,-7 2,-5 3,-10 3,1 7,1 11,-1 3,-2 2,-5 2,-12 8,-7 8,-9 4,-20 5,-3 4,1 9,-2 3,-3 2,-4 6,-6l-1 -5c13,2 10,2 24,-4 1,-5 2,-6 4,-10 1,-5 3,-5 8,-6 1,-1 5,-3 5,-3 4,-2 3,0 8,-3 0,-1 2,-13 2,-15 0,-3 -1,-7 -2,-10 0,-2 -3,-5 -4,-6 -5,-8 -11,-4 -17,-5 0,0 1,2 2,3 4,-1 4,-2 6,1l3 4c0,1 0,1 0,1 0,0 1,1 1,1l-1 6c-7,2 -3,-3 -8,3 -7,0 -11,-1 -12,-6 -1,1 -4,2 -5,2l-3 3c-7,-1 -7,0 -11,-3 -6,4 -8,2 -13,0 -4,-1 -9,0 -12,-2l-11 8c0,-1 0,-1 -1,-2 0,-1 -1,-1 -1,-2 0,0 -1,-2 -2,-3 -3,-4 -2,-2 -6,-3 -5,-1 -4,-3 -8,-2 -5,1 0,3 -7,2 -2,-3 -3,-5 -3,-9 1,0 -1,0 3,-2 4,-1 6,1 10,3 2,-3 1,-2 1,-4 3,-7 7,-1 7,0 2,-7 1,-7 8,-7l1 -7 8 1c1,2 1,2 2,5 -2,2 -3,3 -6,4l3 1 1 7c5,-1 6,-2 11,-1 2,2 1,0 3,4 5,-1 5,-2 11,-2l2 3c5,-7 7,-3 9,-1 0,0 2,-2 2,-3 0,0 1,0 1,0l2 -1c0,-1 0,0 1,-1 -4,-2 -4,-1 -4,-6 3,-1 2,-1 5,-1 3,-1 1,-1 4,0 6,3 0,4 6,7 0,0 -1,-2 -1,-2l-1 -3c-2,1 -2,1 -1,-1 -1,-2 -1,-1 -2,-2 -1,-3 0,0 -1,-3 -1,-4 0,-2 -3,-5 -4,-4 -2,-1 -7,-3 -5,-2 -2,-2 -8,-2 -7,1 -4,0 -6,2 -2,2 1,0 -2,2l-2 -6c-5,-1 -7,0 -9,3 -6,5 -6,0 -9,4 -1,-3 -1,-3 -4,-5 -2,-1 -1,0 -2,-1l-2 -2c0,0 0,0 -1,-1l-5 -4 0 0c-2,0 -2,1 -1,-2 -2,0 -2,3 -1,-1l-1 -2 -6 -1c1,4 0,2 2,5l-4 0 1 -5c-8,6 1,7 -6,7l1 1 -9 0c-4,8 -16,-2 -16,-2l1 -4c-3,-1 -3,-2 -6,-4 0,5 0,4 1,7 -5,0 -1,1 -3,-2 -1,-3 3,-4 -2,-3l1 0c-3,2 -8,4 -12,4 0,1 0,1 -1,3 -1,3 -1,2 -5,4 -2,2 0,1 -3,2 -4,-10 -5,-9 -10,-10 1,-4 3,-6 2,-11l-6 -1c1,-6 0,-4 -3,-8l-1 0c-4,-1 -6,-3 -9,-5 1,-4 2,-3 4,-6l-4 -3 -2 0 0 14 -5 0c-3,2 0,1 -5,1 0,0 0,0 -1,0l-8 3c0,-1 -1,-1 -1,-1 0,0 0,-1 0,-1 -3,-4 -5,-3 -6,-5 0,0 0,0 0,0 -4,-2 -2,-4 -1,-6 -4,-1 -2,0 -4,-2 -3,-3 1,-2 -3,-3 -3,-1 -2,2 -3,-2 4,3 1,2 4,5l5 4c-5,4 -7,1 -17,-1 -1,1 -2,2 -3,3 -10,-2 -6,-2 -11,-3 0,-3 1,-10 5,-10l4 0c12,3 10,-1 13,2 -1,-6 0,-1 1,-3l3 -7c-8,-2 -16,-2 -23,-4 -1,3 -2,5 -5,6l-11 -6c0,-13 -4,-12 -13,-13 -3,0 -3,0 -4,0 0,-1 -1,-1 -1,-1l-3 1c-1,3 -1,2 0,6l1 2 1 3 2 2 0 2c-1,1 0,0 -2,1 -1,3 0,1 -1,4l-4 0 -2 -2 0 -7c-1,-1 0,-1 -2,-2 -1,0 0,0 -2,0l1 -2 -1 -2 -1 -1 -1 -3c-2,0 -2,1 -2,-1 -5,-1 -7,1 -10,4 -3,-2 -2,0 -7,1 0,-1 0,-1 -1,-2 -1,-3 0,-2 -11,-2 -6,-1 -2,-2 -8,-4l-3 3c-3,2 -2,2 -2,4l-1 6c4,9 3,3 5,7 -2,2 -3,5 -6,6 -3,2 1,-2 -6,4 -2,-1 -3,-3 -5,-5 -5,2 -3,2 -10,2 1,7 1,1 -2,6 -2,4 1,1 -2,4 0,0 -2,1 -3,2 -1,0 -4,0 -6,0 -5,0 -1,-1 -4,-1 -5,-1 -7,1 -10,3 -1,16 -1,2 1,13 1,5 -1,3 0,7 0,3 2,1 1,4l-2 -4c0,-2 -1,-4 -1,-6 -11,2 1,4 -10,7 0,-1 -1,-1 -1,-1 0,0 0,-1 0,-1 0,0 0,-1 0,-1 -2,-3 -1,-2 -5,-5 -4,-3 -2,-4 -5,-7 -28,-18 19,12 -23,9l0 2 -2 -1 0 -1c-2,-2 -1,-1 -1,-3 -2,1 -2,1 -2,-1l-1 0 -1 0 -5 -1c-2,-1 -2,-1 -3,-2 -3,1 -2,1 -4,3 -1,11 1,3 2,9 2,9 -4,11 -5,11 -3,-1 -13,2 -16,4l-11 -4c0,5 1,8 -1,12 0,-1 0,-1 -1,-3 0,0 0,-2 0,-3 -12,-3 -1,-5 -14,-8 -6,-1 -9,-2 -16,0 0,2 0,1 -2,0 -2,5 -2,5 -7,7 2,4 1,3 1,7 -15,-2 -9,-4 -20,4 -6,3 -7,14 -9,21l-6 -1 -7 6c0,3 0,2 1,4 3,-1 3,-2 5,0l4 4c-2,5 -5,3 -3,8l9 -1c2,1 3,2 4,3l1 3c3,4 2,5 11,4 0,2 0,1 0,3 1,2 1,3 -2,4l-10 3c0,7 2,9 9,9 2,5 2,2 4,6l4 0c2,9 1,0 7,7l2 -1 6 0c1,6 -1,5 1,10l4 0c1,3 -1,10 0,13 1,5 1,3 4,4 2,0 1,-1 3,2 3,-1 2,-1 5,0 -1,1 -1,1 -2,2l0 3c-3,4 -3,9 0,13 3,3 3,6 4,11 -6,4 -3,7 -6,16 2,2 3,4 4,8 3,0 8,-1 11,0 2,1 0,1 4,2 3,1 4,0 6,0l1 -6c4,7 0,6 8,9l-2 4c0,4 -1,2 1,4 1,-3 3,-7 5,-11 4,-10 2,-8 6,-8 -3,3 -11,19 -10,27 0,5 2,5 5,7 -5,15 -3,4 -1,16 -5,3 -5,2 -6,5 0,1 -1,7 -2,8 7,5 3,2 6,10 3,7 4,4 9,9l8 -1 1 -1 2 0 6 1c9,0 10,3 11,7 1,3 1,1 2,3 2,3 0,3 3,4 -3,14 -1,14 9,21l11 -2c-2,3 -3,3 -7,5 0,3 0,6 0,8 -1,6 13,13 16,3 5,4 4,7 11,8l3 -20c1,1 1,0 1,4l-2 14c0,0 0,1 0,1l4 4c3,3 3,4 7,4 0,-5 0,-8 0,-13 0,-2 0,-4 0,-6 1,-4 1,-2 2,-3l0 22 9 1c-2,3 -2,1 -3,5 3,4 3,1 4,8 -11,4 -2,11 3,10 1,-1 1,-3 5,-4 -2,4 -3,5 0,9 -3,2 -4,2 -3,7 1,7 -1,8 1,10 1,1 5,1 6,0 2,-2 0,-1 1,-3l0 -3c4,3 0,-1 3,4 2,1 2,1 3,3 2,4 0,2 4,7l5 0 0 5c5,2 3,-1 5,5 5,-1 2,3 13,1 1,3 1,2 2,5l-3 2c-1,6 3,14 7,17 6,2 12,2 16,-1 5,-6 -1,-16 1,-21 2,2 1,1 2,11l8 -3c6,2 0,1 6,2 4,-5 0,-5 -1,-6 -2,-1 0,1 -1,-2l9 3c2,-3 2,-3 5,-3 3,-7 6,-5 9,-10l3 -13c-3,-2 -9,-4 -7,-9 0,-1 4,-9 7,-11l-1 -4c4,-1 4,-1 3,-6l5 1c2,-3 1,-2 4,-3 1,-4 0,-5 -1,-10l-4 -1 2 -6c-1,-5 -4,-10 -1,-13 3,3 2,7 4,11 0,-1 -2,-1 1,-2 5,-1 3,0 5,2l-6 1c3,6 1,12 5,16zm-67 -21c1,0 2,1 3,3 0,1 0,1 -1,2 -2,-1 -3,0 -2,-5zm227 -232c0,-5 0,-7 1,-10l4 -1c2,1 6,6 7,8 -6,2 -3,2 -12,3zm-55 -28c4,-4 10,-2 11,3 2,10 -8,5 -12,4l1 -7zm-292 -7c-7,-2 -8,0 -7,-6 -5,-1 -3,0 -3,-4 3,-2 5,-1 9,-3 1,5 2,2 2,10 0,0 0,0 0,1l-1 1c0,0 0,1 0,1zm232 -11c-2,2 -1,1 -3,4 -3,-2 -2,1 -2,-4 -2,0 -10,2 -5,-10 2,0 -1,-2 9,-1l1 11zm-335 0c-2,-1 -2,-1 -3,-3l0 -5c6,-2 9,1 10,8l-4 2c2,1 3,-1 3,4 -1,6 -7,7 -13,7 -4,-6 -3,-8 0,-12l7 -1zm157 -7c-1,-19 23,-16 9,-1l-9 1zm156 -10c-5,2 -5,1 -7,-2 -1,0 -2,0 -2,-1 0,0 0,0 -1,-1 7,-6 5,-5 9,-6 0,1 1,1 1,3 0,1 0,2 0,2 0,2 0,3 0,5zm-26 -19c-14,-15 17,-18 5,0l-5 0zm-137 2l2 4c-7,0 -3,2 -5,-2 -1,-2 -1,-3 -2,-5l2 -8c2,0 4,-1 6,-3l6 2 1 5c0,2 0,1 0,4l-10 3zm50 -12c3,-1 1,1 5,-1l2 -1c1,4 -1,3 5,3l0 4c2,1 1,0 3,3 -14,3 -2,4 -16,4 -1,-4 -1,-9 1,-12zm140 10c-3,-10 -4,-4 -5,-11l5 1c0,4 -1,3 1,7 2,-5 2,-3 1,-7l5 0c-2,6 -5,6 -4,15l-6 0 3 -5zm-17 1c0,-8 1,-7 -1,-15 6,1 3,-1 5,4 4,-1 5,0 8,1 2,12 -4,10 -12,10zm-85 -32c1,-4 -1,-1 3,-4 5,-3 5,-2 7,-2l2 1c0,0 0,0 0,0l3 2c0,-1 1,0 1,0l-3 8c3,-2 4,-3 7,-1 2,1 1,0 2,2 -1,6 -2,5 -9,4l0 -5c-8,-1 -10,1 -13,-5zm-28 -9c-1,-3 -3,-9 1,-11 3,-1 7,6 7,6 1,8 -1,7 -8,5z"/>
  <path class="fil0" d="M614 926c9,2 7,-2 12,-4l0 -9c-3,-2 -1,-1 -3,-3l5 3c0,2 -2,0 0,5l10 3 1 -4c7,0 10,-1 13,-5l0 -15c-2,-2 -2,-3 -5,-4 11,0 15,-5 14,-15l-1 -1 -1 -3 2 -1 -6 -21c0,0 -2,-3 -2,-3 -2,-7 -1,-1 2,-4 1,9 7,19 9,30 10,1 6,-3 14,-1 3,-3 2,-2 6,-2 9,-1 6,0 13,-6 0,0 -1,-5 -1,-6 -2,-5 -3,-5 -5,-5 5,-4 0,-2 2,-11 -4,0 -3,0 -6,-3 0,0 -1,0 -1,0 0,-1 0,-1 0,-1 6,-3 6,7 15,0 2,-1 1,-3 2,-6 15,-4 3,-8 7,-17 2,3 2,8 2,13l3 -3c1,-1 1,0 2,-1 -1,-6 -3,-7 1,-11 3,-1 5,-2 7,-3l1 -4c4,-14 -4,-2 2,-14 1,-2 1,-3 1,-5 -1,-4 -3,-3 -3,-8l9 -2 8 -3c0,-8 2,-11 2,-17 6,0 2,0 7,-4 -1,-7 2,-6 -2,-12 1,-3 0,0 2,-1l5 0 1 -4c1,-7 2,-5 3,-10 3,1 7,1 11,-1 3,-2 2,-5 2,-12 8,-7 8,-9 4,-20 5,-3 4,1 9,-2 3,-3 2,-4 6,-6l-1 -5c13,2 10,2 24,-4 1,-5 2,-6 4,-10 1,-5 3,-5 8,-6 1,-1 5,-3 5,-3 4,-2 3,0 8,-3 0,-1 2,-13 2,-15 0,-3 -1,-7 -2,-10 0,-2 -3,-5 -4,-6 -5,-8 -11,-4 -17,-5 0,0 1,2 2,3 4,-1 4,-2 6,1l3 4c0,1 0,1 0,1 0,0 1,1 1,1l-1 6c-7,2 -3,-3 -8,3 -7,0 -11,-1 -12,-6 -1,1 -4,2 -5,2l-3 3c-7,-1 -7,0 -11,-3 -6,4 -8,2 -13,0 -4,-1 -9,0 -12,-2l-11 8c0,-1 0,-1 -1,-2 0,-1 -1,-1 -1,-2 0,0 -1,-2 -2,-3 -3,-4 -2,-2 -6,-3 -5,-1 -4,-3 -8,-2 -5,1 0,3 -7,2 -2,-3 -3,-5 -3,-9 1,0 -1,0 3,-2 4,-1 6,1 10,3 2,-3 1,-2 1,-4 3,-7 7,-1 7,0 2,-7 1,-7 8,-7l1 -7 8 1c1,2 1,2 2,5 -2,2 -3,3 -6,4l3 1 1 7c5,-1 6,-2 11,-1 2,2 1,0 3,4 5,-1 5,-2 11,-2l2 3c5,-7 7,-3 9,-1 0,0 2,-2 2,-3 0,0 1,0 1,0l2 -1c0,-1 0,0 1,-1 -4,-2 -4,-1 -4,-6 3,-1 2,-1 5,-1 3,-1 1,-1 4,0 6,3 0,4 6,7 0,0 -1,-2 -1,-2l-1 -3c-2,1 -2,1 -1,-1 -1,-2 -1,-1 -2,-2 -1,-3 0,0 -1,-3 -1,-4 0,-2 -3,-5 -4,-4 -2,-1 -7,-3 -5,-2 -2,-2 -8,-2 -7,1 -4,0 -6,2 -2,2 1,0 -2,2l-2 -6c-5,-1 -7,0 -9,3 -6,5 -6,0 -9,4 -1,-3 -1,-3 -4,-5 -2,-1 -1,0 -2,-1l-2 -2c0,0 0,0 -1,-1l-5 -4 0 0c-2,0 -2,1 -1,-2 -2,0 -2,3 -1,-1l-1 -2 -6 -1c1,4 0,2 2,5l-4 0 1 -5c-8,6 1,7 -6,7l1 1 -9 0c-4,8 -16,-2 -16,-2l1 -4c-3,-1 -3,-2 -6,-4 0,5 0,4 1,7 -5,0 -1,1 -3,-2 -1,-3 3,-4 -2,-3l1 0c-3,2 -8,4 -12,4 0,1 0,1 -1,3 -1,3 -1,2 -5,4 -2,2 0,1 -3,2 -4,-10 -5,-9 -10,-10 1,-4 3,-6 2,-11l-6 -1c1,-6 0,-4 -3,-8l-1 0c-4,-1 -6,-3 -9,-5 1,-4 2,-3 4,-6l-4 -3 -2 0 0 14 -5 0c-3,2 0,1 -5,1 0,0 0,0 -1,0l-8 3c0,-1 -1,-1 -1,-1 0,0 0,-1 0,-1 -3,-4 -5,-3 -6,-5 0,0 0,0 0,0 -4,-2 -2,-4 -1,-6 -4,-1 -2,0 -4,-2 -3,-3 1,-2 -3,-3 -3,-1 -2,2 -3,-2 4,3 1,2 4,5l5 4c-5,4 -7,1 -17,-1 -1,1 -2,2 -3,3 -10,-2 -6,-2 -11,-3 0,-3 1,-10 5,-10l4 0c12,3 10,-1 13,2 -1,-6 0,-1 1,-3l3 -7c-8,-2 -16,-2 -23,-4 -1,3 -2,5 -5,6l-11 -6c0,-13 -4,-12 -13,-13 -3,0 -3,0 -4,0 0,-1 -1,-1 -1,-1l-3 1c-1,3 -1,2 0,6l1 2 1 3 2 2 0 2c-1,1 0,0 -2,1 -1,3 0,1 -1,4l-4 0 -2 -2 0 -7c-1,-1 0,-1 -2,-2 -1,0 0,0 -2,0l1 -2 -1 -2 -1 -1 -1 -3c-2,0 -2,1 -2,-1 -5,-1 -7,1 -10,4 -3,-2 -2,0 -7,1 0,-1 0,-1 -1,-2 -1,-3 0,-2 -11,-2 -6,-1 -2,-2 -8,-4l-3 3c-3,2 -2,2 -2,4l-1 6c4,9 3,3 5,7 -2,2 -3,5 -6,6 -3,2 1,-2 -6,4 -2,-1 -3,-3 -5,-5 -5,2 -3,2 -10,2 1,7 1,1 -2,6 -2,4 1,1 -2,4 0,0 -2,1 -3,2 -1,0 -4,0 -6,0 -5,0 -1,-1 -4,-1 -5,-1 -7,1 -10,3 -1,16 -1,2 1,13 1,5 -1,3 0,7 0,3 2,1 1,4l-2 -4c0,-2 -1,-4 -1,-6 -11,2 1,4 -10,7 0,-1 -1,-1 -1,-1 0,0 0,-1 0,-1 0,0 0,-1 0,-1 -2,-3 -1,-2 -5,-5 -4,-3 -2,-4 -5,-7 -28,-18 19,12 -23,9l0 2 -2 -1 0 -1c-2,-2 -1,-1 -1,-3 -2,1 -2,1 -2,-1l-1 0 -1 0 -5 -1c-2,-1 -2,-1 -3,-2 -3,1 -2,1 -4,3 -1,11 1,3 2,9 2,9 -4,11 -5,11 -3,-1 -13,2 -16,4l-11 -4c0,5 1,8 -1,12 0,-1 0,-1 -1,-3 0,0 0,-2 0,-3 -12,-3 -1,-5 -14,-8 -6,-1 -9,-2 -16,0 0,2 0,1 -2,0 -2,5 -2,5 -7,7 2,4 1,3 1,7 -15,-2 -9,-4 -20,4 -6,3 -7,14 -9,21l-6 -1 -7 6c0,3 0,2 1,4 3,-1 3,-2 5,0l4 4c-2,5 -5,3 -3,8l9 -1c2,1 3,2 4,3l1 3c3,4 2,5 11,4 0,2 0,1 0,3 1,2 1,3 -2,4l-10 3c0,7 2,9 9,9 2,5 2,2 4,6l4 0c2,9 1,0 7,7l2 -1 6 0c1,6 -1,5 1,10l4 0c1,3 -1,10 0,13 1,5 1,3 4,4 2,0 1,-1 3,2 3,-1 2,-1 5,0 -1,1 -1,1 -2,2l0 3c-3,4 -3,9 0,13 3,3 3,6 4,11 -6,4 -3,7 -6,16 2,2 3,4 4,8 3,0 8,-1 11,0 2,1 0,1 4,2 3,1 4,0 6,0l1 -6c4,7 0,6 8,9l-2 4c0,4 -1,2 1,4 1,-3 3,-7 5,-11 4,-10 2,-8 6,-8 -3,3 -11,19 -10,27 0,5 2,5 5,7 -5,15 -3,4 -1,16 -5,3 -5,2 -6,5 0,1 -1,7 -2,8 7,5 3,2 6,10 3,7 4,4 9,9l8 -1 1 -1 2 0 6 1c9,0 10,3 11,7 1,3 1,1 2,3 2,3 0,3 3,4 -3,14 -1,14 9,21l11 -2c-2,3 -3,3 -7,5 0,3 0,6 0,8 -1,6 13,13 16,3 5,4 4,7 11,8l3 -20c1,1 1,0 1,4l-2 14c0,0 0,1 0,1l4 4c3,3 3,4 7,4 0,-5 0,-8 0,-13 0,-2 0,-4 0,-6 1,-4 1,-2 2,-3l0 22 9 1c-2,3 -2,1 -3,5 3,4 3,1 4,8 -11,4 -2,11 3,10 1,-1 1,-3 5,-4 -2,4 -3,5 0,9 -3,2 -4,2 -3,7 1,7 -1,8 1,10 1,1 5,1 6,0 2,-2 0,-1 1,-3l0 -3c4,3 0,-1 3,4 2,1 2,1 3,3 2,4 0,2 4,7l5 0 0 5c5,2 3,-1 5,5 5,-1 2,3 13,1 1,3 1,2 2,5l-3 2c-1,6 3,14 7,17 6,2 12,2 16,-1 5,-6 -1,-16 1,-21 2,2 1,1 2,11l8 -3c6,2 0,1 6,2 4,-5 0,-5 -1,-6 -2,-1 0,1 -1,-2l9 3c2,-3 2,-3 5,-3 3,-7 6,-5 9,-10l3 -13c-3,-2 -9,-4 -7,-9 0,-1 4,-9 7,-11l-1 -4c4,-1 4,-1 3,-6l5 1c2,-3 1,-2 4,-3 1,-4 0,-5 -1,-10l-4 -1 2 -6c-1,-5 -4,-10 -1,-13 3,3 2,7 4,11 0,-1 -2,-1 1,-2 5,-1 3,0 5,2l-6 1c3,6 1,12 5,16zm-67 -21c1,0 2,1 3,3 0,1 0,1 -1,2 -2,-1 -3,0 -2,-5zm227 -232c0,-5 0,-7 1,-10l4 -1c2,1 6,6 7,8 -6,2 -3,2 -12,3zm-55 -28c4,-4 10,-2 11,3 2,10 -8,5 -12,4l1 -7zm-292 -7c-7,-2 -8,0 -7,-6 -5,-1 -3,0 -3,-4 3,-2 5,-1 9,-3 1,5 2,2 2,10 0,0 0,0 0,1l-1 1c0,0 0,1 0,1zm232 -11c-2,2 -1,1 -3,4 -3,-2 -2,1 -2,-4 -2,0 -10,2 -5,-10 2,0 -1,-2 9,-1l1 11zm-335 0c-2,-1 -2,-1 -3,-3l0 -5c6,-2 9,1 10,8l-4 2c2,1 3,-1 3,4 -1,6 -7,7 -13,7 -4,-6 -3,-8 0,-12l7 -1zm157 -7c-1,-19 23,-16 9,-1l-9 1zm156 -10c-5,2 -5,1 -7,-2 -1,0 -2,0 -2,-1 0,0 0,0 -1,-1 7,-6 5,-5 9,-6 0,1 1,1 1,3 0,1 0,2 0,2 0,2 0,3 0,5zm-26 -19c-14,-15 17,-18 5,0l-5 0zm-137 2l2 4c-7,0 -3,2 -5,-2 -1,-2 -1,-3 -2,-5l2 -8c2,0 4,-1 6,-3l6 2 1 5c0,2 0,1 0,4l-10 3zm50 -12c3,-1 1,1 5,-1l2 -1c1,4 -1,3 5,3l0 4c2,1 1,0 3,3 -14,3 -2,4 -16,4 -1,-4 -1,-9 1,-12zm140 10c-3,-10 -4,-4 -5,-11l5 1c0,4 -1,3 1,7 2,-5 2,-3 1,-7l5 0c-2,6 -5,6 -4,15l-6 0 3 -5zm-17 1c0,-8 1,-7 -1,-15 6,1 3,-1 5,4 4,-1 5,0 8,1 2,12 -4,10 -12,10zm-85 -32c1,-4 -1,-1 3,-4 5,-3 5,-2 7,-2l2 1c0,0 0,0 0,0l3 2c0,-1 1,0 1,0l-3 8c3,-2 4,-3 7,-1 2,1 1,0 2,2 -1,6 -2,5 -9,4l0 -5c-8,-1 -10,1 -13,-5zm-28 -9c-1,-3 -3,-9 1,-11 3,-1 7,6 7,6 1,8 -1,7 -8,5z"/>
  <path class="fil4" d="M649 617c-5,12 3,10 5,10 0,5 -1,2 2,4 2,-3 1,-2 3,-4l-1 -11c-10,-1 -7,1 -9,1z"/>
  <path class="fil4" d="M378 667c-9,20 5,17 8,17 1,8 -1,4 5,7 3,-6 0,-4 5,-8l-2 -18c-18,-2 -12,1 -16,2z"/>
  <path class="fil4" d="M561 731c-5,11 3,10 5,10 0,4 -1,2 2,4 2,-4 0,-3 3,-5l-1 -10c-11,-2 -7,1 -9,1z"/>
  <path class="fil4" d="M433 770c27,20 27,-2 29,-7 12,1 5,3 11,-5 -7,-7 -5,-2 -9,-10l-29 -3c-10,28 -2,19 -2,25z"/>
  <path class="fil4" d="M514 672c-6,11 2,9 4,9 1,5 0,3 3,4 2,-3 0,-2 3,-4l-1 -11c-11,-1 -7,1 -9,2z"/>
  <path class="fil4" d="M644 654c-5,11 3,10 5,10 0,4 -1,2 2,4 2,-4 0,-2 3,-5l-1 -10c-11,-2 -7,1 -9,1z"/>
  <path class="fil4" d="M606 628c-6,11 2,9 4,9 1,5 0,2 3,4 2,-3 0,-2 3,-4l-1 -11c-11,-1 -7,1 -9,2z"/>
  <path class="fil4" d="M612 631c-6,11 2,10 4,10 1,4 0,2 3,4 2,-4 0,-2 3,-5l-1 -10c-11,-2 -7,1 -9,1z"/>
  <path class="fil4" d="M647 662c-5,11 3,9 4,9 1,5 0,2 3,4 2,-3 0,-2 3,-4l-1 -11c-11,-1 -7,1 -9,2z"/>
  <path class="fil4" d="M562 687c-5,11 3,10 5,10 1,4 -1,2 3,4 2,-4 0,-2 3,-5l-1 -10c-11,-2 -8,1 -10,1z"/>
  <path class="fil4" d="M518 677c-5,11 3,10 4,10 1,4 0,2 3,4 2,-4 0,-3 3,-5l-1 -10c-11,-2 -7,1 -9,1z"/>
  <path class="fil4" d="M520 619c-6,11 2,9 4,9 1,5 0,2 3,4 2,-3 0,-2 3,-4l-1 -11c-11,-1 -7,1 -9,2z"/>
  <path class="fil4" d="M557 694c-5,11 3,10 5,10 1,4 -1,2 3,4 2,-3 0,-2 3,-4l-1 -11c-11,-1 -7,1 -10,1z"/>
  <path class="fil4" d="M621 745c-6,12 2,10 4,10 1,5 0,2 3,4 2,-3 0,-2 3,-4l-1 -11c-11,-1 -7,1 -9,1z"/>
  <path class="fil3" d="M506 416c1,1 1,2 1,2 -3,0 -29,-15 -33,-18 -9,2 -13,3 -17,3 -12,2 -10,2 -1,0 5,-1 11,-2 17,-3 -6,-4 -19,-14 -26,-19 -12,3 -35,0 -46,-4 19,4 40,4 44,2 -8,-6 -18,-16 -25,-23 -15,2 -20,0 -29,-1 7,-1 8,0 27,0 -7,-12 -38,-36 -51,-45 30,10 42,33 62,51 1,-2 3,-3 4,-6 6,-10 6,-19 8,-21 0,6 -1,12 -3,17 -1,2 -6,11 -8,12 7,6 18,16 26,21 4,-10 2,-5 13,-26l-11 28c6,3 16,11 24,16 2,-2 8,-15 9,-18 2,-5 5,-20 6,-22 0,8 -2,15 -4,23 -3,8 -6,12 -9,18 2,2 22,13 22,13z"/>
  <path class="fil4" d="M504 703l-1 -1c0,0 0,2 1,2 -7,-3 -1,-4 -7,-7 -2,-1 0,-1 -3,0 -3,0 -3,0 -5,1 0,5 0,4 3,6 0,0 -1,0 -1,1l-2 1c0,0 0,0 0,0 -1,1 -2,3 -2,3 -3,-2 -5,-6 -9,1l-3 -3c-5,0 -6,1 -11,2 -2,-4 0,-2 -2,-4 -6,-1 -7,0 -12,1l0 -7 -4 -1c3,-2 5,-2 7,-4 -1,-3 -2,-3 -3,-5l-8 -1 0 6c-8,1 -7,1 -8,7 -1,0 -5,-7 -7,1 -1,2 0,1 -1,4 -5,-2 -7,-4 -10,-3 -4,2 -2,1 -3,2 0,4 1,6 2,9 8,1 3,-1 8,-2 3,-1 2,0 7,2 5,1 3,-1 7,3 0,1 2,3 2,3 0,0 0,1 0,1 1,2 1,2 2,3l10 -8c3,1 8,1 12,2 5,2 8,4 13,0 5,3 5,2 12,3l3 -3c0,0 3,-1 4,-2 2,5 6,6 12,6 5,-6 1,-1 8,-4l1 -5c0,0 0,-1 0,-1 0,0 -1,0 -1,-1l-2 -4c-3,-3 -3,-2 -7,-1 0,-1 -1,-3 -2,-3zm-4 -5c0,2 0,2 2,1l-2 -1z"/>
  <path class="fil4" d="M473 629l15 -1c26,-28 -17,-33 -15,1z"/>
  <path class="fil4" d="M685 705c-2,-4 -1,-1 -1,-7 -3,2 -4,-5 -2,5 -4,-5 -1,0 -20,-4l-5 0c-6,0 -7,10 -8,15 8,1 2,1 16,4 2,-2 3,-3 5,-4 15,3 18,7 24,1l-6 -5c-5,-5 0,-3 -6,-7 1,5 0,0 3,2z"/>
  <path class="fil4" d="M539 925c-7,5 -3,-5 -4,10 -3,39 45,103 32,132 -4,-5 -3,0 -5,-11 -4,-16 -8,-43 -21,-58l0 40c6,3 9,4 13,7 -3,16 -1,9 -7,19 0,0 -1,2 -2,2 0,-1 -1,1 0,1l3 21c-13,-7 -1,4 -9,-13 -4,-7 -9,-7 -11,-10 -12,-32 -6,-26 6,-41 0,-19 3,-38 -1,-56 -1,-8 -3,-13 -4,-22 -1,-10 2,-26 -5,-25 9,-14 5,-35 14,-54l-19 -2c6,-8 0,-10 15,-7 11,1 3,3 3,4 5,-13 5,-26 13,-34 8,10 0,27 -4,41l8 21 -14 5c-3,14 -5,19 -1,30z"/>
  <path class="fil3" d="M539 241c1,0 3,-1 3,-1 0,-3 -16,-53 -18,-58 31,-16 31,-24 35,-33 -7,9 -9,15 -35,31 -2,-7 -7,-23 -10,-31 17,-12 30,-26 30,-39 -3,21 -27,33 -31,37 -14,-31 0,0 -14,-31 16,-11 21,-14 27,-23 -4,5 -11,10 -28,21 -5,-11 -27,-64 -32,-79 6,24 14,46 23,65 -9,4 -27,6 -32,6 0,1 19,1 33,-4 4,9 7,17 11,24 -3,1 -4,3 -8,4 -13,4 -34,3 -37,4 6,1 25,1 31,-1 3,0 13,-4 15,-5 13,33 0,0 12,31 -12,2 -25,7 -50,14l51 -12c2,7 5,19 8,28 -3,3 -19,5 -23,6 -5,1 -21,1 -24,2 8,1 17,1 25,1 9,-2 15,-4 22,-6 1,3 16,49 16,49z"/>
 </g>
</svg>
